<svg height="96" width="96" xmlns="http://www.w3.org/2000/svg" xmlns:xlink="http://www.w3.org/1999/xlink"><linearGradient id="a"><stop offset="0" stop-color="#fff"/><stop offset="1" stop-color="#fff" stop-opacity="0"/></linearGradient><linearGradient id="b" gradientUnits="userSpaceOnUse" x1="36.357143" x2="36.357143" xlink:href="#a" y1="6" y2="63.893143"/><filter id="c" color-interpolation-filters="sRGB" height="1.384" width="1.384" x="-.192" y="-.192"><feGaussianBlur stdDeviation="5.28"/></filter><linearGradient id="d" gradientUnits="userSpaceOnUse" x1="48" x2="48" xlink:href="#a" y1="20.220806" y2="138.66119"/><radialGradient id="e" cx="48" cy="90.171875" gradientTransform="matrix(1.1573129 0 0 .99590774 -7.551021 .197132)" gradientUnits="userSpaceOnUse" r="42" xlink:href="#a"/><clipPath id="f"><rect height="84" rx="6" width="84" x="6" y="6"/></clipPath><linearGradient id="g" gradientUnits="userSpaceOnUse" x1="48" x2="48" y1="90" y2="5.987717"><stop offset="0" stop-color="#d18c1d"/><stop offset="1" stop-color="#ffcf0f"/></linearGradient><linearGradient id="h" gradientUnits="userSpaceOnUse" x1="56.466431" x2="56.466431" y1="11.349823" y2="36.26585"><stop offset="0"/><stop offset="1" stop-opacity="0"/></linearGradient><filter id="i" color-interpolation-filters="sRGB" height="1.27825" width="1.210995" x="-.105498" y="-.139125"><feGaussianBlur stdDeviation="2.9050996"/></filter><clipPath id="j"><path d="m-88 6c-3.324 0-6 2.676-6 6v72c0 3.324 2.676 6 6 6h72c3.324 0 6-2.676 6-6v-72c0-3.324-2.676-6-6-6zm33.625 22c1.880448-.06833 3.788449.959903 4.75 2.90625.579908 1.173833.630329 3.073374.125 4.40625-.761049 2.007369-2.527947 3.21875-4.6875 3.21875-1.137164 0-1.202239.0223-1.125.375.04475.204342.323856 4.66007.625 9.90625.412151 7.179997.511906 9.704677.375 10.21875-.100033.375618-.156526.731501-.125.78125 1.574006.888629 3.192056 1.799209 4.90625 2.3125 1.336222-1.877455 3.772107-4.744143 4.25-4.96875 3.317966-.462086 6.880559-.480621 10.1875.03125 5.657377 6.560115 11.174834 13.764075 16.1875 20.84375l-41.25.09375 8.71875-13.75c-.03569-.02979-2.808198-1.483462-6.1875-3.25-5.496689-2.873399-6.638586-3.372067-6.625-2.90625.0022.07386.421884 1.875646.9375 4l1.1875 3.84375.03125 5.625c.01843 5.443247-.0022 5.661679-.34375 6-.375441.371853-1.112829.396687-3.3125.1875-.792649-.07539-1.840876-.406019-2.125-.6875l.03125-11.625-.9375-3.6875-.9375-3.6875-5.1875 9c-2.848853 4.962604-5.472239 9.333029-5.8125 9.6875-.86375.899818-1.354531.838846-2.84375-.25-1.275231-.932391-1.572539-1.383605-1.40625-2.25.149834-.780644.01677-.546097 6.09375-11.125 3.011727-5.242855 5.523305-9.703165 5.5625-9.90625.06098-.31595-.193363-.503911-1.78125-1.34375-1.833623-.96981-1.875906-.977232-2.125-.625-.442438.625627-1.074526.451733-2.3125-.65625-1.698831-1.520448-1.745074-1.297229 2-8.28125 1.698047-3.166613 3.271023-5.951186 3.5-6.1875l.40625-.40625 7.4375-.0625 7.4375-.0625-.25-.78125c-.591495-1.88561.02988-4.22107 1.46875-5.59375.915574-.873465 2.027981-1.302753 3.15625-1.34375zm-14.5 13.25c-.253538.000182-.598734.01989-1.03125.03125l-1.84375.0625-1.96875 3.65625c-1.084031 2.025217-1.949573 3.738343-1.90625 3.78125.110518.109463 3.300355 1.74815 3.40625 1.75.04772.000818.962794-1.959126 2.03125-4.34375 1.068455-2.384626 1.96681-4.487517 2.03125-4.65625.08147-.213327.04187-.281796-.71875-.28125zm9.4375 7c-.147081-.02701-.580386.857379-1.6875 3.34375-.896631 2.013671-1.656072 3.720382-1.6875 3.78125-.06085.117854 3.815701 2.179108 3.9375 2.09375.03957-.02773-.03025-2.019282-.15625-4.40625-.126001-2.386971-.285188-4.532318-.34375-4.75-.01033-.0384-.04149-.05864-.0625-.0625z"/></clipPath><clipPath id="k"><path d="m-55.763593 76.871041c-.792649-.07539-1.81409-.394056-2.098214-.675537l.0091-11.629569-.938143-3.695097-.938143-3.695097-5.179737 9.022914c-2.848853 4.962604-5.458134 9.312939-5.798395 9.66741-.86375.899818-1.365788.859482-2.855007-.229364-1.275231-.932391-1.561174-1.396213-1.394885-2.262608.149834-.780644.01978-.543388 6.096765-11.122291 3.011727-5.242855 5.507937-9.698625 5.547132-9.90171.06098-.31595-.196572-.510905-1.784459-1.350744-1.833623-.96981-1.858729-.977254-2.107823-.625022-.442438.625627-1.076735.443555-2.314709-.664428-1.698831-1.520448-1.757699-1.275786 1.987375-8.259807 1.698047-3.166613 3.274703-5.950827 3.50368-6.187141l.416322-.429663 7.438682-.04987 7.438685-.04987-.253918-.809459c-.591495-1.88561.0095-4.19663 1.448371-5.56931 2.441532-2.329241 6.363975-1.555682 7.902456 1.558473.579908 1.173833.635892 3.055549.130563 4.388425-.761049 2.007369-2.533852 3.225841-4.693405 3.225841-1.137164 0-1.193753.01883-1.116514.371533.04475.204342.327755 4.66386.628899 9.91004.412151 7.179997.502564 9.707373.365658 10.221446-.100033.375618-.156083.723641-.124557.77339 1.574006.888629 3.190563 1.801476 4.904757 2.314767 1.336222-1.877455 3.797333-4.729212 4.275226-4.953819 3.317966-.462086 6.852918-.488971 10.159859.0229 5.657377 6.560115 11.18443 13.764926 16.197096 20.844601l-41.233706.08249 8.713509-13.734918c-.03569-.02979-2.829765-1.499502-6.209067-3.26604-5.496689-2.873399-6.619512-3.366421-6.605926-2.900604.0022.07386.425783 1.872406.941399 3.99676l1.19002 3.862467.01906 5.627061c.01843 5.443247.0075 5.638485-.334064 5.976806-.375441.371853-1.134271.403831-3.333942.194644zm6.720887-24.807932c-.126001-2.386971-.277007-4.518048-.335569-4.73573-.08264-.307176-.471447.423869-1.73672 3.265436-.896631 2.013671-1.655958 3.711021-1.687386 3.771889-.06085.117854 3.795022 2.174125 3.916821 2.088767.03957-.02773-.03115-2.003394-.157146-4.390362zm-11.15999-6.878865c1.068455-2.384626 1.995368-4.473735 2.059808-4.642468.108626-.284436-.01879-.30322-1.748855-.257798l-1.866016.04899-1.970962 3.682213c-1.084031 2.025217-1.935518 3.717322-1.892195 3.760229.110518.109463 3.282916 1.741151 3.388811 1.743001.04772.000818.960953-1.949543 2.029409-4.334167z"/></clipPath><filter id="l" color-interpolation-filters="sRGB"><feGaussianBlur stdDeviation=".58101993"/></filter><linearGradient id="m" gradientTransform="matrix(1.0058652 0 0 .994169 100 0)" gradientUnits="userSpaceOnUse" x1="45.447727" x2="45.447727" y1="92.539597" y2="7.01654"><stop offset="0"/><stop offset="1" stop-opacity=".588235"/></linearGradient><linearGradient id="n" gradientTransform="matrix(1.0238095 0 0 1.0119048 -1.142857 -98.071429)" gradientUnits="userSpaceOnUse" x1="32.251034" x2="32.251034" xlink:href="#m" y1="6.131708" y2="90.238609"/><linearGradient id="o" gradientTransform="translate(0 -97)" gradientUnits="userSpaceOnUse" x1="32.251034" x2="32.251034" xlink:href="#m" y1="6.131708" y2="90.238609"/><g><g fill="url(#n)"><path d="m12-95.03125c-5.5110903 0-10.03125 4.52016-10.03125 10.03125v71c0 5.5110902 4.5201598 10.03125 10.03125 10.03125h72c5.51109 0 10.03125-4.5201597 10.03125-10.03125v-71c0-5.51109-4.52016-10.03125-10.03125-10.03125z" opacity=".08" transform="scale(1 -1)"/><path d="m12-94.03125c-4.971633 0-9.03125 4.059617-9.03125 9.03125v71c0 4.9716329 4.0596171 9.03125 9.03125 9.03125h72c4.971633 0 9.03125-4.059617 9.03125-9.03125v-71c0-4.971633-4.059617-9.03125-9.03125-9.03125z" opacity=".1" transform="scale(1 -1)"/><path d="m12-93c-4.4091333 0-8 3.590867-8 8v71c0 4.4091333 3.5908667 8 8 8h72c4.409133 0 8-3.5908667 8-8v-71c0-4.409133-3.590867-8-8-8z" opacity=".2" transform="scale(1 -1)"/><rect height="85" opacity=".3" rx="7" transform="scale(1 -1)" width="86" x="5" y="-92"/></g><rect fill="url(#o)" height="84" opacity=".45" rx="6" transform="scale(1 -1)" width="84" x="6" y="-91"/></g><g><rect fill="url(#g)" height="84" rx="6" width="84" x="6" y="6"/><g fill="url(#h)" fill-rule="evenodd" transform="matrix(.71698113 0 0 .75 2.830189 1.5)"><path d="m18 6h16l-8 16h-16z" opacity=".8"/><path d="m44 6h16l-8 16h-16z" opacity=".8"/><path d="m72 6h16l-8 16h-16z" opacity=".8"/><path d="m100 6h16l-8 16h-16z" opacity=".8"/></g><path d="m12 6c-3.324 0-6 2.676-6 6v2 68 2c0 .334721.04135.6507.09375.96875.0487.295596.09704.596915.1875.875.00988.03038.020892.0636.03125.09375.098865.287771.2348802.547452.375.8125.1445918.273507.3156161.535615.5.78125s.3737765.473472.59375.6875c.439947.428056.94291.814526 1.5 1.09375.278545.139612.5734731.246947.875.34375-.2562018-.100222-.4867109-.236272-.71875-.375-.00741-.0044-.023866.0045-.03125 0-.031933-.0193-.062293-.04251-.09375-.0625-.120395-.0767-.2310226-.163513-.34375-.25-.1061728-.0808-.2132809-.161112-.3125-.25-.1779299-.161433-.3474596-.345388-.5-.53125-.1075789-.130255-.2183939-.265285-.3125-.40625-.025089-.03838-.038446-.08587-.0625-.125-.064763-.103032-.1302275-.204517-.1875-.3125-.1010083-.194706-.2056748-.415701-.28125-.625-.00796-.02181-.023589-.04055-.03125-.0625-.0318251-.09195-.0358045-.186831-.0625-.28125-.0303323-.106618-.0703894-.203031-.09375-.3125-.0728786-.341512-.125-.698205-.125-1.0625v-2-68-2c0-2.781848 2.2181517-5 5-5h2 68 2c2.781848 0 5 2.218152 5 5v2 68 2c0 .364295-.05212.720988-.125 1.0625-.04415.206893-.08838.397658-.15625.59375-.0077.02195-.0233.04069-.03125.0625-.06274.173739-.138383.367449-.21875.53125-.04158.0828-.07904.169954-.125.25-.0546.09721-.126774.18835-.1875.28125-.09411.140965-.204921.275995-.3125.40625-.143174.17445-.303141.346998-.46875.5-.01117.0102-.01998.02115-.03125.03125-.138386.125556-.285091.234436-.4375.34375-.102571.07315-.204318.153364-.3125.21875-.0074.0045-.02384-.0044-.03125 0-.232039.138728-.462548.274778-.71875.375.301527-.0968.596455-.204138.875-.34375.55709-.279224 1.060053-.665694 1.5-1.09375.219973-.214028.409366-.441865.59375-.6875s.355408-.507743.5-.78125c.14012-.265048.276135-.524729.375-.8125.01041-.03078.02133-.06274.03125-.09375.09046-.278085.1388-.579404.1875-.875.0524-.31805.09375-.634029.09375-.96875v-2-68-2c0-3.324-2.676-6-6-6z" fill="url(#b)" opacity=".5"/><path d="m12 90c-3.324 0-6-2.676-6-6v-2-68-2c0-.334721.04135-.6507.09375-.96875.0487-.295596.09704-.596915.1875-.875.00988-.03038.020892-.0636.03125-.09375.098865-.287771.2348802-.547452.375-.8125.1445918-.273507.3156161-.535615.5-.78125s.3737765-.473472.59375-.6875c.439947-.428056.94291-.814526 1.5-1.09375.278545-.139612.5734731-.246947.875-.34375-.2562018.100222-.4867109.236272-.71875.375-.00741.0044-.023866-.0045-.03125 0-.031933.0193-.062293.04251-.09375.0625-.120395.0767-.2310226.163513-.34375.25-.1061728.0808-.2132809.161112-.3125.25-.1779299.161433-.3474596.345388-.5.53125-.1075789.130255-.2183939.265285-.3125.40625-.025089.03838-.038446.08587-.0625.125-.064763.103032-.1302275.204517-.1875.3125-.1010083.194706-.2056748.415701-.28125.625-.00796.02181-.023589.04055-.03125.0625-.0318251.09195-.0358045.186831-.0625.28125-.0303323.106618-.0703894.203031-.09375.3125-.0728786.341512-.125.698205-.125 1.0625v2 68 2c0 2.781848 2.2181517 5 5 5h2 68 2c2.781848 0 5-2.218152 5-5v-2-68-2c0-.364295-.05212-.720988-.125-1.0625-.04415-.206893-.08838-.397658-.15625-.59375-.0077-.02195-.0233-.04069-.03125-.0625-.06274-.173739-.138383-.367449-.21875-.53125-.04158-.0828-.07904-.169954-.125-.25-.0546-.09721-.126774-.18835-.1875-.28125-.09411-.140965-.204921-.275995-.3125-.40625-.143174-.17445-.303141-.346998-.46875-.5-.01117-.0102-.01998-.02115-.03125-.03125-.138386-.125556-.285091-.234436-.4375-.34375-.102571-.07315-.204318-.153364-.3125-.21875-.0074-.0045-.02384.0044-.03125 0-.232039-.138728-.462548-.274778-.71875-.375.301527.0968.596455.204138.875.34375.55709.279224 1.060053.665694 1.5 1.09375.219973.214028.409366.441865.59375.6875s.355408.507743.5.78125c.14012.265048.276135.524729.375.8125.01041.03078.02133.06274.03125.09375.09046.278085.1388.579404.1875.875.0524.31805.09375.634029.09375.96875v2 68 2c0 3.324-2.676 6-6 6z" fill="url(#e)" opacity=".15"/></g><rect height="66" rx="12" style="opacity:.1;stroke:#fff;stroke-width:.5;stroke-linecap:round;clip-path:url(#f);fill:url(#d);filter:url(#c)" width="66" x="15" y="15"/><path clip-path="url(#j)" d="m-65.763593 77.871041c-.792649-.07539-1.81409-.394056-2.098214-.675537l.0091-11.629569-.938143-3.695097-.938143-3.695097-5.179737 9.022914c-2.848853 4.962604-5.458134 9.312939-5.798395 9.66741-.86375.899818-1.365788.859482-2.855007-.229364-1.275231-.932391-1.561174-1.396213-1.394885-2.262608.149834-.780644.01978-.543388 6.096765-11.122291 3.011727-5.242855 5.507937-9.698625 5.547132-9.90171.06098-.31595-.196572-.510905-1.784459-1.350744-1.833623-.96981-1.858729-.977254-2.107823-.625022-.442438.625627-1.076735.443555-2.314709-.664428-1.698831-1.520448-1.757699-1.275786 1.987375-8.259807 1.698047-3.166613 3.274703-5.950827 3.50368-6.187141l.416322-.429663 7.438682-.04987 7.438685-.04987-.253918-.809459c-.591495-1.88561.0095-4.19663 1.448371-5.56931 2.441532-2.329241 6.363975-1.555682 7.902456 1.558473.579908 1.173833.635892 3.055549.130563 4.388425-.761049 2.007369-2.533852 3.225841-4.693405 3.225841-1.137164 0-1.193753.01883-1.116514.371533.04475.204342.327755 4.66386.628899 9.91004.412151 7.179997.502564 9.707373.365658 10.221446-.100033.375618-.156083.723641-.124557.77339 1.574006.888629 3.190563 1.801476 4.904757 2.314767 1.336222-1.877455 3.797333-4.729212 4.275226-4.953819 3.317966-.462086 6.852918-.488971 10.159859.0229 5.657377 6.560115 11.18443 13.764926 16.197096 20.844601l-41.233706.08249 8.713509-13.734918c-.03569-.02979-2.829765-1.499502-6.209067-3.26604-5.496689-2.873399-6.619512-3.366421-6.605926-2.900604.0022.07386.425783 1.872406.941399 3.99676l1.19002 3.862467.01906 5.627061c.01843 5.443247.0075 5.638485-.334064 5.976806-.375441.371853-1.134271.403831-3.333942.194644zm6.720887-24.807932c-.126001-2.386971-.277007-4.518048-.335569-4.73573-.08264-.307176-.471447.423869-1.73672 3.265436-.896631 2.013671-1.655958 3.711021-1.687386 3.771889-.06085.117854 3.795022 2.174125 3.916821 2.088767.03957-.02773-.03115-2.003394-.157146-4.390362zm-11.15999-6.878865c1.068455-2.384626 1.995368-4.473735 2.059808-4.642468.108626-.284436-.01879-.30322-1.748855-.257798l-1.866016.04899-1.970962 3.682213c-1.084031 2.025217-1.935518 3.717322-1.892195 3.760229.110518.109463 3.282916 1.741151 3.388811 1.743001.04772.000818.960953-1.949543 2.029409-4.334167z" fill="#feeeb7" filter="url(#i)" opacity=".8" transform="translate(100)"/><path d="m34.236407 77.871041c-.792649-.07539-1.81409-.394056-2.098214-.675537l.0091-11.629569-.938143-3.695097-.938143-3.695097-5.179737 9.022914c-2.848853 4.962604-5.458134 9.312939-5.798395 9.66741-.86375.899818-1.365788.859482-2.855007-.229364-1.275231-.932391-1.561174-1.396213-1.394885-2.262608.149834-.780644.01978-.543388 6.096765-11.122291 3.011727-5.242855 5.507937-9.698625 5.547132-9.90171.06098-.31595-.196572-.510905-1.784459-1.350744-1.833623-.96981-1.858729-.977254-2.107823-.625022-.442438.625627-1.076735.443555-2.314709-.664428-1.698831-1.520448-1.757699-1.275786 1.987375-8.259807 1.698047-3.166613 3.274703-5.950827 3.50368-6.187141l.416322-.429663 7.438682-.04987 7.438685-.04987-.253918-.809459c-.591495-1.88561.0095-4.19663 1.448371-5.56931 2.441532-2.329241 6.363975-1.555682 7.902456 1.558473.579908 1.173833.635892 3.055549.130563 4.388425-.761049 2.007369-2.533852 3.225841-4.693405 3.225841-1.137164 0-1.193753.01883-1.116514.371533.04475.204342.327755 4.66386.628899 9.91004.412151 7.179997.502564 9.707373.365658 10.221446-.100033.375618-.156083.723641-.124557.77339 1.574006.888629 3.190563 1.801476 4.904757 2.314767 1.336222-1.877455 3.797333-4.729212 4.275226-4.953819 3.317966-.462086 6.852918-.488971 10.159859.0229 5.657377 6.560115 11.18443 13.764926 16.197096 20.844601l-41.233706.08249 8.713509-13.734918c-.03569-.02979-2.829765-1.499502-6.209067-3.26604-5.496689-2.873399-6.619512-3.366421-6.605926-2.900604.0022.07386.425783 1.872406.941399 3.99676l1.19002 3.862467.01906 5.627061c.01843 5.443247.0075 5.638485-.334064 5.976806-.375441.371853-1.134271.403831-3.333942.194644zm6.720887-24.807932c-.126001-2.386971-.277007-4.518048-.335569-4.73573-.08264-.307176-.471447.423869-1.73672 3.265436-.896631 2.013671-1.655958 3.711021-1.687386 3.771889-.06085.117854 3.795022 2.174125 3.916821 2.088767.03957-.02773-.03115-2.003394-.157146-4.390362zm-11.15999-6.878865c1.068455-2.384626 1.995368-4.473735 2.059808-4.642468.108626-.284436-.01879-.30322-1.748855-.257798l-1.866016.04899-1.970962 3.682213c-1.084031 2.025217-1.935518 3.717322-1.892195 3.760229.110518.109463 3.282916 1.741151 3.388811 1.743001.04772.000818.960953-1.949543 2.029409-4.334167z" fill="#3a2d01"/><path clip-path="url(#k)" d="m-55.763593 77.871041c-.792649-.07539-1.81409-.394056-2.098214-.675537l.0091-11.629569-.938143-3.695097-.938143-3.695097-5.179737 9.022914c-2.848853 4.962604-5.458134 9.312939-5.798395 9.66741-.86375.899818-1.365788.859482-2.855007-.229364-1.275231-.932391-1.561174-1.396213-1.394885-2.262608.149834-.780644.01978-.543388 6.096765-11.122291 3.011727-5.242855 5.507937-9.698625 5.547132-9.90171.06098-.31595-.196572-.510905-1.784459-1.350744-1.833623-.96981-1.858729-.977254-2.107823-.625022-.442438.625627-1.076735.443555-2.314709-.664428-1.698831-1.520448-1.757699-1.275786 1.987375-8.259807 1.698047-3.166613 3.274703-5.950827 3.50368-6.187141l.416322-.429663 7.438682-.04987 7.438685-.04987-.253918-.809459c-.591495-1.88561.0095-4.19663 1.448371-5.56931 2.441532-2.329241 6.363975-1.555682 7.902456 1.558473.579908 1.173833.635892 3.055549.130563 4.388425-.761049 2.007369-2.533852 3.225841-4.693405 3.225841-1.137164 0-1.193753.01883-1.116514.371533.04475.204342.327755 4.66386.628899 9.91004.412151 7.179997.502564 9.707373.365658 10.221446-.100033.375618-.156083.723641-.124557.77339 1.574006.888629 3.190563 1.801476 4.904757 2.314767 1.336222-1.877455 3.797333-4.729212 4.275226-4.953819 3.317966-.462086 6.852918-.488971 10.159859.0229 5.657377 6.560115 11.18443 13.764926 16.197096 20.844601l-41.233706.08249 8.713509-13.734918c-.03569-.02979-2.829765-1.499502-6.209067-3.26604-5.496689-2.873399-6.619512-3.366421-6.605926-2.900604.0022.07386.425783 1.872406.941399 3.99676l1.19002 3.862467.01906 5.627061c.01843 5.443247.0075 5.638485-.334064 5.976806-.375441.371853-1.134271.403831-3.333942.194644zm6.720887-24.807932c-.126001-2.386971-.277007-4.518048-.335569-4.73573-.08264-.307176-.471447.423869-1.73672 3.265436-.896631 2.013671-1.655958 3.711021-1.687386 3.771889-.06085.117854 3.795022 2.174125 3.916821 2.088767.03957-.02773-.03115-2.003394-.157146-4.390362zm-11.15999-6.878865c1.068455-2.384626 1.995368-4.473735 2.059808-4.642468.108626-.284436-.01879-.30322-1.748855-.257798l-1.866016.04899-1.970962 3.682213c-1.084031 2.025217-1.935518 3.717322-1.892195 3.760229.110518.109463 3.282916 1.741151 3.388811 1.743001.04772.000818.960953-1.949543 2.029409-4.334167z" fill="none" filter="url(#l)" opacity=".8" stroke="#000" transform="translate(90 1)"/></svg>