<svg height="96" width="96" xmlns="http://www.w3.org/2000/svg" xmlns:xlink="http://www.w3.org/1999/xlink"><linearGradient id="a"><stop offset="0" stop-color="#ededed"/><stop offset="1" stop-color="#b0b0b0"/></linearGradient><linearGradient id="b"><stop offset="0" stop-color="#b4b4b4"/><stop offset=".20467032" stop-color="#646464"/><stop offset=".49567693" stop-color="#fff"/><stop offset="1" stop-color="#3c3c3c"/></linearGradient><linearGradient id="c"><stop offset="0" stop-color="#818181"/><stop offset=".2" stop-color="#f9f9f9"/><stop offset="1" stop-color="#dcdcdc" stop-opacity="0"/></linearGradient><linearGradient id="d" gradientUnits="userSpaceOnUse" x1="19.035713" x2="87.5" y1="74" y2="27.428572"><stop offset="0" stop-color="#fff"/><stop offset="1" stop-color="#fff" stop-opacity="0"/></linearGradient><linearGradient id="e" gradientUnits="userSpaceOnUse" x1="6" x2="24" xlink:href="#c" y1="73" y2="73"/><linearGradient id="f" gradientTransform="matrix(-1 0 0 1 96 0)" gradientUnits="userSpaceOnUse" x1="6" x2="24" xlink:href="#c" y1="73" y2="73"/><linearGradient id="g" gradientUnits="userSpaceOnUse" x1="38.748035" x2="38.748035" y1="65.59034" y2="5.833157"><stop offset="0" stop-color="#dcdcdc"/><stop offset="1" stop-color="#fafafa"/></linearGradient><radialGradient id="h" cx="90" cy="90" gradientTransform="matrix(0 -1.085034 2 0 -90 187.65306)" gradientUnits="userSpaceOnUse" r="42"><stop offset="0" stop-color="#b4b4b4"/><stop offset="1" stop-color="#dcdcdc"/></radialGradient><clipPath id="i"><path d="m66 6v55c0 1.662 1.338 3 3 3h6c1.662 0 3-1.338 3-3v-55h-4v2h-4v-2z"/></clipPath><filter id="j" color-interpolation-filters="sRGB" height="1.07322" width="1.332308" x="-.166154" y="-.03661"><feGaussianBlur stdDeviation=".9"/></filter><linearGradient id="k" gradientUnits="userSpaceOnUse" x1="68.75" x2="75.25" xlink:href="#b" y1="58" y2="58"/><linearGradient id="l" gradientUnits="userSpaceOnUse" x1="69" x2="73" y1="53" y2="53"><stop offset="0" stop-color="#fff"/><stop offset=".48973215" stop-color="#8c8c8c"/><stop offset=".50044644" stop-color="#cfcfcf"/><stop offset=".62276787" stop-color="#fff"/><stop offset=".81696427" stop-color="#c8c8c8"/><stop offset="1" stop-color="#505050"/></linearGradient><linearGradient id="m" gradientUnits="userSpaceOnUse" x1="63.484772" x2="79" y1="64.163078" y2="65"><stop offset="0" stop-color="#a2a2a2"/><stop offset="1" stop-color="#fff"/></linearGradient><filter id="n" color-interpolation-filters="sRGB" height="1.190707" width="1.323657" x="-.161828" y="-.095354"><feGaussianBlur stdDeviation=".53551312"/></filter><linearGradient id="o" gradientTransform="matrix(-1 0 0 1 144.03125 -2)" gradientUnits="userSpaceOnUse" x1="68.96875" x2="75.0625" xlink:href="#a" y1="17.5" y2="17.5"/><linearGradient id="p" gradientUnits="userSpaceOnUse" x1="68.02903" x2="75.97097" xlink:href="#a" y1="15.763245" y2="15.763245"/><linearGradient id="q" gradientTransform="matrix(1.1262691 0 0 1 -7.401969 -49.5)" gradientUnits="userSpaceOnUse" x1="68.75" x2="72.250572" xlink:href="#b" y1="59" y2="59"/><linearGradient id="r" gradientTransform="matrix(-1 0 0 1 144 -4)" gradientUnits="userSpaceOnUse" x1="69" x2="73" y1="54" y2="54"><stop offset="0" stop-color="#2f2f2f"/><stop offset=".43731192" stop-color="#fff"/><stop offset=".62138397" stop-color="#979797"/><stop offset=".7723214" stop-color="#505050"/><stop offset="1" stop-color="#e6e6e6"/></linearGradient><linearGradient id="s" gradientTransform="matrix(1.0058652 0 0 .994169 100 0)" gradientUnits="userSpaceOnUse" x1="45.447727" x2="45.447727" y1="92.539597" y2="7.01654"><stop offset="0"/><stop offset="1" stop-opacity=".588235"/></linearGradient><linearGradient id="t" gradientTransform="matrix(1.0238095 0 0 1.0119048 -1.142857 -98.071429)" gradientUnits="userSpaceOnUse" x1="32.251034" x2="32.251034" xlink:href="#s" y1="6.131708" y2="90.238609"/><linearGradient id="u" gradientTransform="translate(0 -97)" gradientUnits="userSpaceOnUse" x1="32.251034" x2="32.251034" xlink:href="#s" y1="6.131708" y2="90.238609"/><g><g fill="url(#t)"><path d="m12-95.03125c-5.5110903 0-10.03125 4.52016-10.03125 10.03125v71c0 5.5110902 4.5201598 10.03125 10.03125 10.03125h72c5.51109 0 10.03125-4.5201597 10.03125-10.03125v-71c0-5.51109-4.52016-10.03125-10.03125-10.03125z" opacity=".08" transform="scale(1 -1)"/><path d="m12-94.03125c-4.971633 0-9.03125 4.059617-9.03125 9.03125v71c0 4.9716329 4.0596171 9.03125 9.03125 9.03125h72c4.971633 0 9.03125-4.059617 9.03125-9.03125v-71c0-4.971633-4.059617-9.03125-9.03125-9.03125z" opacity=".1" transform="scale(1 -1)"/><path d="m12-93c-4.4091333 0-8 3.590867-8 8v71c0 4.4091333 3.5908667 8 8 8h72c4.409133 0 8-3.5908667 8-8v-71c0-4.409133-3.590867-8-8-8z" opacity=".2" transform="scale(1 -1)"/><rect height="85" opacity=".3" rx="7" transform="scale(1 -1)" width="86" x="5" y="-92"/></g><rect fill="url(#u)" height="84" opacity=".45" rx="6" transform="scale(1 -1)" width="84" x="6" y="-91"/></g><g><path d="m12 6c-3.324 0-6 2.676-6 6v72c0 3.324 2.676 6 6 6h72c3.324 0 6-2.676 6-6v-72c0-3.324-2.676-6-6-6h-9v3h-6v-3z" fill="url(#h)"/><path d="m6 56v28c0 3.324 2.676 6 6 6h12v-34z" fill="url(#e)"/><path d="m90 56v28c0 3.324-2.676 6-6 6h-12v-34z" fill="url(#f)"/><path d="m6 82v2c0 3.324 2.676 6 6 6h72c3.324 0 6-2.676 6-6v-2c0 3.324-2.676 6-6 6h-72c-3.324 0-6-2.676-6-6z" opacity=".15"/><path d="m6 78v2c0 3.324 2.676 6 6 6h72c3.324 0 6-2.676 6-6v-2c0 3.324-2.676 6-6 6h-72c-3.324 0-6-2.676-6-6z" fill="#fff" opacity=".8"/><path d="m6 76v2c0 3.324 2.676 6 6 6h72c3.324 0 6-2.676 6-6v-2c0 3.324-2.676 6-6 6h-72c-3.324 0-6-2.676-6-6z" opacity=".15"/><path d="m6 72v2c0 3.324 2.676 6 6 6h72c3.324 0 6-2.676 6-6v-2c0 3.324-2.676 6-6 6h-72c-3.324 0-6-2.676-6-6z" fill="#fff" opacity=".8"/><path d="m6 70v2c0 3.324 2.676 6 6 6h72c3.324 0 6-2.676 6-6v-2c0 3.324-2.676 6-6 6h-72c-3.324 0-6-2.676-6-6z" opacity=".15"/><path d="m12 6c-3.324 0-6 2.676-6 6v56c0 3.324 2.676 6 6 6h72c3.324 0 6-2.676 6-6v-56c0-3.324-2.676-6-6-6h-9v3h-6v-3z" fill="url(#g)"/><path d="m12 6c-3.324 0-6 2.676-6 6v56c0 3.324 2.676 6 6 6h72c3.324 0 6-2.676 6-6v-56c0-3.324-2.676-6-6-6h-9v2h9c2.245802 0 4 1.7541975 4 4v56c0 2.245802-1.754198 4-4 4h-72c-2.2458025 0-4-1.754198-4-4v-56c0-2.2458025 1.7541975-4 4-4h57v-2z" fill="url(#d)"/></g><path d="m66 6v55c0 1.662 1.338 3 3 3h6c1.662 0 3-1.338 3-3v-55h-4v2h-4v-2z" fill="#252525"/><path d="m70 8h4v49h-4z" fill="#4d4d4d"/><rect fill="url(#k)" height="4" rx="1" stroke="#000" stroke-linecap="square" stroke-opacity=".563636" stroke-width=".5" width="6" x="69" y="56"/><path d="m66 6v55c0 1.662 1.338 3 3 3h6c1.662 0 3-1.338 3-3v-55h-4v2h-4v-2z" style="fill:none;stroke:#000;stroke-width:2;stroke-linecap:square;clip-path:url(#i);filter:url(#j)"/><path id="v" d="m69.5 51c-.269774 0-.5.217964-.5.5v3c0 .282036.230229.5.5.5h1c.269774 0 .5-.217964.5-.5v-.5h1.5c.277 0 .5-.223.5-.5v-1c0-.277-.223-.5-.5-.5h-1.5v-.5c0-.282036-.230229-.5-.5-.5z" fill="url(#l)" stroke="#000" stroke-linecap="square" stroke-opacity=".563636" stroke-width=".5"/><use id="w" height="96" transform="translate(0 -6)" width="96" xlink:href="#v"/><use id="x" height="96" transform="translate(0 -6)" width="96" xlink:href="#w"/><use id="y" height="96" transform="translate(0 -6)" width="96" xlink:href="#x"/><use id="z" height="96" transform="translate(0 -6)" width="96" xlink:href="#y"/><use id="A" height="96" transform="translate(0 -6)" width="96" xlink:href="#z"/><use id="B" height="96" transform="translate(0 -6)" width="96" xlink:href="#A"/><use height="96" transform="translate(0 -6)" width="96" xlink:href="#B"/><path id="C" d="m74.5 48c.269774 0 .5.217964.5.5v3c0 .282036-.230229.5-.5.5h-1c-.269774 0-.5-.217964-.5-.5v-.5h-1.5c-.277 0-.5-.223-.5-.5v-1c0-.277.223-.5.5-.5h1.5v-.5c0-.282036.230229-.5.5-.5z" fill="url(#r)" stroke="#000" stroke-linecap="square" stroke-opacity=".563636" stroke-width=".5"/><use id="D" height="96" transform="translate(0 -6)" width="96" xlink:href="#C"/><use id="E" height="96" transform="translate(0 -6)" width="96" xlink:href="#D"/><use id="F" height="96" transform="translate(0 -6)" width="96" xlink:href="#E"/><use id="G" height="96" transform="translate(0 -6)" width="96" xlink:href="#F"/><use id="H" height="96" transform="translate(0 -6)" width="96" xlink:href="#G"/><use height="96" transform="translate(0 -6)" width="96" xlink:href="#H"/><path d="m65 6v55c0 2.202295 1.797705 4 4 4h6c2.202295 0 4-1.797705 4-4v-55h-1v55c0 1.662-1.338 3-3 3h-6c-1.662 0-3-1.338-3-3v-55z" fill="url(#m)"/><path d="m69.5 10.53125c-1.027701 0-1.96875.765203-1.96875 1.8125v10.8125c-.000005 1.047305.918081 1.84375 1.96875 1.84375h5c1.050668 0 1.96875-.796448 1.96875-1.84375v-10.8125c-.000003-1.047297-.941051-1.8125-1.96875-1.8125zm1.0625 9.0625h2.875v1.75h-2.875z" filter="url(#n)" stroke="#000" stroke-linecap="square" stroke-opacity=".563636" stroke-width=".5" transform="translate(0 -2)"/><path d="m69.229249 9.021415c-.687139 0-1.229249.48237-1.229249 1.081548l-.0051 10.815488c.000022.599179.542134 1.081549 1.229271 1.081549h5.583221c.687139 0 1.229249-.48237 1.229249-1.081549l.0051-10.815488c0-.599178-.542112-1.081548-1.229249-1.081548h-5.583221zm.704303 7.949648h4.101324v3.118378h-4.101324z" fill="url(#p)"/><path d="m74.5625 9.96875c.277 0 .5.223.5.5v10.0625c0 .277-.223.5-.5.5h-5.09375c-.277 0-.499999-.223-.5-.5v-10.0625c0-.277.223001-.5.5-.5zm-.4375 6.96875h-4.125v3.125h4.125z" fill="url(#o)"/><rect fill="url(#q)" height="5" rx=".563135" ry=".5" stroke="#000" stroke-linecap="square" stroke-opacity=".563636" width="3.378807" x="70.3106" y="7.5"/><path d="m69.984634 16h4v1h-4z" opacity=".3"/><path d="m46.95878 27.205129c.03764 1.01023-.29479 1.501129-.595434 2.369191l-.540657.268865c-.441976.858863.0439.545256-.272629 1.228083-.69077.613413-2.093218 1.918852-2.542302 2.03844-.328242-.0071.222033-.387199.293954-.535639-.923675.633903-.741365.951691-2.154267 1.337635l-.04098-.09241c-3.483122 1.639117-8.321857-1.608591-8.258301-6.039221-.0368.280991-.10579.210744-.182728.323642-.1798-2.27929 1.052882-4.568617 3.131882-5.504836 2.033423-1.006049 4.417249-.593761 5.872801.764781-.799486-1.047863-2.392188-2.158866-4.278427-2.056003-1.848603.03011-3.578457 1.204667-4.155493 2.480417-.946672.595852-1.057062 2.298107-1.46935 2.610041-.555709 4.081064 1.044101 5.843531 3.750732 7.917933.424833.286845.119589.330749.176456.54902-.899005-.420651-1.721908-1.056226-2.399298-1.834388.359603.525604.747221 1.036573 1.248573 1.43799-.84841-.286428-1.981157-2.054331-2.311071-2.126251 1.461407 2.61673 5.928414 4.589105 8.268754 3.610236-1.082988.04014-2.458254.02216-3.674212-.427342-.512223-.263011-1.205921-.807014-1.081732-.908622 3.192931 1.192122 6.490397.902351 9.25264-1.31171.703316-.547766 1.471024-1.478968 1.693056-1.491512-.334095.502606.05729.241686-.199453.685335.699134-1.129401-.304826-.459957.723385-1.950214l.379674.522678c-.142168-.93831 1.164524-2.076493 1.031555-3.559224.299808-.453266.334096.48839.01631 1.531236.44114-1.156999.116661-1.343072.229559-2.298108.12168.321133.283501.661919.365874 1.001032-.287681-1.118529.293954-1.882893.438632-2.533103-.143006-.06273-.443649.494244-.513061-.826249.01045-.57369.160148-.300644.217434-.441975-.112063-.06481-.407689-.504697-.58707-1.348089.129204-.198618.347892.513897.525185.542748-.114153-.670281-.310261-1.181669-.318624-1.696401-.518496-1.082988-.183565.144677-.603379-.464974-.551947-1.720235.457447-.399325.526022-1.180414.835449 1.21052 1.311712 3.087977 1.531237 3.865302-.167257-.947927-.436959-1.866584-.766874-2.755135.254649.107462-.40936-1.949796.330752-.587489-.78987-2.903995-3.377749-5.617735-5.759068-6.890559.290608.266357.658155.60087.526859.653555-1.185014-.704568-.976779-.760181-1.146545-1.057898-.963817-.392635-1.02821.03219-1.665877.000836-1.818916-.965071-2.16932-.862626-3.84314-1.466423l.0761.356257c-1.204666-.401416-1.403702.151367-2.705377.000837-.07903-.06147.417305-.224125.826248-.283083-1.164943.153876-1.110585-.229978-2.250438.04223.280572-.196945.578289-.327823.877679-.49508-.949601.05771-2.268001.552784-1.86115.102027-1.549215.691607-4.301006 1.662113-5.845202 3.110138l-.0485-.324478c-.707497.849247-3.085468 2.536449-3.274887 3.637415l-.189419.0439c-.367546.623449-.606306 1.329691-.898169 1.970702-.481281.820813-.705822.316115-.637247.444903-.947091 1.920107-1.418336 3.533298-1.824354 4.857135.289355.432776.0071 2.60586.116244 4.344911-.475008 8.590304 6.028768 16.930139 13.138015 18.855269 1.042009.3734 2.591225.36002 3.909208.39681-1.554651-.4449-1.755359-.23541-3.270706-.76353-1.092604-.51515-1.331781-1.10264-2.106179-1.77459l.306497.54149c-1.517854-.53731-.882697-.66484-2.117887-1.0558l.327405-.426924c-.492154-.03763-1.303348-.828757-1.524964-1.268223l-.538567.02133c-.646447-.796978-.991412-1.372759-.965906-1.818916l-.173947.310261c-.196945-.338277-2.379645-2.993058-1.247318-2.375045-.210325-.19151-.490062-.312352-.793214-.863881l.230395-.263011c-.544002-.701224-1.002703-1.599811-.967579-1.899201.290608.392218.492152.46581.692024.533131-1.376104-3.413709-1.453461-.187745-2.495052-3.474758l.219943-.01757c-.168512-.255485-.271793-.53104-.407271-.802414l.09617-.955454c-.99016-1.144036-.276809-4.869261-.133387-6.911884.09826-.830429.826666-1.714799 1.379868-3.101775l-.337023-.05771c.644775-1.123965 3.680485-4.515513 5.087113-4.341567.681153-.855518-.135477-.0034-.268865-.218269 1.496529-1.54838 1.96694-1.093859 2.976752-1.372759 1.088423-.64603-.934547.252557-.41856-.246286 1.882892-.480445 1.333873-1.093023 3.78962-1.336799.259247.147185-.600871.227468-.816632.41856 1.568031-.767708 4.962924-.592508 7.16904.425668 2.557774 1.196304 5.433335 4.730855 5.547069 8.056337l.129206.03471c-.06523 1.322163.20238 2.851308-.262176 4.255428l.314026-.665263" fill="#d70751"/><g transform="matrix(.41814178 0 0 .41814178 12.67659 6.913489)"><path d="m13.437 125.506c-.045.047-.045 7.506-.138 9.453-.092 1.574-.232 4.957-3.568 4.957-3.429 0-4.263-3.939-4.541-5.652-.324-1.9-.324-3.477-.324-4.17 0-2.225.139-8.436 5.375-8.436 1.576 0 2.456.465 3.151.834zm-13.437 5.469c0 13.066 6.951 13.066 7.97 13.066 2.873 0 4.727-1.576 5.514-4.309l.093 4.123c.881-.047 1.761-.139 3.197-.139.51 0 .926 0 1.298.047.371 0 .741.045 1.158.092-.741-1.482-1.297-4.818-1.297-12.049 0-7.043 0-18.951.602-22.566-1.667.789-3.105 1.299-6.256 1.576 1.251 1.344 1.251 2.039 1.251 8.154-.879-.277-1.992-.602-3.892-.602-8.294.001-9.638 7.23-9.638 12.607"/><path d="m25.13 128.609c.047-3.846.835-7.275 4.124-7.275 3.615 0 3.891 3.984 3.799 7.275zm12.51.465c0-5.422-1.065-10.752-7.923-10.752-9.452 0-9.452 10.475-9.452 12.697 0 9.406 4.216 13.113 11.306 13.113 3.149 0 4.68-.461 5.514-.695-.046-1.668.185-2.734.465-4.17-.975.604-2.226 1.391-5.006 1.391-7.229 0-7.322-6.582-7.322-8.852h12.328z"/><path d="m52.715 131.066c0 4.309-.787 10.102-6.162 10.102-.742 0-1.668-.141-2.27-.279-.093-1.668-.093-4.541-.093-7.877 0-3.986.416-6.068.742-7.09.972-3.289 3.15-3.334 3.566-3.334 3.522 0 4.217 4.865 4.217 8.478zm-13.298 5.051c0 3.43 0 5.375-.556 6.857 1.9.742 4.262 1.158 7.09 1.158 1.807 0 7.043 0 9.869-5.791 1.344-2.688 1.807-6.303 1.807-9.037 0-1.668-.186-5.328-1.529-7.646-1.296-2.176-3.382-3.289-5.605-3.289-4.449 0-5.746 3.707-6.44 5.607 0-2.363.045-10.611.415-14.828-3.011 1.391-4.866 1.621-6.857 1.807 1.807.74 1.807 3.801 1.807 13.764v11.398"/><path d="m66.535 143.855c-.928-.139-1.578-.232-2.922-.232-1.48 0-2.502.094-3.566.232.463-.881.648-1.299.787-4.309.186-4.125.232-15.154-.092-17.471-.232-1.762-.648-2.039-1.297-2.502 3.799-.371 4.865-.648 6.625-1.482-.369 2.037-.418 3.059-.418 6.162-.091 15.989-.138 17.702.883 19.602"/><path d="m81.373 130.74c-.092 2.92-.139 4.959-.928 6.58-.973 2.086-2.594 2.688-3.799 2.688-2.783 0-3.383-2.316-3.383-4.586 0-4.355 3.893-4.682 5.652-4.682zm-12.744 5.701c0 2.92.881 5.838 3.477 7.09 1.158.51 2.316.51 2.688.51 4.264 0 5.699-3.152 6.58-5.098-.047 2.039 0 3.289.139 4.912.834-.047 1.668-.139 3.059-.139.787 0 1.529.092 2.316.139-.51-.787-.787-1.252-.928-3.059-.092-1.76-.092-3.521-.092-5.977l.047-9.453c0-3.523-.928-6.998-7.879-6.998-4.586 0-7.273 1.391-8.617 2.086.557 1.02 1.02 1.898 1.436 3.893 1.809-1.576 4.172-2.41 6.58-2.41 3.848 0 3.848 2.549 3.848 6.162-.881-.045-1.623-.137-2.875-.137-5.887.001-9.779 2.268-9.779 8.479"/><path d="m108.063 139.268c.047 1.576.047 3.244.695 4.588-1.021-.092-1.623-.232-3.521-.232-1.113 0-1.715.094-2.596.232.184-.602.279-.834.371-1.623.139-1.064.232-4.633.232-5.885v-5.004c0-2.178 0-5.33-.141-6.441-.092-.787-.322-2.918-3.012-2.918-2.641 0-3.521 1.945-3.846 3.521-.369 1.621-.369 3.383-.369 10.24.045 5.932.045 6.486.508 8.109-.787-.092-1.76-.184-3.15-.184-1.113 0-1.854.045-2.779.184.324-.742.51-1.113.602-3.707.094-2.549.279-15.061-.141-18.025-.23-1.809-.695-2.225-1.203-2.688 3.754-.186 4.957-.789 6.117-1.389v4.91c.555-1.438 1.713-4.635 6.348-4.635 5.793 0 5.838 4.217 5.885 6.996z"/><path d="m66.926 111.533-3.838 3.836-3.836-3.836 3.836-3.836z" fill="#d70751"/></g></svg>