<svg height="96" width="96" xmlns="http://www.w3.org/2000/svg" xmlns:xlink="http://www.w3.org/1999/xlink"><linearGradient id="a" gradientTransform="matrix(1.0058652 0 0 .994169 100 0)" gradientUnits="userSpaceOnUse" x1="45.447727" x2="45.447727" y1="92.539597" y2="7.01654"><stop offset="0"/><stop offset="1" stop-opacity=".588235"/></linearGradient><linearGradient id="b" gradientTransform="matrix(1.0238095 0 0 1.0119048 -1.142857 -98.071429)" gradientUnits="userSpaceOnUse" x1="32.251034" x2="32.251034" xlink:href="#a" y1="6.131708" y2="90.238609"/><linearGradient id="c" gradientTransform="translate(0 -97)" gradientUnits="userSpaceOnUse" x1="32.251034" x2="32.251034" xlink:href="#a" y1="6.131708" y2="90.238609"/><linearGradient id="d"><stop offset="0" stop-color="#fefefe"/><stop offset="1" stop-color="#fefefe" stop-opacity="0"/></linearGradient><radialGradient id="e" cx="48" cy="90.171875" gradientTransform="matrix(1.1573129 0 0 .99590774 -7.551021 .197132)" gradientUnits="userSpaceOnUse" r="42" xlink:href="#d"/><linearGradient id="f" gradientUnits="userSpaceOnUse" x1="36.357143" x2="36.357143" xlink:href="#d" y1="6" y2="63.893143"/><linearGradient id="g" gradientUnits="userSpaceOnUse" x1="48" x2="48" y1="90" y2="5.987717"><stop offset="0" stop-color="#c8c8c8"/><stop offset="1" stop-color="#f5f5f5"/></linearGradient><g><g fill="url(#b)"><path d="m12-95.03125c-5.5110903 0-10.03125 4.52016-10.03125 10.03125v71c0 5.5110902 4.5201598 10.03125 10.03125 10.03125h72c5.51109 0 10.03125-4.5201597 10.03125-10.03125v-71c0-5.51109-4.52016-10.03125-10.03125-10.03125z" opacity=".08" transform="scale(1 -1)"/><path d="m12-94.03125c-4.971633 0-9.03125 4.059617-9.03125 9.03125v71c0 4.9716329 4.0596171 9.03125 9.03125 9.03125h72c4.971633 0 9.03125-4.059617 9.03125-9.03125v-71c0-4.971633-4.059617-9.03125-9.03125-9.03125z" opacity=".1" transform="scale(1 -1)"/><path d="m12-93c-4.4091333 0-8 3.590867-8 8v71c0 4.4091333 3.5908667 8 8 8h72c4.409133 0 8-3.5908667 8-8v-71c0-4.409133-3.590867-8-8-8z" opacity=".2" transform="scale(1 -1)"/><rect height="85" opacity=".3" rx="7" transform="scale(1 -1)" width="86" x="5" y="-92"/></g><rect fill="url(#c)" height="84" opacity=".45" rx="6" transform="scale(1 -1)" width="84" x="6" y="-91"/></g><rect fill="url(#g)" height="84" rx="6" width="84" x="6" y="6"/><path d="m12 6c-3.324 0-6 2.676-6 6v2 68 2c0 .334721.04135.6507.09375.96875.0487.295596.09704.596915.1875.875.0099.03038.02089.0636.03125.09375.09886.287771.23488.547452.375.8125.144592.273507.315616.535615.5.78125s.373776.473472.59375.6875c.439947.428056.94291.814526 1.5 1.09375.278545.139612.573473.246947.875.34375-.256202-.100222-.486711-.236272-.71875-.375-.0074-.0044-.02387.0045-.03125 0-.03193-.0193-.06229-.04251-.09375-.0625-.120395-.0767-.231023-.163513-.34375-.25-.106173-.0808-.213281-.161112-.3125-.25-.17793-.161433-.34746-.345388-.5-.53125-.107579-.130255-.218394-.265285-.3125-.40625-.02509-.03838-.03845-.08587-.0625-.125-.06476-.103032-.130228-.204517-.1875-.3125-.101008-.194706-.205675-.415701-.28125-.625-.008-.02181-.02359-.04055-.03125-.0625-.03183-.09195-.0358-.186831-.0625-.28125-.030332-.106618-.070389-.203031-.09375-.3125-.072879-.341512-.125-.698205-.125-1.0625v-2-68-2c0-2.781848 2.218152-5 5-5h2 68 2c2.781848 0 5 2.218152 5 5v2 68 2c0 .364295-.05212.720988-.125 1.0625-.04415.206893-.08838.397658-.15625.59375-.0077.02195-.0233.04069-.03125.0625-.06274.173739-.138383.367449-.21875.53125-.04158.0828-.07904.169954-.125.25-.0546.09721-.126774.18835-.1875.28125-.09411.140965-.204921.275995-.3125.40625-.143174.17445-.303141.346998-.46875.5-.01117.0102-.01998.02115-.03125.03125-.138386.125556-.285091.234436-.4375.34375-.102571.07315-.204318.153364-.3125.21875-.0074.0045-.02384-.0044-.03125 0-.232039.138728-.462548.274778-.71875.375.301527-.0968.596455-.204138.875-.34375.55709-.279224 1.060053-.665694 1.5-1.09375.219973-.214028.409366-.441865.59375-.6875s.355408-.507743.5-.78125c.14012-.265048.276135-.524729.375-.8125.01041-.03078.02133-.06274.03125-.09375.09046-.278085.1388-.579404.1875-.875.0524-.31805.09375-.634029.09375-.96875v-2-68-2c0-3.324-2.676-6-6-6z" fill="url(#f)" opacity=".5"/><path d="m12 90c-3.324 0-6-2.676-6-6v-2-68-2c0-.334721.04135-.6507.09375-.96875.0487-.295596.09704-.596915.1875-.875.00988-.03038.020892-.0636.03125-.09375.098865-.287771.2348802-.547452.375-.8125.1445918-.273507.3156161-.535615.5-.78125s.3737765-.473472.59375-.6875c.439947-.428056.94291-.814526 1.5-1.09375.278545-.139612.5734731-.246947.875-.34375-.2562018.100222-.4867109.236272-.71875.375-.00741.0044-.023866-.0045-.03125 0-.031933.0193-.062293.04251-.09375.0625-.120395.0767-.2310226.163513-.34375.25-.1061728.0808-.2132809.161112-.3125.25-.1779299.161433-.3474596.345388-.5.53125-.1075789.130255-.2183939.265285-.3125.40625-.025089.03838-.038446.08587-.0625.125-.064763.103032-.1302275.204517-.1875.3125-.1010083.194706-.2056748.415701-.28125.625-.00796.02181-.023589.04055-.03125.0625-.0318251.09195-.0358045.186831-.0625.28125-.0303323.106618-.0703894.203031-.09375.3125-.0728786.341512-.125.698205-.125 1.0625v2 68 2c0 2.781848 2.2181517 5 5 5h2 68 2c2.781848 0 5-2.218152 5-5v-2-68-2c0-.364295-.05212-.720988-.125-1.0625-.04415-.206893-.08838-.397658-.15625-.59375-.0077-.02195-.0233-.04069-.03125-.0625-.06274-.173739-.138383-.367449-.21875-.53125-.04158-.0828-.07904-.169954-.125-.25-.0546-.09721-.126774-.18835-.1875-.28125-.09411-.140965-.204921-.275995-.3125-.40625-.143174-.17445-.303141-.346998-.46875-.5-.01117-.0102-.01998-.02115-.03125-.03125-.138386-.125556-.285091-.234436-.4375-.34375-.102571-.07315-.204318-.153364-.3125-.21875-.0074-.0045-.02384.0044-.03125 0-.232039-.138728-.462548-.274778-.71875-.375.301527.0968.596455.204138.875.34375.55709.279224 1.060053.665694 1.5 1.09375.219973.214028.409366.441865.59375.6875s.355408.507743.5.78125c.14012.265048.276135.524729.375.8125.01041.03078.02133.06274.03125.09375.09046.278085.1388.579404.1875.875.0524.31805.09375.634029.09375.96875v2 68 2c0 3.324-2.676 6-6 6z" fill="url(#e)" opacity=".4"/><g transform="translate(252.58088 -8.928173)"><path d="m-179.87003 88.635376c0 4.83299-10.86154 8.750902-24.25993 8.750902s-24.25993-3.917912-24.25993-8.750902 10.86154-8.750902 24.25993-8.750902 24.25993 3.917912 24.25993 8.750902z" fill="#5dafe4" transform="matrix(1 0 0 1.009901 .34657 -3.563499)"/><path d="m-182.46931 48.346569c0 6.316383-10.08571 11.436823-22.52707 11.436823s-22.52708-5.12044-22.52708-11.436823 10.08572-11.436823 22.52708-11.436823 22.52707 5.12044 22.52707 11.436823z" fill="#f1c4a9" stroke="#000" stroke-linecap="round" stroke-width=".490791" transform="matrix(1 0 0 1.0378788 0 -2.264523)"/><g fill="none" stroke="#000" stroke-width=".5" transform="matrix(-1 0 0 1 -409.46175 0)"><path d="m-225.54143 49.282842c-5.26963-.04548-10.54596-.08102-16.63307 1.087036"/><path d="m-225.63309 50.817477c-5.24924.460547-10.50417.93163-16.44811 2.678461"/></g><path d="m-216.21875 83.21875c-.4599.01628-.78125.120417-.78125.29845 0 .16242.52731.767554 1.15625 1.343025.62894.575474 1.29329 1.617253 1.5 2.327908.39196 1.347469.47416 4.781875.21875 6.267447 1.05041.172859 2.12338.298199 3.25.41783-.0127-.623991-.0312-1.158124-.0312-1.939924 0-6.243893-.34944-7.34921-2.5-8.207371-.87874-.350653-2.046-.5345-2.8125-.507365zm23.34375 0c-1.54557 0-3.04435.680116-4.125 1.820544-.67643.713834-.75464 1.271458-.6875 5.939152.0165 1.143888-.00017 2.110017-.0312 2.984499 1.0695-.09602 2.118-.184656 3.125-.328295.006-.164539.0257-.246388.0312-.41783.22455-6.89261.41507-7.704407 2.125-8.774425 1.30762-.818264 1.1447-1.223645-.4375-1.223645zm-17.40625 1.880234c-.14443.01752-.259.06829-.34375.149225-.12096.115528.19333.976658.6875 1.910079.77712 1.467877.90739 2.234175.96875 6.894192 1.11082.084 2.27563.150002 3.4375.17907.0545-4.724188-.0398-5.617856-.65625-6.625587-.80241-1.312022-3.08271-2.629563-4.09375-2.506979zm11.71875 0c-.32151-.05831-.86125.09459-1.59375.47752-2.6247 1.372147-2.89346 1.928338-3.09375 8.684891 1.21612-.0093 2.39681-.05009 3.5625-.11938.011-5.15546.11047-5.837779.875-7.073262.73178-1.182596.78585-1.872582.25-1.969769z" fill="#5098d8" stroke="#5098d8"/><path d="m-210.6237 84.220092c-.12096-.120966.18439-1.0196.67856-1.996964.82591-1.633471.90383-2.284044.96445-8.053202.0836-7.958432.0815-7.987858-.58554-7.987858-1.06947 0-1.3447 1.477944-1.3447 7.220993 0 6.537837-.33491 7.69594-2.48547 8.594501-1.40599.587458-3.60051.728489-3.60051.231386 0-.170066.51459-.802217 1.14353-1.404779.62894-.602566 1.31266-1.704392 1.51937-2.448503.46747-1.68273.48647-6.491717.0285-7.215154-.24795-.391687-1.24984-.546065-3.70282-.570561-4.75151-.04744-6.2225-.940936-8.49244-5.158388-.91338-1.697016-2.31529-3.676875-3.11535-4.399681-1.412-1.275661-2.09051-2.317418-.82566-1.267677.34595.28711.94504.468477 1.33131.403037.38626-.06544.7023.06872.7023.298126 0 .229404.51351.919068 1.14113 1.532584.62761.613517 1.14112 1.35969 1.14112 1.658169 0 .298476.25675.641209.57056.761631.31381.120419.57056.481067.57056.801445 0 .328913.33118.582497.76075.582497.44865 0 .76075.253584.76075.618108 0 .48392.24773.568561 1.14112.389884.83811-.167624 1.14112-.0852 1.14112.310377 0 .79421.7139 1.095912 1.34797.569675.43544-.361386.68473-.351119 1.16563.04799.51922.430915.68997.400668 1.12923-.200054.43141-.589994.61594-.626046 1.10915-.216718.77459.642848.82535.586994 2.80334-3.084271.49432-.917493 1.24013-2.041062 1.65735-2.496822.41722-.455757.68866-1.038414.6032-1.294794-.0855-.256376-1.68372-.77556-3.55169-1.153743-4.50607-.912278-8.37651-2.84572-10.5614-5.275845-3.00886-3.346577-4.10991-6.821818-4.1226-13.012219-.008-3.957666.71921-6.494195 2.73464-9.536937 1.10582-1.669487 1.13435-1.818522.77515-4.048976-.41658-2.586683.0621-6.742024.87105-7.562072.7458-.756002 3.68015.05252 7.43834 2.049543l3.20916 1.705284 3.68296-.585531c4.41716-.702258 7.68194-.738546 12.20974-.13571l3.37854.449822 2.9444-1.568842c3.35652-1.788429 6.35911-2.6259 7.12769-1.98803.71983.597401 1.33704 4.795424 1.07226 7.293071-.21394 2.018035-.14872 2.265215.97055 3.678408 2.76275 3.488259 3.71669 7.76448 3.09376 13.868461-.48829 4.784691-1.12475 6.756562-2.96887 9.198157-1.86903 2.474558-5.78611 4.520918-10.45009 5.459324-3.97442.799664-4.40009 1.106158-3.28557 2.365669 1.71507 1.938166 1.99629 3.260095 2.21946 10.432967.22455 7.217094.41835 8.052335 2.12828 9.172727 1.30762.856785 1.16956 1.287563-.41264 1.287563-1.54557 0-3.07229-.694179-4.15294-1.888296-.67643-.747439-.73969-1.332587-.67255-6.220023.0773-5.623824-.35521-8.057584-1.4318-8.057584-.48714 0-.57056 1.056596-.57056 7.22711 0 6.861383.0443 7.302122.876 8.709427 1.17085 1.981232.61832 2.625232-1.335 1.556004-2.80788-1.537012-2.94168-1.985671-3.15455-10.577175-.18511-7.471081-.21181-7.679199-.99968-7.791588-1.17461-.167559-1.33495.929623-1.2359 8.45722.077 5.85211.01 6.661676-.64602 7.784514-.91704 1.570043-3.76065 3.160331-4.43866 2.482325zm15.28317-25.667983c3.49424-.56694 5.91006-1.724643 7.59625-3.640261 1.72337-1.957846 2.49374-4.343281 2.50235-7.748488.005-2.010885-.1863-2.799978-1.02523-4.22704-1.33249-2.266615-3.34193-4.014384-5.1446-4.474657-.80483-.205498-6.9259-.332775-13.98374-.290768-14.11327.084-13.80351.02745-16.33196 2.981384-1.92393 2.247681-2.63574 4.869611-2.1466 7.906906.86465 5.368968 4.39513 8.340048 11.27998 9.492673 2.75056.460481 14.41594.460652 17.25355.000251z" fill="#1a1a1a" stroke="#1a1a1a"/><path d="m-133.08303 45.487366c0 3.014637-1.59044 5.458483-3.55235 5.458483-1.9619 0-3.55234-2.443846-3.55234-5.458483 0-3.014638 1.59044-5.458484 3.55234-5.458484 1.96191 0 3.55235 2.443846 3.55235 5.458484z" fill="#fefefe" transform="matrix(1.047619 0 0 1.047619 -72.771532 -.779784)"/><path d="m-133.08303 45.487366c0 3.014637-1.59044 5.458483-3.55235 5.458483-1.9619 0-3.55234-2.443846-3.55234-5.458483 0-3.014638 1.59044-5.458484 3.55234-5.458484 1.96191 0 3.55235 2.443846 3.55235 5.458484z" fill="#a65f55" transform="matrix(.67440955 0 0 .67440955 -123.76514 16.196531)"/><path d="m-133.08303 45.487366c0 3.014637-1.59044 5.458483-3.55235 5.458483-1.9619 0-3.55234-2.443846-3.55234-5.458483 0-3.014638 1.59044-5.458484 3.55234-5.458484 1.96191 0 3.55235 2.443846 3.55235 5.458484z" fill="#fefefe" transform="matrix(1.047619 0 0 1.047619 -50.771528 -.779784)"/><path d="m-203.43682 52.505417c0 .861325-.69824 1.559567-1.55956 1.559567-.86133 0-1.55957-.698242-1.55957-1.559567s.69824-1.559567 1.55957-1.559567c.86132 0 1.55956.698242 1.55956 1.559567z" fill="#a65f55" transform="matrix(.82490859 0 0 .82490859 -35.893106 9.293029)"/><path d="m-208.20216 55.878144 6.41155.519856" fill="none" stroke="#a65f55" stroke-linecap="round"/><path d="m-133.08303 45.487366c0 3.014637-1.59044 5.458483-3.55235 5.458483-1.9619 0-3.55234-2.443846-3.55234-5.458483 0-3.014638 1.59044-5.458484 3.55234-5.458484 1.96191 0 3.55235 2.443846 3.55235 5.458484z" fill="#a65f55" transform="matrix(.67440955 0 0 .67440955 -101.76514 16.196531)"/><path d="m-231.59567 59.350181c-1.09042-1.118368 3.28318-.141401 4.31111.137397 2.00555 1.039911 3.67845 6.57044 6.6925 6.534083 5.23963-.0632 7.36462-1.732852 7.36462-1.732852l-1.38628 6.151625-9.53069-3.812275s-5.78646-5.570502-7.45126-7.277978z" fill="#1a1a1a"/><g fill="#91bfc2"><path d="m-228.39805 59.730782c0 .33836-.41144.612655-.91898.612655s-.91899-.274295-.91899-.612655c0-.338361.41145-.612656.91899-.612656s.91898.274295.91898.612656z" transform="matrix(.90571909 0 0 .81514718 -7.33122 17.63632)"/><path d="m-228.39805 59.730782c0 .33836-.41144.612655-.91898.612655s-.91899-.274295-.91899-.612655c0-.338361.41145-.612656.91899-.612656s.91898.274295.91898.612656z" transform="matrix(.90571909 0 0 .81514718 -9.630846 18.036217)"/><path d="m-228.39805 59.730782c0 .33836-.41144.612655-.91898.612655s-.91899-.274295-.91899-.612655c0-.338361.41145-.612656.91899-.612656s.91898.274295.91898.612656z" transform="matrix(.90571909 0 0 .81514718 -11.930846 18.336217)"/><path d="m-228.39805 59.730782c0 .33836-.41144.612655-.91898.612655s-.91899-.274295-.91899-.612655c0-.338361.41145-.612656.91899-.612656s.91898.274295.91898.612656z" transform="matrix(.90571909 0 0 .81514718 -14.144203 18.109502)"/><path d="m-228.39805 59.730782c0 .33836-.41144.612655-.91898.612655s-.91899-.274295-.91899-.612655c0-.338361.41145-.612656.91899-.612656s.91898.274295.91898.612656z" transform="matrix(.90571909 0 0 .81514718 -15.970918 16.975928)"/><path d="m-228.39805 59.730782c0 .33836-.41144.612655-.91898.612655s-.91899-.274295-.91899-.612655c0-.338361.41145-.612656.91899-.612656s.91898.274295.91898.612656z" transform="matrix(.90571909 0 0 .81514718 -17.191135 15.582426)"/><path d="m-228.39805 59.730782c0 .33836-.41144.612655-.91898.612655s-.91899-.274295-.91899-.612655c0-.338361.41145-.612656.91899-.612656s.91898.274295.91898.612656z" transform="matrix(.90571909 0 0 .81514718 -18.238066 13.842354)"/><path d="m-228.39805 59.730782c0 .33836-.41144.612655-.91898.612655s-.91899-.274295-.91899-.612655c0-.338361.41145-.612656.91899-.612656s.91898.274295.91898.612656z" transform="matrix(.90571909 0 0 .81514718 -19.631568 12.188925)"/><path d="m-228.39805 59.730782c0 .33836-.41144.612655-.91898.612655s-.91899-.274295-.91899-.612655c0-.338361.41145-.612656.91899-.612656s.91898.274295.91898.612656z" transform="matrix(.90571909 0 0 .81514718 -21.364418 11.149214)"/></g><g fill="none" stroke="#000" stroke-width=".5" transform="translate(.29998)"><path d="m-225.54143 49.282842c-5.26963-.04548-10.54596-.08102-16.63307 1.087036"/><path d="m-225.63309 50.817477c-5.24924.460547-10.50417.93163-16.44811 2.678461"/></g></g></svg>