<svg height="96" width="96" xmlns="http://www.w3.org/2000/svg" xmlns:xlink="http://www.w3.org/1999/xlink"><linearGradient id="a"><stop offset="0" stop-color="#fff"/><stop offset="1" stop-color="#fff" stop-opacity="0"/></linearGradient><linearGradient id="b" gradientUnits="userSpaceOnUse" x1="36.357143" x2="36.357143" xlink:href="#a" y1="6" y2="63.893143"/><filter id="c" color-interpolation-filters="sRGB" height="1.384" width="1.384" x="-.192" y="-.192"><feGaussianBlur stdDeviation="5.28"/></filter><linearGradient id="d" gradientUnits="userSpaceOnUse" x1="48" x2="48" xlink:href="#a" y1="20.220806" y2="138.66119"/><radialGradient id="e" cx="48" cy="90.171875" gradientTransform="matrix(1.1573129 0 0 .99590774 -7.551021 .197132)" gradientUnits="userSpaceOnUse" r="42" xlink:href="#a"/><clipPath id="f"><rect height="84" rx="6" width="84" x="6" y="6"/></clipPath><linearGradient id="g" gradientUnits="userSpaceOnUse" x1="48" x2="48" y1="90" y2="5.987717"><stop offset="0" stop-color="#282828"/><stop offset="1" stop-color="#5a5a5a"/></linearGradient><linearGradient id="h"><stop offset="0" stop-color="#eeeeec"/><stop offset="1" stop-color="#eeeeec" stop-opacity="0"/></linearGradient><radialGradient id="i" cx="53.419292" cy="66.597893" gradientTransform="matrix(1.0164118 0 0 1.2415079 -19.337623 -31.113008)" gradientUnits="userSpaceOnUse" r="47.724609" xlink:href="#h"/><radialGradient id="j" cx="53.419292" cy="66.597893" gradientTransform="matrix(1.0220726 0 0 1.2415079 -19.896446 -47.863009)" gradientUnits="userSpaceOnUse" r="47.724609" xlink:href="#h"/><radialGradient id="k" cx="53.419292" cy="66.597893" gradientTransform="matrix(1.4750367 0 0 .847859 -55.736923 -9.894244)" gradientUnits="userSpaceOnUse" r="47.724609" xlink:href="#h"/><radialGradient id="l" cx="53.419292" cy="66.597893" gradientTransform="matrix(1.4750367 0 0 .847859 -77.736923 -9.894244)" gradientUnits="userSpaceOnUse" r="47.724609" xlink:href="#h"/><radialGradient id="m" cx="53.419292" cy="66.597893" gradientTransform="matrix(1.0199392 0 0 .85846172 -19.873341 -11.926904)" gradientUnits="userSpaceOnUse" r="47.724609" xlink:href="#h"/><radialGradient id="n" cx="53.419292" cy="66.597893" gradientTransform="matrix(1.0199392 0 0 .85846172 -19.685841 -9.268213)" gradientUnits="userSpaceOnUse" r="47.724609" xlink:href="#h"/><linearGradient id="o" gradientUnits="userSpaceOnUse"><stop offset="0"/><stop offset=".2" stop-opacity=".354839"/><stop offset=".55254942" stop-opacity="0"/><stop offset="1" stop-opacity="0"/></linearGradient><linearGradient id="p" gradientTransform="matrix(.72413795 0 0 .75 1.655173 4.5)" gradientUnits="userSpaceOnUse" x1="43.476658" x2="43.476658" xlink:href="#o" y1="26" y2="34.001266"/><linearGradient id="q" gradientTransform="matrix(1 0 0 1.25 0 -4.598212)" gradientUnits="userSpaceOnUse" x1="48" x2="48" xlink:href="#o" y1="16" y2="11.924657"/><linearGradient id="r" gradientUnits="userSpaceOnUse" x1="50.464287" x2="50.464287" y1="15.357143" y2="19.651315"><stop offset="0" stop-color="#fff"/><stop offset=".30000001" stop-color="#fff" stop-opacity=".498039"/><stop offset="1" stop-color="#fff" stop-opacity="0"/></linearGradient><linearGradient id="s" gradientTransform="matrix(1 0 0 1.25 0 4.401788)" gradientUnits="userSpaceOnUse" x1="48" x2="48" xlink:href="#o" y1="16" y2="11.924657"/><linearGradient id="t" gradientTransform="matrix(.81330712 0 0 .81132563 3.993543 2.028185)" gradientUnits="userSpaceOnUse" x1="11" x2="16" y1="10.441942" y2="24"><stop offset="0" stop-color="#5d5d5d"/><stop offset="1" stop-color="#171717"/></linearGradient><linearGradient id="u" gradientTransform="matrix(.81330712 0 0 .81132563 3.993543 2.028185)" gradientUnits="userSpaceOnUse" x1="13.125" x2="19.25" y1="9.941942" y2="24.5"><stop offset="0" stop-color="#919191"/><stop offset="1" stop-color="#232323"/></linearGradient><radialGradient id="v" cx="11.3125" cy="14.9375" gradientUnits="userSpaceOnUse" r="1.4375"><stop offset="0" stop-color="#dfdfdf"/><stop offset="1" stop-color="#434343"/></radialGradient><linearGradient id="w"><stop offset="0" stop-color="#87ff2b"/><stop offset="1" stop-color="#87ff2b" stop-opacity="0"/></linearGradient><linearGradient id="x" gradientUnits="userSpaceOnUse" x1="-45.81429299389" x2="-40.95475134546" y1="118.69353469641" y2="54.57607405843"><stop offset="0" stop-color="#3d9119"/><stop offset="1" stop-color="#76e62b"/></linearGradient><radialGradient id="y" cx="40.846539" cy="75.263962" gradientTransform="matrix(.9847961 .02597927 -.01823822 .6913564 1.993706 24.820256)" gradientUnits="userSpaceOnUse" r="14.672466" xlink:href="#w"/><radialGradient id="z" cx="54.75" cy="25.072803" gradientTransform="matrix(1.543369 .28142051 -.32722971 1.7945958 -138.17549 -6.046051)" gradientUnits="userSpaceOnUse" r="13" xlink:href="#w"/><radialGradient id="A" cx="56.496048" cy="31.701607" gradientTransform="matrix(.88267832 0 -.00000002 1.115007 -69.080446 51.097006)" gradientUnits="userSpaceOnUse" r="13" xlink:href="#w"/><clipPath id="B"><path d="m-100 0h96v96h-96z"/></clipPath><linearGradient id="C" gradientTransform="matrix(1.0058652 0 0 .994169 100 0)" gradientUnits="userSpaceOnUse" x1="45.447727" x2="45.447727" y1="92.539597" y2="7.01654"><stop offset="0"/><stop offset="1" stop-opacity=".588235"/></linearGradient><linearGradient id="D" gradientTransform="matrix(1.0238095 0 0 1.0119048 -1.142857 -98.071429)" gradientUnits="userSpaceOnUse" x1="32.251034" x2="32.251034" xlink:href="#C" y1="6.131708" y2="90.238609"/><linearGradient id="E" gradientTransform="translate(0 -97)" gradientUnits="userSpaceOnUse" x1="32.251034" x2="32.251034" xlink:href="#C" y1="6.131708" y2="90.238609"/><g><g fill="url(#D)"><path d="m12-95.03125c-5.5110903 0-10.03125 4.52016-10.03125 10.03125v71c0 5.5110902 4.5201598 10.03125 10.03125 10.03125h72c5.51109 0 10.03125-4.5201597 10.03125-10.03125v-71c0-5.51109-4.52016-10.03125-10.03125-10.03125z" opacity=".08" transform="scale(1 -1)"/><path d="m12-94.03125c-4.971633 0-9.03125 4.059617-9.03125 9.03125v71c0 4.9716329 4.0596171 9.03125 9.03125 9.03125h72c4.971633 0 9.03125-4.059617 9.03125-9.03125v-71c0-4.971633-4.059617-9.03125-9.03125-9.03125z" opacity=".1" transform="scale(1 -1)"/><path d="m12-93c-4.4091333 0-8 3.590867-8 8v71c0 4.4091333 3.5908667 8 8 8h72c4.409133 0 8-3.5908667 8-8v-71c0-4.409133-3.590867-8-8-8z" opacity=".2" transform="scale(1 -1)"/><rect height="85" opacity=".3" rx="7" transform="scale(1 -1)" width="86" x="5" y="-92"/></g><rect fill="url(#E)" height="84" opacity=".45" rx="6" transform="scale(1 -1)" width="84" x="6" y="-91"/></g><rect fill="url(#g)" height="84" rx="6" width="84" x="6" y="6"/><path d="m36.5625 32.0625c-.319303.000003-.56595.04413-.75.125-.182658.07948-.31423.171675-.40625.3125-.09063.139436-.15625.311193-.15625.46875 0 .239827.102775.407731.28125.5625.177079.154772.459488.28158.875.375.253766.05577.43028.12476.5.1875.06972.06275.09375.13927.09375.21875-.000002.08366-.01985.15461-.09375.21875-.07251.06275-.177251.09375-.3125.09375-.181264.000001-.3399-.0634-.4375-.1875-.05996-.07669-.10548-.197344-.125-.34375l-.875.0625c.02649.309543.111716.580466.3125.78125.200783.200784.572269.28125 1.09375.28125.296991 0 .554791-.03995.75-.125.195204-.08645.32874-.209074.4375-.375.108757-.165925.187497-.334648.1875-.53125-.000003-.167318-.04274-.333498-.125-.46875-.08087-.135248-.226384-.25312-.40625-.34375-.178477-.09202-.460885-.16076-.875-.25-.167321-.03485-.26788-.08456-.3125-.125-.04601-.03903-.09375-.0762-.09375-.125 0-.06693.03798-.14148.09375-.1875.05577-.0474.139846-.0625.25-.0625.133854 0 .2372.03101.3125.09375.07669.06275.13254.174464.15625.3125l.875-.0625c-.03904-.317905-.137392-.542487-.34375-.6875-.204969-.146398-.514444-.218747-.90625-.21875zm14.96875 0c-.497778.000003-.877385.127386-1.15625.40625-.278867.278869-.4375.686937-.4375 1.1875 0 .358345.07792.63657.21875.875.140827.238431.336618.421098.5625.53125.227275.110148.497954.15625.84375.15625.340215 0 .616471-.06062.84375-.1875.228667-.128278.411335-.302579.53125-.53125.121301-.230064.187496-.516655.1875-.875-.000004-.493591-.130175-.882958-.40625-1.15625-.27608-.27468-.677177-.406247-1.1875-.40625zm3.375 0c-.319304.000003-.597199.04413-.78125.125-.182658.07948-.31422.171675-.40625.3125-.09063.139436-.125.311193-.125.46875 0 .239827.07153.407731.25.5625.17708.154772.490738.28158.90625.375.253767.05577.39903.12476.46875.1875.06972.06275.124998.13927.125.21875-.000002.08366-.0511.15461-.125.21875-.07251.06275-.177252.09375-.3125.09375-.181265.000001-.30865-.0634-.40625-.1875-.05996-.07669-.10548-.197344-.125-.34375l-.90625.0625c.02649.309543.142966.580466.34375.78125.200783.200784.572269.28125 1.09375.28125.296991 0 .523541-.03995.71875-.125.195204-.08645.359989-.209074.46875-.375.108756-.165925.156247-.334648.15625-.53125-.000003-.167318-.04274-.333498-.125-.46875-.08087-.135248-.195134-.25312-.375-.34375-.178477-.09202-.492135-.16076-.90625-.25-.167321-.03485-.26788-.08456-.3125-.125-.04602-.03903-.0625-.0762-.0625-.125 0-.06693.03798-.14148.09375-.1875.05577-.0474.139847-.0625.25-.0625.133855 0 .2372.03101.3125.09375.07669.06275.10129.174464.125.3125l.90625-.0625c-.03905-.317905-.168642-.542487-.375-.6875-.204969-.146398-.483195-.218747-.875-.21875zm-39.90625.0625v3.0625h.9375v-1.25h1.1875v-.625h-1.1875v-.53125h1.40625v-.65625zm3.3125 0-1.15625 3.0625h.96875l.125-.53125h1.09375l.15625.53125h.96875l-1.125-3.0625zm2.46875 0v3.0625h2.59375v-.71875h-1.65625v-.59375h1.5v-.625h-1.5v-.5h1.59375v-.625zm3.09375 0v3.0625h.90625v-1.6875l1.15625 1.6875h.875v-3.0625h-.875v1.6875l-1.15625-1.6875zm3.5 0v.625h1.53125l-1.6875 1.78125v.65625h2.90625v-.65625h-1.78125l1.71875-1.8125v-.59375zm4.03125 0-1.15625 3.0625h.96875l.125-.53125h1.09375l.15625.53125h.96875l-1.125-3.0625zm6.78125 0v.75h.96875v2.3125h.9375v-2.3125h.96875v-.75zm3.3125 0v1.8125c0 .150589.03519.336044.09375.53125.03625.121307.0899.229415.1875.34375.099.114335.225231.18726.34375.25.118517.06135.261813.10409.4375.125.177079.02091.350804.03125.5.03125.257949 0 .472195-.02543.65625-.09375.132459-.0488.255084-.130087.375-.25.121304-.121306.19422-.277152.25-.4375.05716-.161742.09375-.318736.09375-.5v-1.8125h-.9375v1.84375c-.000002.170109-.06283.31283-.15625.40625-.09203.09203-.211865.125-.375.125-.164533 0-.28158-.03158-.375-.125-.09203-.09481-.156251-.23893-.15625-.40625v-1.84375zm3.59375 0v3.0625h1.40625c.168713 0 .354742-.03798.5625-.09375.15198-.04044.273786-.128693.40625-.25.132459-.1227.2386-.25763.3125-.4375.07529-.181262.124997-.45358.125-.78125 0-.209148-.01231-.406908-.0625-.59375-.0502-.186838-.138456-.35917-.25-.5-.111549-.140825-.266-.2372-.4375-.3125-.170111-.075291-.37878-.093747-.65625-.09375zm3.34375 0v3.0625h.9375v-3.0625zm3.09375.65625c.199387.000003.353018.05365.46875.1875.117126.132464.187498.336376.1875.625-.000002.343007-.07596.58629-.1875.71875-.111549.132463-.26518.21875-.46875.21875-.197997 0-.353022-.0835-.46875-.21875-.114333-.135249-.156251-.346707-.15625-.65625-.000001-.312328.04052-.552247.15625-.6875.115728-.135245.277725-.187497.46875-.1875zm-5.5.03125h.25c.245401.000003.394028.03634.5.15625.105963.119915.187498.362622.1875.6875 0 .245404-.04634.421099-.09375.53125-.04741.108759-.10384.17413-.1875.21875-.08366.04323-.239507.0625-.4375.0625h-.21875zm-27.21875.09375.34375 1.09375h-.6875zm13.09375 0 .34375 1.09375h-.6875zm-8.875 4.96875c-.364643.000002-.649275.05669-.84375.21875-.194472.162065-.3125.417587-.3125.71875 0 .240394.07964.420698.21875.5625.140453.141807.353732.24767.65625.3125l.3125.0625c.183669.04051.31423.07369.375.125.06213.05132.09375.12421.09375.21875-.000002.105341-.06576.19328-.15625.25-.09049.05671-.204836.09375-.375.09375-.167465 0-.350282-.04243-.53125-.09375-.179621-.05267-.369375-.116109-.5625-.21875v.65625c.193125.07158.400625.11979.59375.15625.193123.03647.370724.0625.5625.0625.406505 0 .70907-.08794.90625-.25.19852-.163412.312497-.41642.3125-.75-.000003-.253896-.07695-.424746-.21875-.5625-.141807-.137752-.382472-.24497-.71875-.3125l-.34375-.0625c-.158012-.03241-.25173-.08043-.3125-.125-.05942-.04592-.09375-.10647-.09375-.1875 0-.10804.03586-.19869.125-.25.08913-.05131.219877-.0625.40625-.0625.140453 0 .310736-.0065.46875.03125.158008.03782.302633.11322.46875.1875v-.65625c-.187725-.04997-.355685-.06943-.53125-.09375-.17557-.02566-.333888-.03125-.5-.03125zm2.78125 0c-.364642.000003-.649275.05669-.84375.21875-.194472.162065-.281251.417587-.28125.71875-.000001.240395.07965.420697.21875.5625.140453.141806.353733.24767.65625.3125l.3125.0625c.18367.04051.28298.07368.34375.125.06212.05132.09375.12421.09375.21875-.000001.105342-.03451.19329-.125.25s-.204836.09375-.375.09375c-.167467 0-.350282-.04243-.53125-.09375-.17962-.05267-.369374-.11611-.5625-.21875v.65625c.193126.07158.369375.11979.5625.15625.193123.03647.401974.0625.59375.0625.406505 0 .709071-.08794.90625-.25.19852-.163412.281248-.416421.28125-.75-.000002-.253897-.0457-.424746-.1875-.5625-.141807-.137752-.382472-.24497-.71875-.3125l-.34375-.0625c-.158011-.03241-.25173-.08043-.3125-.125-.05942-.04592-.09375-.10647-.09375-.1875-.000002-.10804.03586-.19869.125-.25.08913-.05131.219876-.0625.40625-.0625.140453 0 .310737-.0066.46875.03125.158009.03782.302634.11322.46875.1875v-.65625c-.187725-.049969-.355685-.06943-.53125-.09375-.175569-.02566-.365137-.031247-.53125-.03125zm6.28125 0c-.349448.05242-.618889.196585-.84375.40625-.299816.279562-.4375.668714-.4375 1.15625 0 .482137.143086.873992.4375 1.15625.294413.280908.683755.40625 1.1875.40625.222834 0 .446916-.01524.65625-.0625.209328-.04727.399272-.12421.59375-.21875v-1.46875h-1.21875v.53125h.46875v.59375c-.05537.0216-.11727.02045-.1875.03125-.06888.0095-.13772.03125-.21875.03125-.298467.000001-.525439-.07578-.6875-.25-.162064-.174215-.250001-.429925-.25-.75-.000001-.322772.08254-.577132.25-.75.168814-.174216.408129-.249998.71875-.25.167463 0 .333884.01524.5.0625.167462.04727.362433.12286.53125.21875v-.625c-.163415-.07428-.346232-.14969-.53125-.1875-.183674-.03781-.392523-.03125-.59375-.03125-.130326.000001-.258517-.01747-.375 0zm-17.09375.03125v3.03125h.75v-2.21875l.6875 1.65625h.5l.6875-1.65625v2.21875h.75v-3.03125h-1l-.6875 1.625-.6875-1.625zm4.125 0v3.03125h2.15625v-.59375h-1.375v-.6875h1.25v-.59375h-1.25v-.5625h1.34375v-.59375zm15.25 0v3.03125h2.15625v-.59375h-1.375v-.6875h1.25v-.59375h-1.25v-.5625h1.3125v-.59375zm-5.84375.03125-1.125 3.03125h.78125l.1875-.5625h1.21875l.1875.5625h.78125l-1.125-3.03125zm.46875.6875.40625 1.21875h-.84375z" fill="url(#n)" opacity=".8"/><path d="m40 39h41v1h-41z" fill="url(#i)" opacity=".8"/><path d="m15 69h66v1h-66z" fill="url(#j)" opacity=".8"/><path d="m59 70v14h-1v-14z" fill="url(#k)" opacity=".8"/><path d="m41.78125 62.875c-.364641.000003-.649276.05669-.84375.21875-.194473.162065-.28125.417586-.28125.71875 0 .240395.07964.420696.21875.5625.140454.141805.353733.24767.65625.3125l.3125.0625c.183669.04051.28298.07368.34375.125.06212.05132.09375.12421.09375.21875-.000002.105341-.03452.19328-.125.25-.09049.05671-.204835.09375-.375.09375-.167466 0-.350281-.04243-.53125-.09375-.17962-.05267-.369376-.11611-.5625-.21875v.65625c.193124.07157.369376.11979.5625.15625.193125.03647.401974.0625.59375.0625.406504 0 .709071-.08794.90625-.25.19852-.163413.281247-.41642.28125-.75-.000003-.253896-.0457-.424745-.1875-.5625-.141808-.137751-.382473-.24497-.71875-.3125l-.34375-.0625c-.158013-.03241-.25173-.08043-.3125-.125-.05942-.045917-.09375-.10647-.09375-.1875 0-.10804.03586-.19868.125-.25.08913-.05131.219875-.0625.40625-.0625.140451 0 .310736-.0066.46875.03125.158008.03782.302634.11322.46875.1875v-.65625c-.187725-.049968-.355683-.06943-.53125-.09375-.175569-.02566-.365137-.031247-.53125-.03125zm3.0625 0c-.338559.05293-.622941.194558-.84375.40625-.294414.28091-.4375.672764-.4375 1.15625 0 .482137.143086.873991.4375 1.15625.294412.280908.683754.40625 1.1875.40625.168813 0 .344688-.02468.5-.0625.155308-.03781.294342-.08197.4375-.15625v-.625c-.144508.09859-.265799.17283-.40625.21875-.140457.04592-.313442.0625-.46875.0625-.278209.000001-.49689-.102981-.65625-.28125-.159363-.178269-.218751-.406778-.21875-.71875-.000001-.313321.05939-.57173.21875-.75.15936-.178264.378041-.249998.65625-.25.155308 0 .328293.01659.46875.0625.140451.04592.261742.12016.40625.21875v-.625c-.143158-.07428-.282192-.14969-.4375-.1875-.155312-.0378-.331187-.03125-.5-.03125-.125937.000001-.230897-.01764-.34375 0zm-18.875.03125v.59375h1v2.4375h.78125v-2.4375h1v-.59375zm3.1875 0v3.03125h2.15625v-.59375h-1.375v-.6875h1.25v-.59375h-1.25v-.5625h1.3125v-.59375zm17.625 0v3.03125h2.15625v-.59375h-1.375v-.6875h1.25v-.59375h-1.25v-.5625h1.3125v-.59375zm2.84375 0v3.03125h.71875v-2.0625l1.125 2.0625h.84375v-3.03125h-.71875v2.09375l-1.09375-2.09375zm3.46875 0v3.03125h2.15625v-.59375h-1.375v-.6875h1.25v-.59375h-1.25v-.5625h1.3125v-.59375zm11.65625 0v.59375h1v2.4375h.78125v-2.4375h1v-.59375zm6.09375 0v3.03125h.78125v-1.1875l1.1875 1.1875h.96875l-1.59375-1.59375 1.4375-1.4375h-.90625l-1.09375 1.125v-1.125zm3.1875 0v3.03125h2.15625v-.59375h-1.375v-.6875h1.25v-.59375h-1.25v-.5625h1.34375v-.59375zm-54.03125.03125v3.03125h.8125c.453773 0 .80436-.06017 1.03125-.125.226885-.06618.431684-.15584.59375-.3125.141802-.136402.24362-.290479.3125-.46875.06887-.179617.09375-.39676.09375-.625-.000002-.225535-.02487-.415479-.09375-.59375-.06888-.178266-.170698-.332345-.3125-.46875-.160716-.156657-.368214-.27892-.59375-.34375-.224187-.06617-.572075-.09375-1.03125-.09375zm4.1875 0-1.09375 3.03125h.78125l.1875-.5625h1.21875l.1875.5625h.78125l-1.125-3.03125zm44.1875 0-1.125 3.03125h.78125l.21875-.5625h1.21875l.1875.5625h.78125l-1.125-3.03125zm-47.59375.59375h.28125c.320071.000002.551284.06209.71875.21875.167457.156663.249997.387686.25.6875-.000003.301167-.08119.52949-.25.6875-.167467.158017-.400029.25-.71875.25h-.28125zm3.875.09375.4375 1.21875h-.84375zm44.1875 0 .40625 1.21875h-.8125z" fill="url(#m)" opacity=".8"/><path d="m37 70v14h-1v-14z" fill="url(#l)" opacity=".8"/><path d="m12 90c-3.324 0-6-2.676-6-6v-2-68-2c0-.334721.04135-.6507.09375-.96875.0487-.295596.09704-.596915.1875-.875.00988-.03038.020892-.0636.03125-.09375.098865-.287771.2348802-.547452.375-.8125.1445918-.273507.3156161-.535615.5-.78125s.3737765-.473472.59375-.6875c.439947-.428056.94291-.814526 1.5-1.09375.278545-.139612.5734731-.246947.875-.34375-.2562018.100222-.4867109.236272-.71875.375-.00741.0044-.023866-.0045-.03125 0-.031933.0193-.062293.04251-.09375.0625-.120395.0767-.2310226.163513-.34375.25-.1061728.0808-.2132809.161112-.3125.25-.1779299.161433-.3474596.345388-.5.53125-.1075789.130255-.2183939.265285-.3125.40625-.025089.03838-.038446.08587-.0625.125-.064763.103032-.1302275.204517-.1875.3125-.1010083.194706-.2056748.415701-.28125.625-.00796.02181-.023589.04055-.03125.0625-.0318251.09195-.0358045.186831-.0625.28125-.0303323.106618-.0703894.203031-.09375.3125-.0728786.341512-.125.698205-.125 1.0625v2 68 2c0 2.781848 2.2181517 5 5 5h2 68 2c2.781848 0 5-2.218152 5-5v-2-68-2c0-.364295-.05212-.720988-.125-1.0625-.04415-.206893-.08838-.397658-.15625-.59375-.0077-.02195-.0233-.04069-.03125-.0625-.06274-.173739-.138383-.367449-.21875-.53125-.04158-.0828-.07904-.169954-.125-.25-.0546-.09721-.126774-.18835-.1875-.28125-.09411-.140965-.204921-.275995-.3125-.40625-.143174-.17445-.303141-.346998-.46875-.5-.01117-.0102-.01998-.02115-.03125-.03125-.138386-.125556-.285091-.234436-.4375-.34375-.102571-.07315-.204318-.153364-.3125-.21875-.0074-.0045-.02384.0044-.03125 0-.232039-.138728-.462548-.274778-.71875-.375.301527.0968.596455.204138.875.34375.55709.279224 1.060053.665694 1.5 1.09375.219973.214028.409366.441865.59375.6875s.355408.507743.5.78125c.14012.265048.276135.524729.375.8125.01041.03078.02133.06274.03125.09375.09046.278085.1388.579404.1875.875.0524.31805.09375.634029.09375.96875v2 68 2c0 3.324-2.676 6-6 6z" fill="url(#e)" opacity=".2"/><rect height="66" rx="12" style="opacity:.1;stroke:#fff;stroke-width:.5;stroke-linecap:round;clip-path:url(#f);fill:url(#d);filter:url(#c)" width="66" x="15" y="15"/><path d="m12 6c-3.324 0-6 2.676-6 6v12h84v-12c0-3.324-2.676-6-6-6z"/><g fill-rule="evenodd"><path d="m6 24h84v6h-84z" fill="url(#p)" opacity=".8"/><path d="m6 15h84v5h-84z" fill="url(#r)" opacity=".3"/><g fill="#f0f0f0" transform="translate(1)"><path d="m28.333333 6-5.333333 9 5.333333 9h10.666667l-5.333333-9 5.333333-9z"/><path d="m50.333333 6-5.333333 9 5.333333 9h10.666667l-5.333333-9 5.333333-9z"/><path d="m72.333333 6-5.333333 9 5.333333 9h10.666667l-5.333333-9 5.333333-9z"/></g><path d="m6 10h84v5h-84z" fill="url(#q)" opacity=".7"/><path d="m6 19h84v5h-84z" fill="url(#s)" opacity=".7"/><path d="m12.005391 10.5c1.109513 0 1.770155.983693 6.03003 4.302704 4.304387 3.353689 5.477493 3.726472 5.477493 5.074645 0 1.348423-1.088205 1.622651-2.439921 1.622651h-8.133072c-1.351716 0-2.439921-1.085554-2.439921-2.433977v-6.490605c0-1.348423.467611-2.075418 1.505391-2.075418z" fill="url(#t)" stroke="url(#u)" stroke-linejoin="round"/><path d="m12.75 14.9375a1.4375 1.4375 0 1 1 -2.875 0 1.4375 1.4375 0 1 1 2.875 0z" fill="url(#v)" transform="matrix(.81330712 0 0 .81132563 3.58689 1.074678)"/><path d="m12.75 14.9375a1.4375 1.4375 0 1 1 -2.875 0 1.4375 1.4375 0 1 1 2.875 0z" fill="url(#v)" transform="matrix(.81330712 0 0 .81132563 3.58689 7.09897)"/><path d="m12.75 14.9375a1.4375 1.4375 0 1 1 -2.875 0 1.4375 1.4375 0 1 1 2.875 0z" fill="url(#v)" transform="matrix(.81330712 0 0 .81132563 11.618297 7.09897)"/></g><path d="m12 6c-3.324 0-6 2.676-6 6v2 68 2c0 .334721.04135.6507.09375.96875.0487.295596.09704.596915.1875.875.00988.03038.020892.0636.03125.09375.098865.287771.2348802.547452.375.8125.1445918.273507.3156161.535615.5.78125s.3737765.473472.59375.6875c.439947.428056.94291.814526 1.5 1.09375.278545.139612.5734731.246947.875.34375-.2562018-.100222-.4867109-.236272-.71875-.375-.00741-.0044-.023866.0045-.03125 0-.031933-.0193-.062293-.04251-.09375-.0625-.120395-.0767-.2310226-.163513-.34375-.25-.1061728-.0808-.2132809-.161112-.3125-.25-.1779299-.161433-.3474596-.345388-.5-.53125-.1075789-.130255-.2183939-.265285-.3125-.40625-.025089-.03838-.038446-.08587-.0625-.125-.064763-.103032-.1302275-.204517-.1875-.3125-.1010083-.194706-.2056748-.415701-.28125-.625-.00796-.02181-.023589-.04055-.03125-.0625-.0318251-.09195-.0358045-.186831-.0625-.28125-.0303323-.106618-.0703894-.203031-.09375-.3125-.0728786-.341512-.125-.698205-.125-1.0625v-2-68-2c0-2.781848 2.2181517-5 5-5h2 68 2c2.781848 0 5 2.218152 5 5v2 68 2c0 .364295-.05212.720988-.125 1.0625-.04415.206893-.08838.397658-.15625.59375-.0077.02195-.0233.04069-.03125.0625-.06274.173739-.138383.367449-.21875.53125-.04158.0828-.07904.169954-.125.25-.0546.09721-.126774.18835-.1875.28125-.09411.140965-.204921.275995-.3125.40625-.143174.17445-.303141.346998-.46875.5-.01117.0102-.01998.02115-.03125.03125-.138386.125556-.285091.234436-.4375.34375-.102571.07315-.204318.153364-.3125.21875-.0074.0045-.02384-.0044-.03125 0-.232039.138728-.462548.274778-.71875.375.301527-.0968.596455-.204138.875-.34375.55709-.279224 1.060053-.665694 1.5-1.09375.219973-.214028.409366-.441865.59375-.6875s.355408-.507743.5-.78125c.14012-.265048.276135-.524729.375-.8125.01041-.03078.02133-.06274.03125-.09375.09046-.278085.1388-.579404.1875-.875.0524-.31805.09375-.634029.09375-.96875v-2-68-2c0-3.324-2.676-6-6-6z" fill="url(#b)" opacity=".3"/><path d="m38.90625 28.90625c-1.233162.08965-2.128617.995255-2.5 1.90625-.349578.857507-.338301 1.743827-.25 2.53125h-.0625v30.375c-6.903989-.613719-14.349628 2.614273-17.5 9.03125-.004.0081.0039.02317 0 .03125-2.374385 4.734334.0051 10.649224 4.75 12.75.01365.006.01756.02527.03125.03125v-.03125c6.934948 3.188484 15.663066 1.316683 20.96875-4.03125.01027-.01035.02101-.02087.03125-.03125.0121-.01076.01927-.02045.03125-.03125 1.82719-1.647533 2.312519-3.825908 3.3125-5.09375a1.0816859 1.0816859 0 0 0 .1875-.375c.573246-2.100056.170271-4.125316.28125-5.75a1.0816859 1.0816859 0 0 0 0-.0625v-17.625l14.8125 1.84375v17.40625c-6.925948-.672557-14.365195 2.625025-17.53125 9.03125-.004.0081.004.02319 0 .03125-2.391709 4.748599.03896 10.676515 4.78125 12.78125.01365.0061.01757.02526.03125.03125v-.03125c6.664168 3.082534 14.897138 1.366406 20.25-3.40625.01724-.01537.04532-.01582.0625-.03125l-.03125-.03125c2.047798-1.620134 2.829642-3.911238 3.875-5.4375a1.0816859 1.0816859 0 0 0 .03125-.0625c.58677-.958525.644213-1.993514.625-2.875-.01921-.881486-.128694-1.657367-.0625-2.25a1.0816859 1.0816859 0 0 0 .03125-.125c-.020842-14.467458.041722-28.933043-.03125-43.40625a1.0816859 1.0816859 0 0 0 -.03125-.1875c-.122919-.687972-.44933-1.282268-.90625-1.6875s-1.004409-.619041-1.5-.75c-.991182-.261919-1.961776-.268404-2.53125-.375a1.0816859 1.0816859 0 0 0 -.0625 0c-10.279641-1.333518-20.571199-2.801006-30.875-4.0625a1.0816859 1.0816859 0 0 0 -.21875-.03125z" opacity=".05"/><path d="m39 30c-1.679787.122119-1.992615 1.999325-1.8125 3.351325v31.429925c-6.786915-1.105158-14.531074 2.135608-17.618677 8.453808-2.102946 4.155868.05148 9.491309 4.254712 11.327563 6.495586 3.001168 14.830233 1.203009 19.803628-3.860271 1.558389-1.366866 2.026111-3.465865 3.247837-5.01485.481365-1.763456.09386-3.688078.21875-5.516406 0-6.286198 0-12.572396 0-18.858594 5.666667.708333 11.333333 1.416667 17 2.125v19.4375c-6.804567-1.17607-14.542242 2.130465-17.647154 8.441694-2.116527 4.164714.07649 9.496688 4.277777 11.336657 6.231706 2.896891 14.118676 1.257688 19.157429-3.269063 1.761149-1.365076 2.467707-3.565152 3.649448-5.290538.843538-1.377972.265329-3.13438.4375-4.675815-.020848-14.471612.041688-28.951481-.03125-43.417935-.345164-1.93187-2.609828-1.676562-4.071999-1.950255-10.288685-1.334691-20.575915-2.789991-30.865501-4.049745z" opacity=".1"/><path d="m-60.96875 32.1875a.81343732.81343732 0 0 0 -.65625.8125v.84375 33.25c-2.388698-.536097-5.029263-.636373-7.84375.125-3.374991.912998-6.234478 2.634696-8.15625 4.8125-1.925419 2.181938-2.930215 4.944319-2.21875 7.625.709547 2.67346 2.93918 4.547726 5.6875 5.46875 2.741661.918793 6.089315.9767 9.46875.0625 5.135724-1.389304 8.953239-4.70348 10.0625-8.625a.81343732.81343732 0 0 0 .53125-.75v-.75-24.0625l19.375 2.40625v21.78125c-2.391944-.542642-5.053265-.669584-7.875.09375-3.379698.914272-6.237209 2.669042-8.15625 4.84375-1.922689 2.178842-2.929758 4.914788-2.21875 7.59375.710813 2.678226 2.966683 4.57772 5.71875 5.5 2.745408.920049 6.064047.943832 9.4375.03125 5.138238-1.389984 8.984874-4.69693 10.09375-8.625a.81343732.81343732 0 0 0 .5-.75v-.75-45.125-.65625a.81343732.81343732 0 0 0 -.6875-.8125l-.65625-.09375a.81343732.81343732 0 0 0 -.03125 0l-31.28125-4.15625-.84375-.09375a.81343732.81343732 0 0 0 -.25 0zm6.875 11.90625 2.8125.40625-2.8125-.34375z" opacity=".15" transform="translate(100 -1)"/><path clip-path="url(#B)" d="m-60.8125 33v.84375 34.1875c-2.478913-.731856-5.37609-.85942-8.4375-.03125-3.237022.875675-5.952991 2.52608-7.75 4.5625s-2.688605 4.515942-2.0625 6.875c.625809 2.357948 2.593729 4.047491 5.15625 4.90625s5.762981.938174 9 .0625c5.178992-1.401009 8.948765-4.81552 9.71875-8.59375h.28125v-.75-25l21 2.625v23.4375c-2.47975-.733086-5.405582-.891146-8.46875-.0625-3.237021.875675-5.95299 2.557331-7.75 4.59375s-2.688605 4.484689-2.0625 6.84375c.62581 2.357948 2.624979 4.078741 5.1875 4.9375s5.731731.906924 8.96875.03125c5.183055-1.402108 8.984336-4.811961 9.75-8.59375h.25v-.75-45.125-.65625l-.65625-.09375-31.28125-4.15625zm5.90625 10.15625 21 2.96875v1.34375l-21-2.59375z" opacity=".31" transform="translate(100 -1)"/><g transform="matrix(.6394564 0 0 .6394564 81.520854 -.302784)"><path d="m-65.015175 50.278074v54.903746c-3.855793-1.50998-8.894464-1.76801-14.09417-.36139-9.717741 2.62883-16.233352 10.00877-14.521267 16.45962 1.712085 6.45086 10.979991 9.56093 20.697733 6.9321 8.256133-2.23343 14.170779-7.8963 14.718388-13.50281h.06571v-40.377001l35.186145 4.369521v39.09572c-3.855791-1.50998-8.894464-1.76801-14.09417-.36139-9.717739 2.62883-16.233352 10.00876-14.521267 16.45962 1.712087 6.45086 10.979991 9.56093 20.697733 6.9321 8.256135-2.23343 14.170779-7.8963 14.718388-13.50281h.06571v-70.542025l-48.918927-6.505001zm6.866391 13.212595 35.186145 4.960885v4.435229l-35.186145-4.369522z" fill="url(#x)" stroke="#34870e" stroke-width="2.345742"/><path d="m56.391766 82.480003a14.672466 9.280777 0 1 1 -29.344933 0 14.672466 9.280777 0 1 1 29.344933 0z" fill="url(#y)" transform="matrix(1.0233043 -.24105639 .24105639 1.0233043 -138.19892 40.809487)"/><path d="m56.391766 82.480003a14.672466 9.280777 0 1 1 -29.344933 0 14.672466 9.280777 0 1 1 29.344933 0z" fill="url(#y)" transform="matrix(1.0233043 -.24105639 .24105639 1.0233043 -96.754882 53.447131)"/><g fill="none"><path d="m-61.35495 88.196416v-33.510614l24.18021 3.942425" stroke="url(#z)" stroke-width="3.127656"/><path d="m-19.212614 107.89627v-42.617148" stroke="url(#A)" stroke-width="4.93222"/></g></g></svg>