<svg height="96" width="96" xmlns="http://www.w3.org/2000/svg" xmlns:xlink="http://www.w3.org/1999/xlink"><linearGradient id="a"><stop offset="0" stop-color="#fefefe"/><stop offset="1" stop-color="#fefefe" stop-opacity="0"/></linearGradient><linearGradient id="b" gradientUnits="userSpaceOnUse" x1="36.357143" x2="36.357143" xlink:href="#a" y1="6" y2="63.893143"/><filter id="c" color-interpolation-filters="sRGB" height="1.384" width="1.384" x="-.192" y="-.192"><feGaussianBlur stdDeviation="5.28"/></filter><linearGradient id="d" gradientUnits="userSpaceOnUse" x1="48" x2="48" xlink:href="#a" y1="20.220806" y2="138.66119"/><radialGradient id="e" cx="48" cy="90.171875" gradientTransform="matrix(1.1573129 0 0 .99590774 -7.551021 .197132)" gradientUnits="userSpaceOnUse" r="42" xlink:href="#a"/><clipPath id="f"><rect height="84" rx="6" width="84" x="6" y="6"/></clipPath><linearGradient id="g" gradientUnits="userSpaceOnUse" x1="48" x2="48" y1="90" y2="5.987717"><stop offset="0" stop-color="#282828"/><stop offset="1" stop-color="#5a5a5a"/></linearGradient><linearGradient id="h"><stop offset="0" stop-color="#eeeeec"/><stop offset="1" stop-color="#eeeeec" stop-opacity="0"/></linearGradient><radialGradient id="i" cx="53.419292" cy="66.597893" gradientTransform="matrix(1.0164118 0 0 1.2415079 -19.337623 -31.113008)" gradientUnits="userSpaceOnUse" r="47.724609" xlink:href="#h"/><radialGradient id="j" cx="53.419292" cy="66.597893" gradientTransform="matrix(1.0220726 0 0 1.2415079 -19.896446 -47.863009)" gradientUnits="userSpaceOnUse" r="47.724609" xlink:href="#h"/><radialGradient id="k" cx="53.419292" cy="66.597893" gradientTransform="matrix(1.4750367 0 0 .847859 -55.736923 -9.894244)" gradientUnits="userSpaceOnUse" r="47.724609" xlink:href="#h"/><radialGradient id="l" cx="53.419292" cy="66.597893" gradientTransform="matrix(1.4750367 0 0 .847859 -77.736923 -9.894244)" gradientUnits="userSpaceOnUse" r="47.724609" xlink:href="#h"/><radialGradient id="m" cx="53.419292" cy="66.597893" gradientTransform="matrix(1.0199392 0 0 .85846172 -19.873341 -11.926904)" gradientUnits="userSpaceOnUse" r="47.724609" xlink:href="#h"/><radialGradient id="n" cx="53.419292" cy="66.597893" gradientTransform="matrix(1.0199392 0 0 .85846172 -19.685841 -9.268213)" gradientUnits="userSpaceOnUse" r="47.724609" xlink:href="#h"/><linearGradient id="o" gradientUnits="userSpaceOnUse"><stop offset="0"/><stop offset=".2" stop-opacity=".354839"/><stop offset=".55254942" stop-opacity="0"/><stop offset="1" stop-opacity="0"/></linearGradient><linearGradient id="p" gradientTransform="matrix(.72413795 0 0 .75 1.655173 4.5)" gradientUnits="userSpaceOnUse" x1="43.476658" x2="43.476658" xlink:href="#o" y1="26" y2="34.001266"/><linearGradient id="q" gradientTransform="matrix(1 0 0 1.25 0 -4.598212)" gradientUnits="userSpaceOnUse" x1="48" x2="48" xlink:href="#o" y1="16" y2="11.924657"/><linearGradient id="r" gradientUnits="userSpaceOnUse" x1="50.464287" x2="50.464287" y1="15.357143" y2="19.651315"><stop offset="0" stop-color="#fefefe"/><stop offset=".30000001" stop-color="#fefefe" stop-opacity=".498039"/><stop offset="1" stop-color="#fefefe" stop-opacity="0"/></linearGradient><linearGradient id="s" gradientTransform="matrix(1 0 0 1.25 0 4.401788)" gradientUnits="userSpaceOnUse" x1="48" x2="48" xlink:href="#o" y1="16" y2="11.924657"/><linearGradient id="t" gradientTransform="matrix(.81330712 0 0 .81132563 3.993543 2.028185)" gradientUnits="userSpaceOnUse" x1="11" x2="16" y1="10.441942" y2="24"><stop offset="0" stop-color="#5d5d5d"/><stop offset="1" stop-color="#171717"/></linearGradient><linearGradient id="u" gradientTransform="matrix(.81330712 0 0 .81132563 3.993543 2.028185)" gradientUnits="userSpaceOnUse" x1="13.125" x2="19.25" y1="9.941942" y2="24.5"><stop offset="0" stop-color="#919191"/><stop offset="1" stop-color="#232323"/></linearGradient><radialGradient id="v" cx="11.3125" cy="14.9375" gradientUnits="userSpaceOnUse" r="1.4375"><stop offset="0" stop-color="#dfdfdf"/><stop offset="1" stop-color="#434343"/></radialGradient><linearGradient id="w" gradientTransform="matrix(1.0058652 0 0 .994169 100 0)" gradientUnits="userSpaceOnUse" x1="45.447727" x2="45.447727" y1="92.539597" y2="7.01654"><stop offset="0"/><stop offset="1" stop-opacity=".588235"/></linearGradient><linearGradient id="x" gradientTransform="matrix(1.0238095 0 0 1.0119048 -1.142857 -98.071429)" gradientUnits="userSpaceOnUse" x1="32.251034" x2="32.251034" xlink:href="#w" y1="6.131708" y2="90.238609"/><linearGradient id="y" gradientTransform="translate(0 -97)" gradientUnits="userSpaceOnUse" x1="32.251034" x2="32.251034" xlink:href="#w" y1="6.131708" y2="90.238609"/><clipPath id="z"><rect height="72.901031" rx="5.207216" width="72.901031" x="12.963713" y="3.861311"/></clipPath><filter id="A" color-interpolation-filters="sRGB"><feGaussianBlur stdDeviation="1.0679101"/></filter><filter id="B" color-interpolation-filters="sRGB" height="1.230692" width="1.07808" x="-.03904" y="-.115346"><feGaussianBlur stdDeviation=".53403609"/></filter><linearGradient id="C"><stop offset="0" stop-color="#7d7d7d"/><stop offset=".25" stop-color="#ddd"/><stop offset=".5" stop-color="#fefefe"/><stop offset=".75" stop-color="#c2c2c2"/><stop offset="1" stop-color="#868686"/></linearGradient><filter id="D" color-interpolation-filters="sRGB"><feGaussianBlur stdDeviation=".45960596"/></filter><linearGradient id="E" gradientUnits="userSpaceOnUse" x1="122.068424" x2="122.244799" y1="77.046476" y2="94.707714"><stop offset="0" stop-color="#cf6714"/><stop offset=".20227151" stop-color="#d3790b"/><stop offset=".51162791" stop-color="#f08300"/><stop offset=".7842077" stop-color="#f3b230"/><stop offset="1" stop-color="#d24118" stop-opacity=".921569"/></linearGradient><linearGradient id="F" gradientUnits="userSpaceOnUse" x1="123" x2="123" y1="92" y2="79"><stop offset="0" stop-color="#ffcd65"/><stop offset="1" stop-color="#ffcd65" stop-opacity="0"/></linearGradient><linearGradient id="G" gradientTransform="matrix(.99860894 0 0 .99948779 100.52731 46.756312)" gradientUnits="userSpaceOnUse" x1="12.348506" x2="34.751446" y1="19.501543" y2="19.932304"><stop offset="0" stop-color="#c74900"/><stop offset=".20227151" stop-color="#e8860e"/><stop offset=".51162791" stop-color="#ffac24"/><stop offset=".75581396" stop-color="#e8860e"/><stop offset="1" stop-color="#7a400e"/></linearGradient><linearGradient id="H" gradientTransform="matrix(.99860894 0 0 .99948779 100.52731 46.756312)" gradientUnits="userSpaceOnUse" x1="14.862838" x2="21.070415" y1="21.635897" y2="22.724205"><stop offset="0" stop-color="#ea690e"/><stop offset="1" stop-color="#ea690e" stop-opacity="0"/></linearGradient><linearGradient id="I" gradientTransform="matrix(.92575001 -.37477137 .37444179 .92656479 97.066519 57.292598)" gradientUnits="userSpaceOnUse" x1="28.228096" x2="22.680347" y1="19.421204" y2="17.831375"><stop offset="0" stop-color="#a54a0a"/><stop offset="1" stop-color="#f78300" stop-opacity="0"/></linearGradient><linearGradient id="J" gradientUnits="userSpaceOnUse" x1="16.368952" x2="30.440506" xlink:href="#C" y1="12.608516" y2="12.608516"/><linearGradient id="K" gradientUnits="userSpaceOnUse" x1="10.877795" x2="37.145557" xlink:href="#C" y1="30.341204" y2="30.341204"/><linearGradient id="L" gradientTransform="matrix(.7824528 0 0 .78314149 85.82458 33.076405)" gradientUnits="userSpaceOnUse" x1="41.295063" x2="36.99176" xlink:href="#a" y1="45.366104" y2="66.958115"/><linearGradient id="M" gradientTransform="matrix(.7824528 0 0 .78314149 85.82458 33.076405)" gradientUnits="userSpaceOnUse" x1="39.522221" x2="36.99176" y1="54.331207" y2="66.958115"><stop offset="0" stop-color="#fefefe" stop-opacity="0"/><stop offset="1" stop-color="#fefefe" stop-opacity="0"/></linearGradient><linearGradient id="N" gradientUnits="userSpaceOnUse" x1="135.12328" x2="111.24557" y1="84.181084" y2="84.336212"><stop offset="0" stop-color="#dd540e"/><stop offset="1" stop-color="#dd540e" stop-opacity="0"/></linearGradient><linearGradient id="O" gradientUnits="userSpaceOnUse" x1="56.821079" x2="75.256371" y1="51.17448" y2="29.961277"><stop offset="0"/><stop offset="1" stop-opacity="0"/></linearGradient><linearGradient id="P" gradientUnits="userSpaceOnUse" x1="53.285545" x2="28.738491" y1="58.876896" y2="35.496246"><stop offset="0" stop-color="#f60"/><stop offset="1" stop-color="#f60" stop-opacity="0"/></linearGradient><g><g fill="url(#x)"><path d="m12-95.03125c-5.5110903 0-10.03125 4.52016-10.03125 10.03125v71c0 5.5110902 4.5201598 10.03125 10.03125 10.03125h72c5.51109 0 10.03125-4.5201597 10.03125-10.03125v-71c0-5.51109-4.52016-10.03125-10.03125-10.03125z" opacity=".08" transform="scale(1 -1)"/><path d="m12-94.03125c-4.971633 0-9.03125 4.059617-9.03125 9.03125v71c0 4.9716329 4.0596171 9.03125 9.03125 9.03125h72c4.971633 0 9.03125-4.059617 9.03125-9.03125v-71c0-4.971633-4.059617-9.03125-9.03125-9.03125z" opacity=".1" transform="scale(1 -1)"/><path d="m12-93c-4.4091333 0-8 3.590867-8 8v71c0 4.4091333 3.5908667 8 8 8h72c4.409133 0 8-3.5908667 8-8v-71c0-4.409133-3.590867-8-8-8z" opacity=".2" transform="scale(1 -1)"/><rect height="85" opacity=".3" rx="7" transform="scale(1 -1)" width="86" x="5" y="-92"/></g><rect fill="url(#y)" height="84" opacity=".45" rx="6" transform="scale(1 -1)" width="84" x="6" y="-91"/></g><g><rect fill="url(#g)" height="84" rx="6" width="84" x="6" y="6"/><path d="m36.5625 32.0625c-.319303.000003-.56595.04413-.75.125-.182658.07948-.31423.171675-.40625.3125-.09063.139436-.15625.311193-.15625.46875 0 .239827.102775.407731.28125.5625.177079.154772.459488.28158.875.375.253766.05577.43028.12476.5.1875.06972.06275.09375.13927.09375.21875-.000002.08366-.01985.15461-.09375.21875-.07251.06275-.177251.09375-.3125.09375-.181264.000001-.3399-.0634-.4375-.1875-.05996-.07669-.10548-.197344-.125-.34375l-.875.0625c.02649.309543.111716.580466.3125.78125.200783.200784.572269.28125 1.09375.28125.296991 0 .554791-.03995.75-.125.195204-.08645.32874-.209074.4375-.375.108757-.165925.187497-.334648.1875-.53125-.000003-.167318-.04274-.333498-.125-.46875-.08087-.135248-.226384-.25312-.40625-.34375-.178477-.09202-.460885-.16076-.875-.25-.167321-.03485-.26788-.08456-.3125-.125-.04601-.03903-.09375-.0762-.09375-.125 0-.06693.03798-.14148.09375-.1875.05577-.0474.139846-.0625.25-.0625.133854 0 .2372.03101.3125.09375.07669.06275.13254.174464.15625.3125l.875-.0625c-.03904-.317905-.137392-.542487-.34375-.6875-.204969-.146398-.514444-.218747-.90625-.21875zm14.96875 0c-.497778.000003-.877385.127386-1.15625.40625-.278867.278869-.4375.686937-.4375 1.1875 0 .358345.07792.63657.21875.875.140827.238431.336618.421098.5625.53125.227275.110148.497954.15625.84375.15625.340215 0 .616471-.06062.84375-.1875.228667-.128278.411335-.302579.53125-.53125.121301-.230064.187496-.516655.1875-.875-.000004-.493591-.130175-.882958-.40625-1.15625-.27608-.27468-.677177-.406247-1.1875-.40625zm3.375 0c-.319304.000003-.597199.04413-.78125.125-.182658.07948-.31422.171675-.40625.3125-.09063.139436-.125.311193-.125.46875 0 .239827.07153.407731.25.5625.17708.154772.490738.28158.90625.375.253767.05577.39903.12476.46875.1875.06972.06275.124998.13927.125.21875-.000002.08366-.0511.15461-.125.21875-.07251.06275-.177252.09375-.3125.09375-.181265.000001-.30865-.0634-.40625-.1875-.05996-.07669-.10548-.197344-.125-.34375l-.90625.0625c.02649.309543.142966.580466.34375.78125.200783.200784.572269.28125 1.09375.28125.296991 0 .523541-.03995.71875-.125.195204-.08645.359989-.209074.46875-.375.108756-.165925.156247-.334648.15625-.53125-.000003-.167318-.04274-.333498-.125-.46875-.08087-.135248-.195134-.25312-.375-.34375-.178477-.09202-.492135-.16076-.90625-.25-.167321-.03485-.26788-.08456-.3125-.125-.04602-.03903-.0625-.0762-.0625-.125 0-.06693.03798-.14148.09375-.1875.05577-.0474.139847-.0625.25-.0625.133855 0 .2372.03101.3125.09375.07669.06275.10129.174464.125.3125l.90625-.0625c-.03905-.317905-.168642-.542487-.375-.6875-.204969-.146398-.483195-.218747-.875-.21875zm-39.90625.0625v3.0625h.9375v-1.25h1.1875v-.625h-1.1875v-.53125h1.40625v-.65625zm3.3125 0-1.15625 3.0625h.96875l.125-.53125h1.09375l.15625.53125h.96875l-1.125-3.0625zm2.46875 0v3.0625h2.59375v-.71875h-1.65625v-.59375h1.5v-.625h-1.5v-.5h1.59375v-.625zm3.09375 0v3.0625h.90625v-1.6875l1.15625 1.6875h.875v-3.0625h-.875v1.6875l-1.15625-1.6875zm3.5 0v.625h1.53125l-1.6875 1.78125v.65625h2.90625v-.65625h-1.78125l1.71875-1.8125v-.59375zm4.03125 0-1.15625 3.0625h.96875l.125-.53125h1.09375l.15625.53125h.96875l-1.125-3.0625zm6.78125 0v.75h.96875v2.3125h.9375v-2.3125h.96875v-.75zm3.3125 0v1.8125c0 .150589.03519.336044.09375.53125.03625.121307.0899.229415.1875.34375.099.114335.225231.18726.34375.25.118517.06135.261813.10409.4375.125.177079.02091.350804.03125.5.03125.257949 0 .472195-.02543.65625-.09375.132459-.0488.255084-.130087.375-.25.121304-.121306.19422-.277152.25-.4375.05716-.161742.09375-.318736.09375-.5v-1.8125h-.9375v1.84375c-.000002.170109-.06283.31283-.15625.40625-.09203.09203-.211865.125-.375.125-.164533 0-.28158-.03158-.375-.125-.09203-.09481-.156251-.23893-.15625-.40625v-1.84375zm3.59375 0v3.0625h1.40625c.168713 0 .354742-.03798.5625-.09375.15198-.04044.273786-.128693.40625-.25.132459-.1227.2386-.25763.3125-.4375.07529-.181262.124997-.45358.125-.78125 0-.209148-.01231-.406908-.0625-.59375-.0502-.186838-.138456-.35917-.25-.5-.111549-.140825-.266-.2372-.4375-.3125-.170111-.075291-.37878-.093747-.65625-.09375zm3.34375 0v3.0625h.9375v-3.0625zm3.09375.65625c.199387.000003.353018.05365.46875.1875.117126.132464.187498.336376.1875.625-.000002.343007-.07596.58629-.1875.71875-.111549.132463-.26518.21875-.46875.21875-.197997 0-.353022-.0835-.46875-.21875-.114333-.135249-.156251-.346707-.15625-.65625-.000001-.312328.04052-.552247.15625-.6875.115728-.135245.277725-.187497.46875-.1875zm-5.5.03125h.25c.245401.000003.394028.03634.5.15625.105963.119915.187498.362622.1875.6875 0 .245404-.04634.421099-.09375.53125-.04741.108759-.10384.17413-.1875.21875-.08366.04323-.239507.0625-.4375.0625h-.21875zm-27.21875.09375.34375 1.09375h-.6875zm13.09375 0 .34375 1.09375h-.6875zm-8.875 4.96875c-.364643.000002-.649275.05669-.84375.21875-.194472.162065-.3125.417587-.3125.71875 0 .240394.07964.420698.21875.5625.140453.141807.353732.24767.65625.3125l.3125.0625c.183669.04051.31423.07369.375.125.06213.05132.09375.12421.09375.21875-.000002.105341-.06576.19328-.15625.25-.09049.05671-.204836.09375-.375.09375-.167465 0-.350282-.04243-.53125-.09375-.179621-.05267-.369375-.116109-.5625-.21875v.65625c.193125.07158.400625.11979.59375.15625.193123.03647.370724.0625.5625.0625.406505 0 .70907-.08794.90625-.25.19852-.163412.312497-.41642.3125-.75-.000003-.253896-.07695-.424746-.21875-.5625-.141807-.137752-.382472-.24497-.71875-.3125l-.34375-.0625c-.158012-.03241-.25173-.08043-.3125-.125-.05942-.04592-.09375-.10647-.09375-.1875 0-.10804.03586-.19869.125-.25.08913-.05131.219877-.0625.40625-.0625.140453 0 .310736-.0065.46875.03125.158008.03782.302633.11322.46875.1875v-.65625c-.187725-.04997-.355685-.06943-.53125-.09375-.17557-.02566-.333888-.03125-.5-.03125zm2.78125 0c-.364642.000003-.649275.05669-.84375.21875-.194472.162065-.281251.417587-.28125.71875-.000001.240395.07965.420697.21875.5625.140453.141806.353733.24767.65625.3125l.3125.0625c.18367.04051.28298.07368.34375.125.06212.05132.09375.12421.09375.21875-.000001.105342-.03451.19329-.125.25s-.204836.09375-.375.09375c-.167467 0-.350282-.04243-.53125-.09375-.17962-.05267-.369374-.11611-.5625-.21875v.65625c.193126.07158.369375.11979.5625.15625.193123.03647.401974.0625.59375.0625.406505 0 .709071-.08794.90625-.25.19852-.163412.281248-.416421.28125-.75-.000002-.253897-.0457-.424746-.1875-.5625-.141807-.137752-.382472-.24497-.71875-.3125l-.34375-.0625c-.158011-.03241-.25173-.08043-.3125-.125-.05942-.04592-.09375-.10647-.09375-.1875-.000002-.10804.03586-.19869.125-.25.08913-.05131.219876-.0625.40625-.0625.140453 0 .310737-.0066.46875.03125.158009.03782.302634.11322.46875.1875v-.65625c-.187725-.049969-.355685-.06943-.53125-.09375-.175569-.02566-.365137-.031247-.53125-.03125zm6.28125 0c-.349448.05242-.618889.196585-.84375.40625-.299816.279562-.4375.668714-.4375 1.15625 0 .482137.143086.873992.4375 1.15625.294413.280908.683755.40625 1.1875.40625.222834 0 .446916-.01524.65625-.0625.209328-.04727.399272-.12421.59375-.21875v-1.46875h-1.21875v.53125h.46875v.59375c-.05537.0216-.11727.02045-.1875.03125-.06888.0095-.13772.03125-.21875.03125-.298467.000001-.525439-.07578-.6875-.25-.162064-.174215-.250001-.429925-.25-.75-.000001-.322772.08254-.577132.25-.75.168814-.174216.408129-.249998.71875-.25.167463 0 .333884.01524.5.0625.167462.04727.362433.12286.53125.21875v-.625c-.163415-.07428-.346232-.14969-.53125-.1875-.183674-.03781-.392523-.03125-.59375-.03125-.130326.000001-.258517-.01747-.375 0zm-17.09375.03125v3.03125h.75v-2.21875l.6875 1.65625h.5l.6875-1.65625v2.21875h.75v-3.03125h-1l-.6875 1.625-.6875-1.625zm4.125 0v3.03125h2.15625v-.59375h-1.375v-.6875h1.25v-.59375h-1.25v-.5625h1.34375v-.59375zm15.25 0v3.03125h2.15625v-.59375h-1.375v-.6875h1.25v-.59375h-1.25v-.5625h1.3125v-.59375zm-5.84375.03125-1.125 3.03125h.78125l.1875-.5625h1.21875l.1875.5625h.78125l-1.125-3.03125zm.46875.6875.40625 1.21875h-.84375z" fill="url(#n)" opacity=".8"/><path d="m40 39h41v1h-41z" fill="url(#i)" opacity=".8"/><path d="m15 69h66v1h-66z" fill="url(#j)" opacity=".8"/><path d="m59 70v14h-1v-14z" fill="url(#k)" opacity=".8"/><path d="m41.78125 62.875c-.364641.000003-.649276.05669-.84375.21875-.194473.162065-.28125.417586-.28125.71875 0 .240395.07964.420696.21875.5625.140454.141805.353733.24767.65625.3125l.3125.0625c.183669.04051.28298.07368.34375.125.06212.05132.09375.12421.09375.21875-.000002.105341-.03452.19328-.125.25-.09049.05671-.204835.09375-.375.09375-.167466 0-.350281-.04243-.53125-.09375-.17962-.05267-.369376-.11611-.5625-.21875v.65625c.193124.07157.369376.11979.5625.15625.193125.03647.401974.0625.59375.0625.406504 0 .709071-.08794.90625-.25.19852-.163413.281247-.41642.28125-.75-.000003-.253896-.0457-.424745-.1875-.5625-.141808-.137751-.382473-.24497-.71875-.3125l-.34375-.0625c-.158013-.03241-.25173-.08043-.3125-.125-.05942-.045917-.09375-.10647-.09375-.1875 0-.10804.03586-.19868.125-.25.08913-.05131.219875-.0625.40625-.0625.140451 0 .310736-.0066.46875.03125.158008.03782.302634.11322.46875.1875v-.65625c-.187725-.049968-.355683-.06943-.53125-.09375-.175569-.02566-.365137-.031247-.53125-.03125zm3.0625 0c-.338559.05293-.622941.194558-.84375.40625-.294414.28091-.4375.672764-.4375 1.15625 0 .482137.143086.873991.4375 1.15625.294412.280908.683754.40625 1.1875.40625.168813 0 .344688-.02468.5-.0625.155308-.03781.294342-.08197.4375-.15625v-.625c-.144508.09859-.265799.17283-.40625.21875-.140457.04592-.313442.0625-.46875.0625-.278209.000001-.49689-.102981-.65625-.28125-.159363-.178269-.218751-.406778-.21875-.71875-.000001-.313321.05939-.57173.21875-.75.15936-.178264.378041-.249998.65625-.25.155308 0 .328293.01659.46875.0625.140451.04592.261742.12016.40625.21875v-.625c-.143158-.07428-.282192-.14969-.4375-.1875-.155312-.0378-.331187-.03125-.5-.03125-.125937.000001-.230897-.01764-.34375 0zm-18.875.03125v.59375h1v2.4375h.78125v-2.4375h1v-.59375zm3.1875 0v3.03125h2.15625v-.59375h-1.375v-.6875h1.25v-.59375h-1.25v-.5625h1.3125v-.59375zm17.625 0v3.03125h2.15625v-.59375h-1.375v-.6875h1.25v-.59375h-1.25v-.5625h1.3125v-.59375zm2.84375 0v3.03125h.71875v-2.0625l1.125 2.0625h.84375v-3.03125h-.71875v2.09375l-1.09375-2.09375zm3.46875 0v3.03125h2.15625v-.59375h-1.375v-.6875h1.25v-.59375h-1.25v-.5625h1.3125v-.59375zm11.65625 0v.59375h1v2.4375h.78125v-2.4375h1v-.59375zm6.09375 0v3.03125h.78125v-1.1875l1.1875 1.1875h.96875l-1.59375-1.59375 1.4375-1.4375h-.90625l-1.09375 1.125v-1.125zm3.1875 0v3.03125h2.15625v-.59375h-1.375v-.6875h1.25v-.59375h-1.25v-.5625h1.34375v-.59375zm-54.03125.03125v3.03125h.8125c.453773 0 .80436-.06017 1.03125-.125.226885-.06618.431684-.15584.59375-.3125.141802-.136402.24362-.290479.3125-.46875.06887-.179617.09375-.39676.09375-.625-.000002-.225535-.02487-.415479-.09375-.59375-.06888-.178266-.170698-.332345-.3125-.46875-.160716-.156657-.368214-.27892-.59375-.34375-.224187-.06617-.572075-.09375-1.03125-.09375zm4.1875 0-1.09375 3.03125h.78125l.1875-.5625h1.21875l.1875.5625h.78125l-1.125-3.03125zm44.1875 0-1.125 3.03125h.78125l.21875-.5625h1.21875l.1875.5625h.78125l-1.125-3.03125zm-47.59375.59375h.28125c.320071.000002.551284.06209.71875.21875.167457.156663.249997.387686.25.6875-.000003.301167-.08119.52949-.25.6875-.167467.158017-.400029.25-.71875.25h-.28125zm3.875.09375.4375 1.21875h-.84375zm44.1875 0 .40625 1.21875h-.8125z" fill="url(#m)" opacity=".8"/><path d="m37 70v14h-1v-14z" fill="url(#l)" opacity=".8"/></g><g><path d="m12 90c-3.324 0-6-2.676-6-6v-2-68-2c0-.334721.04135-.6507.09375-.96875.0487-.295596.09704-.596915.1875-.875.00988-.03038.020892-.0636.03125-.09375.098865-.287771.2348802-.547452.375-.8125.1445918-.273507.3156161-.535615.5-.78125s.3737765-.473472.59375-.6875c.439947-.428056.94291-.814526 1.5-1.09375.278545-.139612.5734731-.246947.875-.34375-.2562018.100222-.4867109.236272-.71875.375-.00741.0044-.023866-.0045-.03125 0-.031933.0193-.062293.04251-.09375.0625-.120395.0767-.2310226.163513-.34375.25-.1061728.0808-.2132809.161112-.3125.25-.1779299.161433-.3474596.345388-.5.53125-.1075789.130255-.2183939.265285-.3125.40625-.025089.03838-.038446.08587-.0625.125-.064763.103032-.1302275.204517-.1875.3125-.1010083.194706-.2056748.415701-.28125.625-.00796.02181-.023589.04055-.03125.0625-.0318251.09195-.0358045.186831-.0625.28125-.0303323.106618-.0703894.203031-.09375.3125-.0728786.341512-.125.698205-.125 1.0625v2 68 2c0 2.781848 2.2181517 5 5 5h2 68 2c2.781848 0 5-2.218152 5-5v-2-68-2c0-.364295-.05212-.720988-.125-1.0625-.04415-.206893-.08838-.397658-.15625-.59375-.0077-.02195-.0233-.04069-.03125-.0625-.06274-.173739-.138383-.367449-.21875-.53125-.04158-.0828-.07904-.169954-.125-.25-.0546-.09721-.126774-.18835-.1875-.28125-.09411-.140965-.204921-.275995-.3125-.40625-.143174-.17445-.303141-.346998-.46875-.5-.01117-.0102-.01998-.02115-.03125-.03125-.138386-.125556-.285091-.234436-.4375-.34375-.102571-.07315-.204318-.153364-.3125-.21875-.0074-.0045-.02384.0044-.03125 0-.232039-.138728-.462548-.274778-.71875-.375.301527.0968.596455.204138.875.34375.55709.279224 1.060053.665694 1.5 1.09375.219973.214028.409366.441865.59375.6875s.355408.507743.5.78125c.14012.265048.276135.524729.375.8125.01041.03078.02133.06274.03125.09375.09046.278085.1388.579404.1875.875.0524.31805.09375.634029.09375.96875v2 68 2c0 3.324-2.676 6-6 6z" fill="url(#e)" opacity=".2"/><rect height="66" rx="12" style="opacity:.1;stroke:#fefefe;stroke-width:.5;stroke-linecap:round;clip-path:url(#f);fill:url(#d);filter:url(#c)" width="66" x="15" y="15"/></g><g><path d="m12 6c-3.324 0-6 2.676-6 6v12h84v-12c0-3.324-2.676-6-6-6z"/><g fill-rule="evenodd"><path d="m6 24h84v6h-84z" fill="url(#p)" opacity=".8"/><path d="m6 15h84v5h-84z" fill="url(#r)" opacity=".3"/><g fill="#f0f0f0" transform="translate(1)"><path d="m28.333333 6-5.333333 9 5.333333 9h10.666667l-5.333333-9 5.333333-9z"/><path d="m50.333333 6-5.333333 9 5.333333 9h10.666667l-5.333333-9 5.333333-9z"/><path d="m72.333333 6-5.333333 9 5.333333 9h10.666667l-5.333333-9 5.333333-9z"/></g><path d="m6 10h84v5h-84z" fill="url(#q)" opacity=".7"/><path d="m6 19h84v5h-84z" fill="url(#s)" opacity=".7"/><path d="m12.005391 10.5c1.109513 0 1.770155.983693 6.03003 4.302704 4.304387 3.353689 5.477493 3.726472 5.477493 5.074645 0 1.348423-1.088205 1.622651-2.439921 1.622651h-8.133072c-1.351716 0-2.439921-1.085554-2.439921-2.433977v-6.490605c0-1.348423.467611-2.075418 1.505391-2.075418z" fill="url(#t)" stroke="url(#u)" stroke-linejoin="round"/><path d="m12.75 14.9375a1.4375 1.4375 0 1 1 -2.875 0 1.4375 1.4375 0 1 1 2.875 0z" fill="url(#v)" transform="matrix(.81330712 0 0 .81132563 3.58689 1.074678)"/><path d="m12.75 14.9375a1.4375 1.4375 0 1 1 -2.875 0 1.4375 1.4375 0 1 1 2.875 0z" fill="url(#v)" transform="matrix(.81330712 0 0 .81132563 3.58689 7.09897)"/><path d="m12.75 14.9375a1.4375 1.4375 0 1 1 -2.875 0 1.4375 1.4375 0 1 1 2.875 0z" fill="url(#v)" transform="matrix(.81330712 0 0 .81132563 11.618297 7.09897)"/></g></g><path d="m12 6c-3.324 0-6 2.676-6 6v2 68 2c0 .334721.04135.6507.09375.96875.0487.295596.09704.596915.1875.875.00988.03038.020892.0636.03125.09375.098865.287771.2348802.547452.375.8125.1445918.273507.3156161.535615.5.78125s.3737765.473472.59375.6875c.439947.428056.94291.814526 1.5 1.09375.278545.139612.5734731.246947.875.34375-.2562018-.100222-.4867109-.236272-.71875-.375-.00741-.0044-.023866.0045-.03125 0-.031933-.0193-.062293-.04251-.09375-.0625-.120395-.0767-.2310226-.163513-.34375-.25-.1061728-.0808-.2132809-.161112-.3125-.25-.1779299-.161433-.3474596-.345388-.5-.53125-.1075789-.130255-.2183939-.265285-.3125-.40625-.025089-.03838-.038446-.08587-.0625-.125-.064763-.103032-.1302275-.204517-.1875-.3125-.1010083-.194706-.2056748-.415701-.28125-.625-.00796-.02181-.023589-.04055-.03125-.0625-.0318251-.09195-.0358045-.186831-.0625-.28125-.0303323-.106618-.0703894-.203031-.09375-.3125-.0728786-.341512-.125-.698205-.125-1.0625v-2-68-2c0-2.781848 2.2181517-5 5-5h2 68 2c2.781848 0 5 2.218152 5 5v2 68 2c0 .364295-.05212.720988-.125 1.0625-.04415.206893-.08838.397658-.15625.59375-.0077.02195-.0233.04069-.03125.0625-.06274.173739-.138383.367449-.21875.53125-.04158.0828-.07904.169954-.125.25-.0546.09721-.126774.18835-.1875.28125-.09411.140965-.204921.275995-.3125.40625-.143174.17445-.303141.346998-.46875.5-.01117.0102-.01998.02115-.03125.03125-.138386.125556-.285091.234436-.4375.34375-.102571.07315-.204318.153364-.3125.21875-.0074.0045-.02384-.0044-.03125 0-.232039.138728-.462548.274778-.71875.375.301527-.0968.596455-.204138.875-.34375.55709-.279224 1.060053-.665694 1.5-1.09375.219973-.214028.409366-.441865.59375-.6875s.355408-.507743.5-.78125c.14012-.265048.276135-.524729.375-.8125.01041-.03078.02133-.06274.03125-.09375.09046-.278085.1388-.579404.1875-.875.0524-.31805.09375-.634029.09375-.96875v-2-68-2c0-3.324-2.676-6-6-6z" fill="url(#b)" opacity=".3"/><g><g fill-rule="evenodd"><path d="m48.28125 27.90625c-1.032284.0708-2.256283.230277-3.40625.6875s-2.288733 1.24289-2.875 2.5a.98442092.98442092 0 0 0 -.03125.125c-1.391622 4.942398-3.044208 9.81247-4.40625 14.84375-.0026.0097.0026.02151 0 .03125-1.45108 4.92182-2.858839 9.882343-4.375 14.75-.0068.02177-.02446.04073-.03125.0625-.660171 1.801538-1.183897 3.632969-1.75 5.40625-.502288-.0013-1.02335-.02094-1.6875-.03125-.89805-.01394-1.984671.108901-2.875.875a.98442092.98442092 0 0 0 -.1875.25c-1.210255 2.016388-1.77608 4.224828-2.625 6.09375a.98442092.98442092 0 0 0 0 .03125c-1.942742 4.925459-3.980893 9.882329-5.875 14.84375a.98442092.98442092 0 0 0 -.0625.375c.04711 1.575051-.351426 3.495246.25 5.46875a.98442092.98442092 0 0 0 .09375.25c.728185 1.161582 2.008821 1.503925 3.03125 1.53125 1.022429.02733 1.975285-.137008 2.5625-.0625a.98442092.98442092 0 0 0 .125 0c17.014246-.02085 34.043513.04171 51.0625-.03125a.98442092.98442092 0 0 0 .09375 0c1.248477-.11015 2.124391-1.043879 2.4375-1.96875.294566-.870099.252732-1.732667.1875-2.46875-.0033-.03707.0036-.08874 0-.125.000481-.01006-.000472-.02118 0-.03125.07409-1.581725.0323-3.28648-.8125-4.90625-.01546-.03956-.01579-.08544-.03125-.125-2.380796-6.094494-4.737932-12.251875-7.15625-18.34375a.98442092.98442092 0 0 0 -.09375-.1875c-.777742-1.094097-2.045287-1.403987-3.0625-1.4375-.759883-.02504-1.358736.0245-1.9375.03125-1.794364-6.376011-3.499734-12.761407-5.25-19.15625a.98442092.98442092 0 0 0 0-.03125c-1.606481-5.367152-2.93833-10.740569-4.5625-16.15625a.98442092.98442092 0 0 0 -.15625-.34375c-1.590215-1.977569-4.2959-2.653124-6.5-2.75a.98442092.98442092 0 0 0 -.09375 0z" opacity=".08"/><path d="m48.34375 28.875c-1.930722.132425-4.54359.708222-5.4375 2.625-1.403647 4.985104-3.057319 9.84492-4.410156 14.846956-1.458726 4.947057-2.870472 9.926364-4.402344 14.840544-.732822 1.989282-1.293106 4.094329-1.96875 6.125-1.521063.19636-3.356622-.497648-4.625.59375-1.109512 1.848542-1.661039 4.034299-2.559193 6.011611-1.946758 4.935641-3.99071 9.856521-5.878307 14.800889.05159 1.724952-.288236 3.555139.21875 5.21875 1.045491 1.667741 3.264211.825865 4.882891 1.03125 17.017462-.02085 34.04085.04169 51.054609-.03125 1.761654-.155426 1.886968-2.151861 1.75-3.519571.08291-1.615314.03528-3.228412-.761251-4.6816-2.398601-6.138263-4.745429-12.30046-7.176249-18.423829-1.124587-1.582025-3.278808-.815671-4.9375-1-1.869191-6.612864-3.623759-13.266331-5.435321-19.885127-1.615329-5.396712-2.949489-10.760384-4.564679-16.146123-1.300732-1.617572-3.738871-2.317856-5.75-2.40625z" opacity=".1"/><path d="m48.34375 29.875c-2.49135 0-4.25 1.53125-4.25 1.53125a.98336528.98336528 0 0 0 -.28125.46875l-2.15625 7.3125a.98336528.98336528 0 0 0 -.03125.03125.98336528.98336528 0 0 0 -.15625.3125l-2.4375 8.5-4 13.5a.98336528.98336528 0 0 0 -.1875.375l-2 6.40625h-3.9375a.98336528.98336528 0 0 0 -.90625.59375l-7.90625 19.78125a.98336528.98336528 0 0 0 -.0625.375v3.9375a.98336528.98336528 0 0 0 .96875.96875h54a.98336528.98336528 0 0 0 .96875-.96875v-3.9375a.98336528.98336528 0 0 0 -.0625-.34375l-7.65625-19.71875a.98336528.98336528 0 0 0 -.71875-.625.98336528.98336528 0 0 0 -.03125 0 .98336528.98336528 0 0 0 -.0625 0 .98336528.98336528 0 0 0 -.34375-.0625h-3.78125l-.5625-2c-.243878-.901598-.517275-1.935877-.78125-2.90625-.02315-.08313-.04649-.16133-.0625-.21875-1.206292-4.432661-2.033946-7.445722-3.28125-11.96875a.98336528.98336528 0 0 0 0-.0625c-.003-.01102.003-.02021 0-.03125a.98336528.98336528 0 0 0 -.03125-.375l-3.0625-10.71875c-.0024-.0086.0024-.02261 0-.03125-.662335-2.382449-2.21875-8-2.21875-8a.98336528.98336528 0 0 0 -.375-.5625s-2.072805-1.5625-4.59375-1.5625z" opacity=".15"/><path d="m48.34375 30.84375c-2.077148 0-3.59375 1.3125-3.59375 1.3125l-2.28125 7.71875c-.007-.0091-.0625-.0625-.0625-.0625l-2.4375 8.5-4.125 13.90625c-.0025-.002-.0625-.0312-.0625-.0312l-2.21875 7.09375h-4.65625l-7.90625 19.7812v3.9375h54v-3.9375l-7.65625-19.71875h-.21875c-.0051-.01-.03125-.0625-.03125-.0625h-4.53125l-.75-2.71875c-.244998-.90574-.518595-1.94073-.78125-2.90625-.01949-.07-.04291-.14848-.0625-.21875-1.247191-4.58295-2.054242-7.59116-3.375-12.375.0031-.0016.0625-.03125.0625-.03125l-3.0625-10.75c-.659236-2.370935-2.21875-8.03125-2.21875-8.03125s-1.95409-1.40625-4.03125-1.40625z" opacity=".3"/></g><g clip-path="url(#z)" filter="url(#A)" opacity=".6" transform="matrix(1.1825572 0 0 1.1825572 -11.452786 8.166766)"><path d="m65.154839 58.876894 19.192898-32.829958-4.798224-3.788072-33.587572 27.779195z" fill="url(#O)" opacity=".5"/><path d="m38.195957 58.876894-15.089589-25.811139 3.772397-2.978209 26.406781 21.840195z" fill="url(#P)" opacity=".5"/></g><g transform="matrix(1.316934 0 0 1.316934 -114.64135 -33.108732)"><g fill-rule="evenodd"><path d="m109 77-6 15v3h41v-3l-5.80578-14.953523z" fill="url(#E)"/><path d="m23.117554 40.820635s-9.649177-.656979-12.086984-5.410027c-2.4513034-4.779362-2.03057-6.410608-2.03057-6.410608h29s2.538527 4.682019-2.677526 8.518128c-2.940539 2.162598-12.466443 3.302507-12.20492 3.302507z" fill="#832e0a" filter="url(#D)" opacity=".573209" transform="translate(100 48)"/><path d="m109 77-6 15h41l-5.8125-14.96875zm.6875 1 27.8125.03125 5.03125 12.96875h-38.03125z" fill="url(#F)"/><path d="m110.99459 82.676573s1.97695 5.397914 12.33134 5.166495c8.53949-.195387 13.04826-2.870274 12.90488-4.305412-.14338-1.435137-9.41288-34.670883-9.41288-34.670883s-1.48457-1.064042-3.06184-1.064042c-1.57726 0-2.72435 1.004596-2.72435 1.004596z" fill="url(#G)"/></g><path d="m64.649761 65.94796a16.414978 5.5558391 0 1 1 -32.829956 0 16.414978 5.5558391 0 1 1 32.829956 0z" fill="#f29d1a" filter="url(#B)" transform="matrix(.78245284 0 0 .91663154 85.824582 23.432476)"/><path d="m121.24892 49.643787-9.25533 32.59627s-2.1615.415114-.0356 1.759134c2.13662 1.350791 3.96753 2.761294 5.42913 2.492807 1.17871-.216522 5.26808-35.67249 5.26808-35.67249l-1.4063-1.175721z" fill="url(#H)" fill-rule="evenodd" opacity=".8"/><path d="m124.63069 49.8389 3.63158 33.691502s-.55806 1.839668 1.91628 2.287782c2.48679.450373 4.44115-1.336932 5.69552-2.134354 1.01159-.643085-9.20283-33.777197-9.20283-33.777197z" fill="url(#I)" fill-rule="evenodd" opacity=".8"/><g fill-rule="evenodd" transform="matrix(.99860894 0 0 .99948788 100.52733 46.756313)"><path d="m18.759169 7.8637439s1.161301 1.6123342 4.501971 1.6620774c2.838531.042918 4.747092-1.315427 4.747092-1.315427l2.330742 8.1829807s-4.204096 2.120424-7.22142 2.027643c-4.053129-.124632-6.748602-2.297396-6.748602-2.297396z" fill="url(#J)"/><path d="m13.724904 24.867345s4.221471 2.809079 9.823411 2.906586c4.022366.07185 9.138823-2.552718 9.138823-2.552718l2.060987 7.483957s-3.675488 4.003161-11.427509 3.971174c-7.080385-.02977-11.833632-4.689109-11.833632-4.689109z" fill="url(#K)"/></g><path d="m126.02697 49.345001c0 .490399-.91923.887945-2.05315.887945-1.13393 0-2.05315-.397546-2.05315-.887945 0-.4904.91922-.887945 2.05315-.887945 1.13392 0 2.05315.397545 2.05315.887945z" fill="#643108" opacity=".911357"/><path d="m122.47923 50.211584-8.89196 34.808064 2.56878 1.186639z" fill="url(#L)" opacity=".4" stroke="url(#M)" stroke-width=".75934"/><path d="m124.45524 50.607133 2.07477 36.489138-1.87718.09888-.19759-36.588024z" fill="#fefefe" opacity=".2"/><path d="m121.49123 59.605806-7.01478 25.611615 5.73039 1.977733z" fill="url(#L)" opacity=".2" stroke="url(#M)" stroke-width=".75934"/><path d="m111.1875 82.0625-.1875.625s1.95811 5.387669 12.3125 5.15625c8.53949-.195387 13.04963-2.877362 12.90625-4.3125-.005-.04726-.10114-.386077-.125-.5-.75831 1.480393-5.15976 3.638117-12.78125 3.8125-8.73652.19526-11.47189-3.585126-12.125-4.78125z" fill="url(#N)" fill-rule="evenodd"/></g></g></svg>