<svg height="96" width="96" xmlns="http://www.w3.org/2000/svg" xmlns:xlink="http://www.w3.org/1999/xlink"><linearGradient id="a"><stop offset="0" stop-color="#fff"/><stop offset="1" stop-color="#fff" stop-opacity="0"/></linearGradient><linearGradient id="b" gradientUnits="userSpaceOnUse" x1="36.357143" x2="36.357143" xlink:href="#a" y1="6" y2="63.893143"/><filter id="c" color-interpolation-filters="sRGB" height="1.384" width="1.384" x="-.192" y="-.192"><feGaussianBlur stdDeviation="5.28"/></filter><linearGradient id="d" gradientUnits="userSpaceOnUse" x1="48" x2="48" xlink:href="#a" y1="20.220806" y2="138.66119"/><radialGradient id="e" cx="48" cy="90.171875" gradientTransform="matrix(1.1573129 0 0 .99590774 -7.551021 .197132)" gradientUnits="userSpaceOnUse" r="42" xlink:href="#a"/><clipPath id="f"><rect height="84" rx="6" width="84" x="6" y="6"/></clipPath><linearGradient id="g" gradientUnits="userSpaceOnUse" x1="48" x2="48" y1="90" y2="5.987717"><stop offset="0" stop-color="#b9b79e"/><stop offset="1" stop-color="#e4e4da"/></linearGradient><linearGradient id="h"><stop offset="0" stop-color="#9f9e7d"/><stop offset="1" stop-color="#9f9e7d" stop-opacity="0"/></linearGradient><linearGradient id="i" gradientUnits="userSpaceOnUse" x1="110.64452" x2="110.64452" y1="92.772629" y2="96.64547"><stop offset="0" stop-color="#858362"/><stop offset="1" stop-color="#fff"/></linearGradient><linearGradient id="j" gradientUnits="userSpaceOnUse" x1="15.749998" x2="64.464287" y1="40" y2="40"><stop offset="0" stop-color="#9f9d7c"/><stop offset="1" stop-color="#fff"/></linearGradient><linearGradient id="k" gradientUnits="userSpaceOnUse" x1="38.689964" x2="38.689964" y1="36.890461" y2="43.260303"><stop offset="0" stop-color="#4f4f49"/><stop offset="1" stop-color="#bcbcb7"/></linearGradient><linearGradient id="l" gradientUnits="userSpaceOnUse" x1="14.585086" x2="65.629204" y1="40" y2="40"><stop offset="0" stop-color="#e4e4d9"/><stop offset="1" stop-color="#e4e4d9" stop-opacity="0"/></linearGradient><radialGradient id="m" cx="40" cy="40" gradientTransform="matrix(.00000002 -.73529407 .73529408 .00000002 .588235 59.411764)" gradientUnits="userSpaceOnUse" r="18"><stop offset="0" stop-color="#91918a"/><stop offset="1" stop-color="#7c7c74"/></radialGradient><linearGradient id="n" gradientUnits="userSpaceOnUse" x1="15.84375" x2="44.15625" xlink:href="#h" y1="30" y2="30"/><linearGradient id="o" gradientUnits="userSpaceOnUse" x1="39.07143" x2="39.07143" y1="43.00716" y2="17.000002"><stop offset="0" stop-color="#5d5d56"/><stop offset="1" stop-color="#bcbcb7"/></linearGradient><filter id="p" color-interpolation-filters="sRGB"><feGaussianBlur stdDeviation=".52"/></filter><linearGradient id="q" gradientUnits="userSpaceOnUse" x1="90.194664" x2="85.195808" xlink:href="#h" y1="24.087267" y2="43.082268"/><linearGradient id="r" gradientUnits="userSpaceOnUse" x1="91.967613" x2="89.411514" y1="23.503925" y2="42.016701"><stop offset="0" stop-color="#fff1b7"/><stop offset="1" stop-color="#ad6100"/></linearGradient><linearGradient id="s" gradientUnits="userSpaceOnUse" x1="90.456657" x2="85.705856" y1="23.091709" y2="41.144135"><stop offset="0" stop-color="#57ff0c"/><stop offset="1" stop-color="#004617"/></linearGradient><linearGradient id="t" gradientUnits="userSpaceOnUse" x1="90.456657" x2="85.739838" y1="23.091709" y2="41.015003"><stop offset="0" stop-color="#fe774b"/><stop offset="1" stop-color="#610601"/></linearGradient><linearGradient id="u" gradientUnits="userSpaceOnUse" x1="91.622108" x2="86.898407" y1="23.409664" y2="41.359119"><stop offset="0" stop-color="#67b1ff"/><stop offset="1" stop-color="#001a35"/></linearGradient><filter id="v" color-interpolation-filters="sRGB" height="1.288" width="1.144" x="-.072" y="-.144"><feGaussianBlur stdDeviation=".36000001"/></filter><linearGradient id="w" gradientUnits="userSpaceOnUse" x1="78.802673" x2="78.802673" xlink:href="#h" y1="101.96875" y2="114.04247"/><linearGradient id="x" gradientTransform="matrix(.75000002 0 0 .75000009 -.000002 -1.000006)" gradientUnits="userSpaceOnUse" x1="78" x2="78" y1="104" y2="112.00382"><stop offset="0" stop-color="#706f6b"/><stop offset="1" stop-color="#51504e"/></linearGradient><linearGradient id="y" gradientTransform="matrix(.75000002 0 0 .75000009 -.000002 -1.000006)" gradientUnits="userSpaceOnUse" x1="79.067139" x2="79.067139" xlink:href="#a" y1="104.35336" y2="107.93777"/><linearGradient id="z" gradientUnits="userSpaceOnUse" x1="83.314926" x2="79.007256" y1="21.664392" y2="38.032986"><stop offset="0" stop-color="#ffe119"/><stop offset="1" stop-color="#f7a700"/></linearGradient><linearGradient id="A" gradientUnits="userSpaceOnUse" x1="84.396637" x2="79.935318" y1="21.771172" y2="38.723618"><stop offset="0" stop-color="#2bca00"/><stop offset="1" stop-color="#1e9000"/></linearGradient><linearGradient id="B" gradientUnits="userSpaceOnUse" x1="84.396637" x2="79.880112" y1="21.771172" y2="38.933376"><stop offset="0" stop-color="#fd2306"/><stop offset="1" stop-color="#b31602"/></linearGradient><linearGradient id="C" gradientUnits="userSpaceOnUse" x1="85.006851" x2="80.336685" y1="21.560991" y2="39.307014"><stop offset="0" stop-color="#006ada"/><stop offset="1" stop-color="#00438a"/></linearGradient><linearGradient id="D" gradientTransform="matrix(1.0058652 0 0 .994169 100 0)" gradientUnits="userSpaceOnUse" x1="45.447727" x2="45.447727" y1="92.539597" y2="7.01654"><stop offset="0"/><stop offset="1" stop-opacity=".588235"/></linearGradient><linearGradient id="E" gradientTransform="matrix(1.0238095 0 0 1.0119048 -1.142857 -98.071429)" gradientUnits="userSpaceOnUse" x1="32.251034" x2="32.251034" xlink:href="#D" y1="6.131708" y2="90.238609"/><linearGradient id="F" gradientTransform="translate(0 -97)" gradientUnits="userSpaceOnUse" x1="32.251034" x2="32.251034" xlink:href="#D" y1="6.131708" y2="90.238609"/><g><g fill="url(#E)"><path d="m12-95.03125c-5.5110903 0-10.03125 4.52016-10.03125 10.03125v71c0 5.5110902 4.5201598 10.03125 10.03125 10.03125h72c5.51109 0 10.03125-4.5201597 10.03125-10.03125v-71c0-5.51109-4.52016-10.03125-10.03125-10.03125z" opacity=".08" transform="scale(1 -1)"/><path d="m12-94.03125c-4.971633 0-9.03125 4.059617-9.03125 9.03125v71c0 4.9716329 4.0596171 9.03125 9.03125 9.03125h72c4.971633 0 9.03125-4.059617 9.03125-9.03125v-71c0-4.971633-4.059617-9.03125-9.03125-9.03125z" opacity=".1" transform="scale(1 -1)"/><path d="m12-93c-4.4091333 0-8 3.590867-8 8v71c0 4.4091333 3.5908667 8 8 8h72c4.409133 0 8-3.5908667 8-8v-71c0-4.409133-3.590867-8-8-8z" opacity=".2" transform="scale(1 -1)"/><rect height="85" opacity=".3" rx="7" transform="scale(1 -1)" width="86" x="5" y="-92"/></g><rect fill="url(#F)" height="84" opacity=".45" rx="6" transform="scale(1 -1)" width="84" x="6" y="-91"/></g><rect fill="url(#g)" height="84" rx="6" width="84" x="6" y="6"/><path d="m12 6c-3.324 0-6 2.676-6 6v2 68 2c0 .334721.04135.6507.09375.96875.0487.295596.09704.596915.1875.875.00988.03038.020892.0636.03125.09375.098865.287771.2348802.547452.375.8125.1445918.273507.3156161.535615.5.78125s.3737765.473472.59375.6875c.439947.428056.94291.814526 1.5 1.09375.278545.139612.5734731.246947.875.34375-.2562018-.100222-.4867109-.236272-.71875-.375-.00741-.0044-.023866.0045-.03125 0-.031933-.0193-.062293-.04251-.09375-.0625-.120395-.0767-.2310226-.163513-.34375-.25-.1061728-.0808-.2132809-.161112-.3125-.25-.1779299-.161433-.3474596-.345388-.5-.53125-.1075789-.130255-.2183939-.265285-.3125-.40625-.025089-.03838-.038446-.08587-.0625-.125-.064763-.103032-.1302275-.204517-.1875-.3125-.1010083-.194706-.2056748-.415701-.28125-.625-.00796-.02181-.023589-.04055-.03125-.0625-.0318251-.09195-.0358045-.186831-.0625-.28125-.0303323-.106618-.0703894-.203031-.09375-.3125-.0728786-.341512-.125-.698205-.125-1.0625v-2-68-2c0-2.781848 2.2181517-5 5-5h2 68 2c2.781848 0 5 2.218152 5 5v2 68 2c0 .364295-.05212.720988-.125 1.0625-.04415.206893-.08838.397658-.15625.59375-.0077.02195-.0233.04069-.03125.0625-.06274.173739-.138383.367449-.21875.53125-.04158.0828-.07904.169954-.125.25-.0546.09721-.126774.18835-.1875.28125-.09411.140965-.204921.275995-.3125.40625-.143174.17445-.303141.346998-.46875.5-.01117.0102-.01998.02115-.03125.03125-.138386.125556-.285091.234436-.4375.34375-.102571.07315-.204318.153364-.3125.21875-.0074.0045-.02384-.0044-.03125 0-.232039.138728-.462548.274778-.71875.375.301527-.0968.596455-.204138.875-.34375.55709-.279224 1.060053-.665694 1.5-1.09375.219973-.214028.409366-.441865.59375-.6875s.355408-.507743.5-.78125c.14012-.265048.276135-.524729.375-.8125.01041-.03078.02133-.06274.03125-.09375.09046-.278085.1388-.579404.1875-.875.0524-.31805.09375-.634029.09375-.96875v-2-68-2c0-3.324-2.676-6-6-6z" fill="url(#b)" opacity=".5"/><path d="m12 90c-3.324 0-6-2.676-6-6v-2-68-2c0-.334721.04135-.6507.09375-.96875.0487-.295596.09704-.596915.1875-.875.00988-.03038.020892-.0636.03125-.09375.098865-.287771.2348802-.547452.375-.8125.1445918-.273507.3156161-.535615.5-.78125s.3737765-.473472.59375-.6875c.439947-.428056.94291-.814526 1.5-1.09375.278545-.139612.5734731-.246947.875-.34375-.2562018.100222-.4867109.236272-.71875.375-.00741.0044-.023866-.0045-.03125 0-.031933.0193-.062293.04251-.09375.0625-.120395.0767-.2310226.163513-.34375.25-.1061728.0808-.2132809.161112-.3125.25-.1779299.161433-.3474596.345388-.5.53125-.1075789.130255-.2183939.265285-.3125.40625-.025089.03838-.038446.08587-.0625.125-.064763.103032-.1302275.204517-.1875.3125-.1010083.194706-.2056748.415701-.28125.625-.00796.02181-.023589.04055-.03125.0625-.0318251.09195-.0358045.186831-.0625.28125-.0303323.106618-.0703894.203031-.09375.3125-.0728786.341512-.125.698205-.125 1.0625v2 68 2c0 2.781848 2.2181517 5 5 5h2 68 2c2.781848 0 5-2.218152 5-5v-2-68-2c0-.364295-.05212-.720988-.125-1.0625-.04415-.206893-.08838-.397658-.15625-.59375-.0077-.02195-.0233-.04069-.03125-.0625-.06274-.173739-.138383-.367449-.21875-.53125-.04158-.0828-.07904-.169954-.125-.25-.0546-.09721-.126774-.18835-.1875-.28125-.09411-.140965-.204921-.275995-.3125-.40625-.143174-.17445-.303141-.346998-.46875-.5-.01117-.0102-.01998-.02115-.03125-.03125-.138386-.125556-.285091-.234436-.4375-.34375-.102571-.07315-.204318-.153364-.3125-.21875-.0074-.0045-.02384.0044-.03125 0-.232039-.138728-.462548-.274778-.71875-.375.301527.0968.596455.204138.875.34375.55709.279224 1.060053.665694 1.5 1.09375.219973.214028.409366.441865.59375.6875s.355408.507743.5.78125c.14012.265048.276135.524729.375.8125.01041.03078.02133.06274.03125.09375.09046.278085.1388.579404.1875.875.0524.31805.09375.634029.09375.96875v2 68 2c0 3.324-2.676 6-6 6z" fill="url(#e)" opacity=".2"/><rect height="66" rx="12" style="opacity:.1;stroke:#fff;stroke-width:.5;stroke-linecap:round;clip-path:url(#f);fill:url(#d);filter:url(#c)" width="66" x="15" y="15"/><g fill-rule="evenodd"><path d="m96.196504 32.053356a8.0982523 8.2454147 0 1 1 -16.196505 0 8.0982523 8.2454147 0 1 1 16.196505 0z" fill="url(#q)" transform="matrix(.95396995 -.2556155 .25105324 .93694367 -60.090183 56.48709)"/><path d="m96.196504 32.053356a8.0982523 8.2454147 0 1 1 -16.196505 0 8.0982523 8.2454147 0 1 1 16.196505 0z" fill="url(#C)" stroke="url(#u)" stroke-linejoin="round" stroke-width="1.427758" transform="matrix(.68265295 -.18291628 .17965162 .67046901 -33.898963 58.623826)"/><path d="m96.196504 32.053356a8.0982523 8.2454147 0 1 1 -16.196505 0 8.0982523 8.2454147 0 1 1 16.196505 0z" fill="url(#q)" transform="matrix(.95396994757 -.25561550282 .25105323814 .93694366898 -43.09018323725 47.48708953015)"/><path d="m96.196504 32.053356a8.0982523 8.2454147 0 1 1 -16.196505 0 8.0982523 8.2454147 0 1 1 16.196505 0z" fill="url(#B)" stroke="url(#t)" stroke-linejoin="round" stroke-width="1.427758" transform="matrix(.68265295191 -.18291627646 .1796516198 .67046900801 -16.89896289332 49.62382548019)"/><path d="m96.196504 32.053356a8.0982523 8.2454147 0 1 1 -16.196505 0 8.0982523 8.2454147 0 1 1 16.196505 0z" fill="url(#q)" transform="matrix(.95396995 -.2556155 .25105324 .93694367 -32.090183 31.48709)"/><path d="m96.196504 32.053356a8.0982523 8.2454147 0 1 1 -16.196505 0 8.0982523 8.2454147 0 1 1 16.196505 0z" fill="url(#A)" stroke="url(#s)" stroke-linejoin="round" stroke-width="1.427758" transform="matrix(.68265295 -.18291628 .17965162 .67046901 -5.898963 33.623826)"/><path d="m96.196504 32.053356a8.0982523 8.2454147 0 1 1 -16.196505 0 8.0982523 8.2454147 0 1 1 16.196505 0z" fill="url(#q)" transform="matrix(.95396995 -.2556155 .25105324 .93694367 -30.090183 12.48709)"/><path d="m96.196504 32.053356a8.0982523 8.2454147 0 1 1 -16.196505 0 8.0982523 8.2454147 0 1 1 16.196505 0z" fill="url(#z)" stroke="url(#r)" stroke-linejoin="round" stroke-width="1.427758" transform="matrix(.68265295 -.18291628 .17965162 .67046901 -3.898962 14.623826)"/><path d="m64.214289 40a24.107145 24 0 1 1 -48.214291 0 24.107145 24 0 1 1 48.214291 0z" fill="url(#l)" opacity=".8" stroke="url(#j)" stroke-linejoin="round" stroke-width="2.09161" transform="matrix(0 .71555548 .71875 0 1.25 1.301114)"/><path d="m111.93775 94.063576a1.9364232 1.9364232 0 1 1 -3.87285 0 1.9364232 1.9364232 0 1 1 3.87285 0z" fill="#4d4c38" stroke="url(#i)" stroke-linejoin="round" stroke-width="1.729834" transform="matrix(.57802848 0 0 .57815191 18.791618 14.634463)"/><path d="m111.93775 94.063576a1.9364232 1.9364232 0 1 1 -3.87285 0 1.9364232 1.9364232 0 1 1 3.87285 0z" fill="#4d4c38" stroke="url(#i)" stroke-linejoin="round" stroke-width="1.729834" transform="matrix(.57802848 0 0 .57815191 12.821976 14.634463)"/><path d="m111.93775 94.063576a1.9364232 1.9364232 0 1 1 -3.87285 0 1.9364232 1.9364232 0 1 1 3.87285 0z" fill="#4d4c38" stroke="url(#i)" stroke-linejoin="round" stroke-width="1.729834" transform="matrix(.57802848 0 0 .57815191 6.852336 14.634463)"/><path d="m111.93775 94.063576a1.9364232 1.9364232 0 1 1 -3.87285 0 1.9364232 1.9364232 0 1 1 3.87285 0z" fill="#4d4c38" stroke="url(#i)" stroke-linejoin="round" stroke-width="1.729834" transform="matrix(.57802848 0 0 .57815191 .882694 14.634463)"/><path d="m111.93775 94.063576a1.9364232 1.9364232 0 1 1 -3.87285 0 1.9364232 1.9364232 0 1 1 3.87285 0z" fill="#4d4c38" stroke="url(#i)" stroke-linejoin="round" stroke-width="1.729834" transform="matrix(.57802848 0 0 .57815191 -5.086947 14.634463)"/><path d="m111.93775 94.063576a1.9364232 1.9364232 0 1 1 -3.87285 0 1.9364232 1.9364232 0 1 1 3.87285 0z" fill="#4d4c38" stroke="url(#i)" stroke-linejoin="round" stroke-width="1.729834" transform="matrix(.57802848 0 0 .57815191 15.806797 11.649005)"/><path d="m111.93775 94.063576a1.9364232 1.9364232 0 1 1 -3.87285 0 1.9364232 1.9364232 0 1 1 3.87285 0z" fill="#4d4c38" stroke="url(#i)" stroke-linejoin="round" stroke-width="1.729834" transform="matrix(.57802848 0 0 .57815191 9.837156 11.649005)"/><path d="m111.93775 94.063576a1.9364232 1.9364232 0 1 1 -3.87285 0 1.9364232 1.9364232 0 1 1 3.87285 0z" fill="#4d4c38" stroke="url(#i)" stroke-linejoin="round" stroke-width="1.729834" transform="matrix(.57802848 0 0 .57815191 3.867515 11.649005)"/><path d="m111.93775 94.063576a1.9364232 1.9364232 0 1 1 -3.87285 0 1.9364232 1.9364232 0 1 1 3.87285 0z" fill="#4d4c38" stroke="url(#i)" stroke-linejoin="round" stroke-width="1.729834" transform="matrix(.57802848 0 0 .57815191 -2.102126 11.649005)"/><path d="m111.93775 94.063576a1.9364232 1.9364232 0 1 1 -3.87285 0 1.9364232 1.9364232 0 1 1 3.87285 0z" fill="#4d4c38" stroke="url(#i)" stroke-linejoin="round" stroke-width="1.729834" transform="matrix(.57802848 0 0 .57815191 18.791618 8.663547)"/><path d="m111.93775 94.063576a1.9364232 1.9364232 0 1 1 -3.87285 0 1.9364232 1.9364232 0 1 1 3.87285 0z" fill="#4d4c38" stroke="url(#i)" stroke-linejoin="round" stroke-width="1.729834" transform="matrix(.57802848 0 0 .57815191 12.821976 8.663547)"/><path d="m111.93775 94.063576a1.9364232 1.9364232 0 1 1 -3.87285 0 1.9364232 1.9364232 0 1 1 3.87285 0z" fill="#4d4c38" stroke="url(#i)" stroke-linejoin="round" stroke-width="1.729834" transform="matrix(.57802848 0 0 .57815191 6.852336 8.663547)"/><path d="m111.93775 94.063576a1.9364232 1.9364232 0 1 1 -3.87285 0 1.9364232 1.9364232 0 1 1 3.87285 0z" fill="#4d4c38" stroke="url(#i)" stroke-linejoin="round" stroke-width="1.729834" transform="matrix(.57802848 0 0 .57815191 .882694 8.663547)"/><path d="m111.93775 94.063576a1.9364232 1.9364232 0 1 1 -3.87285 0 1.9364232 1.9364232 0 1 1 3.87285 0z" fill="#4d4c38" stroke="url(#i)" stroke-linejoin="round" stroke-width="1.729834" transform="matrix(.57802848 0 0 .57815191 15.806797 5.678089)"/><path d="m111.93775 94.063576a1.9364232 1.9364232 0 1 1 -3.87285 0 1.9364232 1.9364232 0 1 1 3.87285 0z" fill="#4d4c38" stroke="url(#i)" stroke-linejoin="round" stroke-width="1.729834" transform="matrix(.57802848 0 0 .57815191 9.837156 5.678089)"/><path d="m111.93775 94.063576a1.9364232 1.9364232 0 1 1 -3.87285 0 1.9364232 1.9364232 0 1 1 3.87285 0z" fill="#4d4c38" stroke="url(#i)" stroke-linejoin="round" stroke-width="1.729834" transform="matrix(.57802848 0 0 .57815191 3.867515 5.678089)"/><path d="m111.93775 94.063576a1.9364232 1.9364232 0 1 1 -3.87285 0 1.9364232 1.9364232 0 1 1 3.87285 0z" fill="#4d4c38" stroke="url(#i)" stroke-linejoin="round" stroke-width="1.729834" transform="matrix(.57802848 0 0 .57815191 18.791618 2.692632)"/><path d="m111.93775 94.063576a1.9364232 1.9364232 0 1 1 -3.87285 0 1.9364232 1.9364232 0 1 1 3.87285 0z" fill="#4d4c38" stroke="url(#i)" stroke-linejoin="round" stroke-width="1.729834" transform="matrix(.57802848 0 0 .57815191 12.821976 2.692632)"/><path d="m111.93775 94.063576a1.9364232 1.9364232 0 1 1 -3.87285 0 1.9364232 1.9364232 0 1 1 3.87285 0z" fill="#4d4c38" stroke="url(#i)" stroke-linejoin="round" stroke-width="1.729834" transform="matrix(.57802848 0 0 .57815191 6.852336 2.692632)"/><path d="m111.93775 94.063576a1.9364232 1.9364232 0 1 1 -3.87285 0 1.9364232 1.9364232 0 1 1 3.87285 0z" fill="#4d4c38" stroke="url(#i)" stroke-linejoin="round" stroke-width="1.729834" transform="matrix(.57802848 0 0 .57815191 15.806797 -.292826)"/><path d="m111.93775 94.063576a1.9364232 1.9364232 0 1 1 -3.87285 0 1.9364232 1.9364232 0 1 1 3.87285 0z" fill="#4d4c38" stroke="url(#i)" stroke-linejoin="round" stroke-width="1.729834" transform="matrix(.57802848 0 0 .57815191 9.837156 -.292826)"/><path d="m111.93775 94.063576a1.9364232 1.9364232 0 1 1 -3.87285 0 1.9364232 1.9364232 0 1 1 3.87285 0z" fill="#4d4c38" stroke="url(#i)" stroke-linejoin="round" stroke-width="1.729834" transform="matrix(.57802848 0 0 .57815191 18.791618 -3.278284)"/><path d="m111.93775 94.063576a1.9364232 1.9364232 0 1 1 -3.87285 0 1.9364232 1.9364232 0 1 1 3.87285 0z" fill="#4d4c38" stroke="url(#i)" stroke-linejoin="round" stroke-width="1.729834" transform="matrix(.57802848 0 0 .57815191 12.821976 -3.278284)"/><path d="m111.93775 94.063576a1.9364232 1.9364232 0 1 1 -3.87285 0 1.9364232 1.9364232 0 1 1 3.87285 0z" fill="#4d4c38" stroke="url(#i)" stroke-linejoin="round" stroke-width="1.729834" transform="matrix(.57802848 0 0 .57815191 15.806797 -6.263742)"/><path d="m111.93775 94.063576a1.9364232 1.9364232 0 1 1 -3.87285 0 1.9364232 1.9364232 0 1 1 3.87285 0z" fill="#4d4c38" stroke="url(#i)" stroke-linejoin="round" stroke-width="1.729834" transform="matrix(.57802848 0 0 .57815191 18.791618 -9.249199)"/><g transform="translate(-2 -1)"><path d="m76 101.96875c-3.310589 0-6.03125 2.72066-6.03125 6.03125s2.720661 6.03125 6.03125 6.03125h8c3.310589 0 6.03125-2.72066 6.03125-6.03125s-2.720661-6.03125-6.03125-6.03125z" fill="url(#w)" transform="matrix(.74766355 0 0 .74611399 .186916 -.580311)"/><rect fill="url(#x)" height="6.000001" rx="3" width="12" x="54" y="77"/><rect fill="url(#y)" height="2.687279" opacity=".6" rx="1.34364" width="9.879859" x="55.06007" y="77.265022"/><path d="m52.0625 79.5c-.028583.166907-.0625.324693-.0625.5 0 1.662 1.338 3 3 3h6c1.662 0 3-1.338 3-3 0-.175307-.03392-.333093-.0625-.5-.242398 1.41546-1.450807 2.5-2.9375 2.5h-6c-1.486693 0-2.695102-1.08454-2.9375-2.5z" fill="#1a1a1a" opacity=".3" transform="translate(2)"/></g><path d="m-33.53125 18c-1.318838 0-2.40625 1.087412-2.40625 2.40625v4.65625h-4.65625c-1.318837 0-2.40625 1.087414-2.40625 2.40625v7.0625c0 1.318836 1.087413 2.40625 2.40625 2.40625h4.65625v4.65625c0 1.318839 1.087415 2.40625 2.40625 2.40625h7.0625c1.318836 0 2.40625-1.087413 2.40625-2.40625v-4.65625h4.65625c1.318836 0 2.40625-1.087412 2.40625-2.40625v-7.0625c0-1.318837-1.087414-2.40625-2.40625-2.40625h-4.65625v-4.65625c0-1.318836-1.087412-2.40625-2.40625-2.40625z" opacity=".8"/><path d="m26.46875 15.84375c-1.958746 0-3.5625 1.603754-3.5625 3.5625v3.5h-3.5c-1.958747 0-3.5625 1.603754-3.5625 3.5625v7.0625c0 1.958746 1.603753 3.5625 3.5625 3.5625h3.5v3.5c0 1.958749 1.603756 3.5625 3.5625 3.5625h7.0625c1.958746 0 3.5625-1.603753 3.5625-3.5625v-3.5h3.5c1.958745 0 3.5625-1.603752 3.5625-3.5625v-7.0625c0-1.958747-1.603754-3.5625-3.5625-3.5625h-3.5v-3.5c0-1.958745-1.603752-3.5625-3.5625-3.5625z" fill="url(#n)" transform="matrix(0 -1 -1 0 10 60)"/><path d="m26.46875 18c-1.318838 0-2.40625 1.087412-2.40625 2.40625v4.65625h-4.65625c-1.318837 0-2.40625 1.087414-2.40625 2.40625v7.0625c0 1.318836 1.087413 2.40625 2.40625 2.40625h4.65625v4.65625c0 1.318839 1.087415 2.40625 2.40625 2.40625h7.0625c1.318836 0 2.40625-1.087413 2.40625-2.40625v-4.65625h4.65625c1.318836 0 2.40625-1.087412 2.40625-2.40625v-7.0625c0-1.318837-1.087414-2.40625-2.40625-2.40625h-4.65625v-4.65625c0-1.318836-1.087412-2.40625-2.40625-2.40625z" filter="url(#p)" opacity=".8"/><path d="m26.323528 17.500001c-.814705 0-1.470589.655884-1.470589 1.470588v5.882354h-5.882351c-.814707 0-1.470588.655882-1.470588 1.470588v7.35294c0 .814707.655881 1.47059 1.470588 1.47059h5.882351v5.882351c0 .814707.655884 1.470588 1.470589 1.470588h7.352941c.814706 0 1.470589-.655881 1.470589-1.470588v-5.882351h5.882353c.814705 0 1.470588-.655883 1.470588-1.47059v-7.35294c0-.814706-.655883-1.470588-1.470588-1.470588h-5.882353v-5.882354c0-.814704-.655883-1.470588-1.470589-1.470588z" fill="url(#m)" stroke="url(#o)" stroke-linejoin="round"/><path d="m43.10954 40a3.1095405 3.1095405 0 1 1 -6.21908 0 3.1095405 3.1095405 0 1 1 6.21908 0z" fill="url(#k)" transform="matrix(.86632785 0 0 .86632788 -11.712085 -4.653114)"/><path d="m43.10954 40a3.1095405 3.1095405 0 1 1 -6.21908 0 3.1095405 3.1095405 0 1 1 6.21908 0z" fill="url(#k)" transform="matrix(.86632785 0 0 .86632788 2.405851 -4.653114)"/><path d="m43.10954 40a3.1095405 3.1095405 0 1 1 -6.21908 0 3.1095405 3.1095405 0 1 1 6.21908 0z" fill="url(#k)" transform="matrix(.86632785 0 0 .86632788 -4.653116 -11.712083)"/><path d="m43.10954 40a3.1095405 3.1095405 0 1 1 -6.21908 0 3.1095405 3.1095405 0 1 1 6.21908 0z" fill="url(#k)" transform="matrix(.86632785 0 0 .86632788 -4.653116 2.405853)"/></g><path d="m12 77.125v2.875h.90625v-1.15625h1.09375v-.59375h-1.09375v-.5h1.28125v-.625zm3.09375 0-1.09375 2.875h.90625l.15625-.46875h1l.125.46875h.9375l-1.0625-2.875zm2.3125 0v2.875h2.40625v-.65625h-1.53125v-.5625h1.375v-.59375h-1.375v-.4375h1.5v-.625zm2.90625 0v2.875h.8125v-1.5625l1.09375 1.5625h.8125v-2.875h-.8125v1.59375l-1.09375-1.59375zm3.25 0v.625h1.4375l-1.59375 1.65625v.59375h2.71875v-.625h-1.65625l1.59375-1.65625v-.59375zm3.75 0-1.09375 2.875h.90625l.15625-.46875h1l.15625.46875h.90625l-1.0625-2.875zm-11.75.75.3125 1.03125h-.625zm12.21875 0 .3125 1.03125h-.625zm4.0625.03125c-.193426.000002-.33888.02651-.46875.09375-.170399.0875-.31783.211051-.40625.375-.08842.163952-.125.351575-.125.5625 0 .194347.04579.396708.125.5625.07921.164872.186247.28566.34375.375.157503.08842.350653.125.5625.125.166713 0 .33789-.03112.5-.09375.163028-.06355.28934-.13585.375-.21875v-.8125h-.875v.34375h.46875v.25c-.06171.04789-.16342.09092-.25.125-.08566.03316-.16434.0625-.25.0625-.173163 0-.299407-.06776-.40625-.1875-.106847-.12066-.15625-.290849-.15625-.53125 0-.222898.05125-.386707.15625-.5.105922-.113288.227562-.187499.40625-.1875.117896 0 .23421.03572.3125.09375.07921.05711.1277.11928.15625.21875l.40625-.0625c-.04053-.186055-.139407-.332496-.28125-.4375-.140925-.105925-.342298-.156248-.59375-.15625zm8.28125 0c-.155662 0-.295722.01553-.40625.0625-.109608.04698-.19105.12849-.25.21875-.05803.08934-.09375.178091-.09375.28125 0 .160267.06316.294801.1875.40625.08842.07921.249534.13316.46875.1875.170397.04237.2646.07717.3125.09375.07.02487.12862.05967.15625.09375.02855.03316.0625.07711.0625.125-.000001.07461-.05776.13132-.125.1875-.06632.05527-.149538.09375-.28125.09375-.124345 0-.23882-.03112-.3125-.09375-.07277-.06263-.10105-.147694-.125-.28125l-.40625.03125c.02671.226584.11276.381182.25.5.137239.117896.337692.1875.59375.1875.175924 0 .319602-.01368.4375-.0625.117896-.04974.21677-.148682.28125-.25.06447-.101317.09375-.196445.09375-.3125-.00001-.128029-.03941-.22592-.09375-.3125-.05342-.0875-.12296-.16901-.21875-.21875-.09487-.05066-.23855-.10927-.4375-.15625-.198952-.04698-.32342-.08171-.375-.125-.04053-.03408-.0625-.0771-.0625-.125 0-.0525.01921-.09368.0625-.125.06724-.04882.162431-.0625.28125-.0625.115133 0 .19289.01645.25.0625.05802.04513.1075.11467.125.21875h.40625c-.0064-.186055-.0898-.357299-.21875-.46875-.12803-.111445-.308285-.156248-.5625-.15625zm-6.4375.03125-.78125 2.03125h.4375l.15625-.46875h.8125l.1875.46875h.4375l-.8125-2.03125zm1.46875 0v2.03125h.375v-1.59375l.40625 1.59375h.40625l.40625-1.59375v1.59375h.375v-2.03125h-.625l-.375 1.375-.34375-1.375zm2.375 0v2.03125h1.53125v-.34375h-1.125v-.5625h1v-.34375h-1v-.4375h1.09375v-.34375zm-3.625.46875.28125.75h-.5625z" fill="#696859"/><g fill-rule="evenodd" transform="translate(47)"><path d="m76 101.96875c-3.310589 0-6.03125 2.72066-6.03125 6.03125s2.720661 6.03125 6.03125 6.03125h8c3.310589 0 6.03125-2.72066 6.03125-6.03125s-2.720661-6.03125-6.03125-6.03125z" fill="url(#w)" transform="matrix(.74766355 0 0 .74611399 .186916 -.580311)"/><rect filter="url(#v)" height="6.000001" rx="3" width="12" x="54" y="77.5"/><rect fill="url(#x)" height="6.000001" rx="3" width="12" x="54" y="77"/><rect fill="url(#y)" height="2.687279" opacity=".6" rx="1.34364" width="9.879859" x="55.06007" y="77.265022"/></g><g fill-rule="evenodd" transform="translate(17 -1)"><path d="m76 101.96875c-3.310589 0-6.03125 2.72066-6.03125 6.03125s2.720661 6.03125 6.03125 6.03125h8c3.310589 0 6.03125-2.72066 6.03125-6.03125s-2.720661-6.03125-6.03125-6.03125z" fill="url(#w)" transform="matrix(.74766355 0 0 .74611399 .186916 -.580311)"/><rect fill="url(#x)" height="6.000001" rx="3" width="12" x="54" y="77"/><rect fill="url(#y)" height="2.687279" opacity=".6" rx="1.34364" width="9.879859" x="55.06007" y="77.265022"/><path d="m52.0625 79.5c-.028583.166907-.0625.324693-.0625.5 0 1.662 1.338 3 3 3h6c1.662 0 3-1.338 3-3 0-.175307-.03392-.333093-.0625-.5-.242398 1.41546-1.450807 2.5-2.9375 2.5h-6c-1.486693 0-2.695102-1.08454-2.9375-2.5z" fill="#1a1a1a" opacity=".3" transform="translate(2)"/></g></svg>