<svg enable-background="new" height="96" width="96" xmlns="http://www.w3.org/2000/svg" xmlns:xlink="http://www.w3.org/1999/xlink"><linearGradient id="a"><stop offset="0" stop-color="#fefefe"/><stop offset="1" stop-color="#fefefe" stop-opacity="0"/></linearGradient><linearGradient id="b" gradientUnits="userSpaceOnUse" x1="36.357143" x2="36.357143" xlink:href="#a" y1="6" y2="63.893143"/><radialGradient id="c" cx="48" cy="90.171875" gradientTransform="matrix(1.1573129 0 0 .99590774 -7.551021 .197132)" gradientUnits="userSpaceOnUse" r="42" xlink:href="#a"/><linearGradient id="d" gradientTransform="matrix(1.0058652 0 0 .994169 100 0)" gradientUnits="userSpaceOnUse" x1="45.447727" x2="45.447727" y1="92.539597" y2="7.01654"><stop offset="0"/><stop offset="1" stop-opacity=".588235"/></linearGradient><linearGradient id="e" gradientTransform="matrix(1.0238095 0 0 1.0119048 -1.142857 -98.071429)" gradientUnits="userSpaceOnUse" x1="32.251034" x2="32.251034" xlink:href="#d" y1="6.131708" y2="90.238609"/><linearGradient id="f" gradientTransform="translate(0 -97)" gradientUnits="userSpaceOnUse" x1="32.251034" x2="32.251034" xlink:href="#d" y1="6.131708" y2="90.238609"/><linearGradient id="g" gradientUnits="userSpaceOnUse" x1="48" x2="48.395313" y1="90" y2="10.647931"><stop offset="0" stop-color="#0b1838"/><stop offset="1" stop-color="#2d87b4"/></linearGradient><filter id="h" color-interpolation-filters="sRGB"><feBlend in2="BackgroundImage" mode="multiply"/></filter><linearGradient id="i" gradientUnits="userSpaceOnUse" x1="40.41808386815" x2="44.11455467445" y1="33.17807521568" y2="61.2555694122"><stop offset="0" stop-color="#f5f5f5"/><stop offset="1" stop-color="#dcdcdc"/></linearGradient><g fill="url(#e)"><path d="m12-95.03125c-5.5110903 0-10.03125 4.52016-10.03125 10.03125v71c0 5.5110902 4.5201598 10.03125 10.03125 10.03125h72c5.51109 0 10.03125-4.5201597 10.03125-10.03125v-71c0-5.51109-4.52016-10.03125-10.03125-10.03125z" opacity=".08" transform="scale(1 -1)"/><path d="m12-94.03125c-4.971633 0-9.03125 4.059617-9.03125 9.03125v71c0 4.9716329 4.0596171 9.03125 9.03125 9.03125h72c4.971633 0 9.03125-4.059617 9.03125-9.03125v-71c0-4.971633-4.059617-9.03125-9.03125-9.03125z" opacity=".1" transform="scale(1 -1)"/><path d="m12-93c-4.4091333 0-8 3.590867-8 8v71c0 4.4091333 3.5908667 8 8 8h72c4.409133 0 8-3.5908667 8-8v-71c0-4.409133-3.590867-8-8-8z" opacity=".2" transform="scale(1 -1)"/><rect height="85" opacity=".3" rx="7" transform="scale(1 -1)" width="86" x="5" y="-92"/></g><rect fill="url(#f)" height="84" opacity=".45" rx="6" transform="scale(1 -1)" width="84" x="6" y="-91"/><rect fill="url(#g)" height="84" rx="6" width="84" x="6" y="6"/><path d="m12 6c-3.324 0-6 2.676-6 6v2 68 2c0 .334721.04135.6507.09375.96875.0487.295596.09704.596915.1875.875.00988.03038.020892.0636.03125.09375.098865.287771.2348802.547452.375.8125.1445918.273507.3156161.535615.5.78125s.3737765.473472.59375.6875c.439947.428056.94291.814526 1.5 1.09375.278545.139612.5734731.246947.875.34375-.2562018-.100222-.4867109-.236272-.71875-.375-.00741-.0044-.023866.0045-.03125 0-.031933-.0193-.062293-.04251-.09375-.0625-.120395-.0767-.2310226-.163513-.34375-.25-.1061728-.0808-.2132809-.161112-.3125-.25-.1779299-.161433-.3474596-.345388-.5-.53125-.1075789-.130255-.2183939-.265285-.3125-.40625-.025089-.03838-.038446-.08587-.0625-.125-.064763-.103032-.1302275-.204517-.1875-.3125-.1010083-.194706-.2056748-.415701-.28125-.625-.00796-.02181-.023589-.04055-.03125-.0625-.0318251-.09195-.0358045-.186831-.0625-.28125-.0303323-.106618-.0703894-.203031-.09375-.3125-.0728786-.341512-.125-.698205-.125-1.0625v-2-68-2c0-2.781848 2.2181517-5 5-5h2 68 2c2.781848 0 5 2.218152 5 5v2 68 2c0 .364295-.05212.720988-.125 1.0625-.04415.206893-.08838.397658-.15625.59375-.0077.02195-.0233.04069-.03125.0625-.06274.173739-.138383.367449-.21875.53125-.04158.0828-.07904.169954-.125.25-.0546.09721-.126774.18835-.1875.28125-.09411.140965-.204921.275995-.3125.40625-.143174.17445-.303141.346998-.46875.5-.01117.0102-.01998.02115-.03125.03125-.138386.125556-.285091.234436-.4375.34375-.102571.07315-.204318.153364-.3125.21875-.0074.0045-.02384-.0044-.03125 0-.232039.138728-.462548.274778-.71875.375.301527-.0968.596455-.204138.875-.34375.55709-.279224 1.060053-.665694 1.5-1.09375.219973-.214028.409366-.441865.59375-.6875s.355408-.507743.5-.78125c.14012-.265048.276135-.524729.375-.8125.01041-.03078.02133-.06274.03125-.09375.09046-.278085.1388-.579404.1875-.875.0524-.31805.09375-.634029.09375-.96875v-2-68-2c0-3.324-2.676-6-6-6z" fill="url(#b)" opacity=".25"/><path d="m12 90c-3.324 0-6-2.676-6-6v-2-68-2c0-.334721.04135-.6507.09375-.96875.0487-.295596.09704-.596915.1875-.875.00988-.03038.020892-.0636.03125-.09375.098865-.287771.2348802-.547452.375-.8125.1445918-.273507.3156161-.535615.5-.78125s.3737765-.473472.59375-.6875c.439947-.428056.94291-.814526 1.5-1.09375.278545-.139612.5734731-.246947.875-.34375-.2562018.100222-.4867109.236272-.71875.375-.00741.0044-.023866-.0045-.03125 0-.031933.0193-.062293.04251-.09375.0625-.120395.0767-.2310226.163513-.34375.25-.1061728.0808-.2132809.161112-.3125.25-.1779299.161433-.3474596.345388-.5.53125-.1075789.130255-.2183939.265285-.3125.40625-.025089.03838-.038446.08587-.0625.125-.064763.103032-.1302275.204517-.1875.3125-.1010083.194706-.2056748.415701-.28125.625-.00796.02181-.023589.04055-.03125.0625-.0318251.09195-.0358045.186831-.0625.28125-.0303323.106618-.0703894.203031-.09375.3125-.0728786.341512-.125.698205-.125 1.0625v2 68 2c0 2.781848 2.2181517 5 5 5h2 68 2c2.781848 0 5-2.218152 5-5v-2-68-2c0-.364295-.05212-.720988-.125-1.0625-.04415-.206893-.08838-.397658-.15625-.59375-.0077-.02195-.0233-.04069-.03125-.0625-.06274-.173739-.138383-.367449-.21875-.53125-.04158-.0828-.07904-.169954-.125-.25-.0546-.09721-.126774-.18835-.1875-.28125-.09411-.140965-.204921-.275995-.3125-.40625-.143174-.17445-.303141-.346998-.46875-.5-.01117-.0102-.01998-.02115-.03125-.03125-.138386-.125556-.285091-.234436-.4375-.34375-.102571-.07315-.204318-.153364-.3125-.21875-.0074-.0045-.02384.0044-.03125 0-.232039-.138728-.462548-.274778-.71875-.375.301527.0968.596455.204138.875.34375.55709.279224 1.060053.665694 1.5 1.09375.219973.214028.409366.441865.59375.6875s.355408.507743.5.78125c.14012.265048.276135.524729.375.8125.01041.03078.02133.06274.03125.09375.09046.278085.1388.579404.1875.875.0524.31805.09375.634029.09375.96875v2 68 2c0 3.324-2.676 6-6 6z" fill="url(#c)" opacity=".15"/><g filter="url(#h)" opacity=".8"/><g transform="translate(0 4)"><g transform="translate(0 2)"><path d="m73.65625 24.03125c-6.334459.284343-11.191676 5.245903-12 11.3125l-5.6875 7.8125c-.632413.126542-1.229763.32857-1.8125.5625l-25.1875-10.71875c-1.565496-3.813213-5.158294-6.625-9.5625-6.625-5.828465 0-10.5625 4.801478-10.5625 10.625 0 5.823521 4.734035 10.625 10.5625 10.625 1.462308 0 2.753778-.4211 3.9375-.9375l25.03125 10.71875c1.66084 3.950803 5.470355 6.765828 10 6.5625 4.932773-.221423 8.724676-3.909559 9.65625-8.53125l7.46875-5.59375c6.767564-.674652 11.965507-6.516638 11.65625-13.40625-.320095-7.131038-6.384167-12.725669-13.5-12.40625z" opacity=".05"/><path d="m73.6875 25c-5.969617.267966-10.545759 5.000015-11.15625 10.78125l-5.96875 8.21875c-.892911.139706-1.720542.389015-2.5.75l-25.78125-10.96875c-1.326485-3.692519-4.724203-6.4375-8.875-6.4375-5.29425 0-9.59375 4.359345-9.59375 9.65625 0 5.296904 4.2995 9.65625 9.59375 9.65625 1.457932 0 2.794981-.423981 4-1l25.625 10.96875c1.404223 3.832357 5.041168 6.566733 9.3125 6.375 4.635343-.208072 8.193066-3.759922 8.875-8.1875l7.84375-5.875c6.436889-.449538 11.416732-5.969557 11.125-12.46875-.296404-6.603263-5.915978-11.764297-12.5-11.46875z" opacity=".1"/><path d="m73.75 26.3125c-5.503525.247044-9.758555 4.683153-10.0625 10.09375l-6.28125 8.6875c-1.255092.08166-2.406374.459361-3.4375 1.03125l-26.65625-11.34375c-.975143-3.508228-4.100391-6.125-7.90625-6.125-4.580989 0-8.28125 3.748734-8.28125 8.34375 0 4.595015 3.700261 8.34375 8.28125 8.34375 1.463396 0 2.806784-.422792 4-1.09375l26.5625 11.375c1.027973 3.640852 4.395002 6.23835 8.3125 6.0625 4.207559-.18887 7.46373-3.514979 7.8125-7.625l8.46875-6.375c.05768-.000124.08964.003.15625 0 5.872474-.263607 10.42091-5.260168 10.15625-11.15625-.264784-5.898833-5.252336-10.482365-11.125-10.21875zm.21875 4.84375c.792458-.03557 1.549007.120103 2.25.375-.705528-.265085-1.452382-.379554-2.25-.34375-.797457.0358-1.570533.235621-2.25.5625s-1.280007.761251-1.78125 1.3125c.493199-.546334 1.108817-.986547 1.78125-1.3125.690617-.334767 1.430897-.556982 2.25-.59375zm2.28125.375c2.126351.785809 3.703642 2.762358 3.8125 5.1875.07296 1.625313-.545419 3.12026-1.5625 4.21875 1.002487-1.102498 1.571809-2.587803 1.5-4.1875-.107246-2.389166-1.646168-4.417103-3.75-5.21875z" opacity=".15"/></g><path d="m73.78159 29.175853c-5.196177.233248-9.240089 4.514208-9.310466 9.676233l-6.550578 9.077704c-.110278.000063-.221259-.005-.332516 0-1.338505.06009-2.567965.491995-3.624431 1.163808l-27.332867-11.671333c-.717417-3.362468-3.654193-5.885544-7.215611-5.885544-4.098371 0-7.415121 3.327603-7.415121 7.448372s3.31675 7.481624 7.415121 7.481624c1.470447 0 2.838074-.451913 3.990199-1.19706l27.266364 11.671334c.743411 3.501996 3.905394 6.050553 7.581379 5.885544 3.927367-.176293 7.001449-3.386846 7.082604-7.282114l8.911446-6.716836c.144594-.000112.2864.0066.432272 0 5.391844-.242032 9.553814-4.853456 9.310465-10.274764-.243349-5.421306-4.816415-9.619-10.20826-9.376968zm.166258 3.092405c3.691552-.165708 6.81624 2.705849 6.982849 6.41757.16661 3.711722-2.692767 6.850392-6.384319 7.016101-3.691552.165708-6.81624-2.705849-6.982849-6.417571-.16661-3.711721 2.692767-6.850392 6.384319-7.0161zm-55.131257.831291c.197658-.02018.395572 0 .59853 0 2.409559 0 4.476908 1.446342 5.386769 3.524676l-3.724186-1.596079a4.2566385 4.2566385 0 0 0 -2.094855-.365769 4.2566385 4.2566385 0 0 0 -1.263563 8.179909l3.857193 1.662583c-.666544.263871-1.402348.39902-2.161358.39902-3.247342 0-5.885545-2.653705-5.885545-5.918796 0-3.061022 2.322073-5.582792 5.287015-5.885544zm55.19776.964299c-2.707164.12152-4.810669 2.432043-4.688484 5.154006s2.413592 4.843257 5.120756 4.721736c2.707164-.12152 4.81067-2.432044 4.688484-5.154007-.122185-2.721963-2.413592-4.843256-5.120756-4.721735zm-16.359818 15.395518c3.244107-.145623 6.005144 2.390951 6.151558 5.652783s-2.375425 6.039186-5.619531 6.184809c-2.506867.112529-4.715427-1.37019-5.652783-3.557927l3.624431 1.529576a4.2566385 4.2566385 0 1 0 3.358418-7.814141l-3.724186-1.59608c.581718-.229476 1.201976-.369388 1.862093-.39902z" opacity=".3"/><path d="m73.78159 28.175853c-5.196177.233248-9.240089 4.514208-9.310466 9.676233l-6.550578 9.077704c-.110278.000063-.221259-.005-.332516 0-1.338505.06009-2.567965.491995-3.624431 1.163808l-27.332867-11.671333c-.717417-3.362468-3.654193-5.885544-7.215611-5.885544-4.098371 0-7.415121 3.327603-7.415121 7.448372s3.31675 7.481624 7.415121 7.481624c1.470447 0 2.838074-.451913 3.990199-1.19706l27.266364 11.671334c.743411 3.501996 3.905394 6.050553 7.581379 5.885544 3.927367-.176293 7.001449-3.386846 7.082604-7.282114l8.911446-6.716836c.144594-.000112.2864.0066.432272 0 5.391844-.242032 9.553814-4.853456 9.310465-10.274764-.243349-5.421306-4.816415-9.619-10.20826-9.376968zm.166258 3.092405c3.691552-.165708 6.81624 2.705849 6.982849 6.41757.16661 3.711722-2.692767 6.850392-6.384319 7.016101-3.691552.165708-6.81624-2.705849-6.982849-6.417571-.16661-3.711721 2.692767-6.850392 6.384319-7.0161zm-55.131257.831291c.197658-.02018.395572 0 .59853 0 2.409559 0 4.476908 1.446342 5.386769 3.524677l-3.724186-1.59608a4.2566385 4.2566385 0 0 0 -2.094855-.365769 4.2566385 4.2566385 0 0 0 -1.263563 8.179909l3.857193 1.662583c-.666544.263871-1.402348.39902-2.161358.39902-3.247342 0-5.885545-2.653705-5.885545-5.918796 0-3.061022 2.322073-5.582792 5.287015-5.885544zm55.19776.964299c-2.707164.12152-4.810669 2.432044-4.688484 5.154006.122185 2.721963 2.413592 4.843257 5.120756 4.721736 2.707164-.12152 4.81067-2.432044 4.688484-5.154007-.122185-2.721962-2.413592-4.843256-5.120756-4.721735zm-16.359818 15.395518c3.244107-.145623 6.005144 2.390951 6.151558 5.652783s-2.375425 6.039186-5.619531 6.184809c-2.506867.112529-4.715427-1.37019-5.652783-3.557927l3.624431 1.529576a4.2566385 4.2566385 0 1 0 3.358418-7.814141l-3.724186-1.59608c.581718-.229476 1.201976-.369388 1.862093-.39902z" fill="url(#i)"/><path d="m73.78125 28.187501c-5.196177.233248-9.242123 4.494224-9.3125 9.656249l-6.5625 9.09375c-.110278.000063-.201243-.005-.3125 0-1.338505.06009-2.568534.484437-3.625 1.15625l-27.34375-11.65625c-.717417-3.362468-3.657332-5.906249-7.21875-5.906249-4.098371 0-7.40625 3.34798-7.40625 7.468749 0 .171847.0199.330984.03125.5.251045-3.890923 3.440711-6.968749 7.375-6.968749 3.561418 0 6.501333 2.543781 7.21875 5.906249l27.34375 11.65625c1.056466-.671813 2.286495-1.09616 3.625-1.15625.111257-.005.202222.000063.3125 0l6.5625-9.09375c.07038-5.162025 4.116323-9.423001 9.3125-9.656249 5.391845-.242032 9.975401 3.953693 10.21875 9.374999.01843-.331636.01521-.661168 0-1-.243349-5.421306-4.826905-9.617031-10.21875-9.374999zm.21875 4.875c-2.707164.12152-4.809685 2.434287-4.6875 5.156249.0052.116469.01822.22961.03125.34375.212742-2.426011 2.170952-4.388438 4.65625-4.499999 2.622894-.117738 4.87742 1.869291 5.125 4.468749.02625-.24618.01144-.495147 0-.75-.122185-2.721962-2.417836-4.84027-5.125-4.718749zm-55.03125.59375a4.2566385 4.2566385 0 0 0 -3.875 4.781249 4.2566385 4.2566385 0 0 1 3.875-3.781249 4.2566385 4.2566385 0 0 1 2.09375.375l3.75 1.593749c-.215785-.492902-.508633-.964054-.84375-1.374999l-2.90625-1.21875a4.2566385 4.2566385 0 0 0 -2.09375-.375zm48.59375 4.781249c-.02223.278775-.01287.55703 0 .84375.166609 3.711722 3.277198 6.571958 6.96875 6.40625 3.691552-.165709 6.57286-3.288278 6.40625-7-.0029-.0637-.02666-.124306-.03125-.1875-.252234 3.34343-2.958776 6.03415-6.375 6.1875-3.639545.163373-6.722783-2.614338-6.96875-6.25zm-54 .15625c-.0084.128957-.03125.275184-.03125.40625 0 3.265091 2.627658 5.90625 5.875 5.90625.75901 0 1.489706-.142379 2.15625-.40625l-1.46875-.625c-.225786.02494-.456095.03125-.6875.03125-3.044383 0-5.542016-2.330603-5.84375-5.3125zm43.75 10.90625c-.53201.05593-1.052241.15479-1.53125.34375l3.75 1.625a4.2566385 4.2566385 0 0 1 2.6875 3.4375 4.2566385 4.2566385 0 0 0 -2.6875-4.4375zm6.46875 5.40625c-.256861 2.906578-2.616838 5.272621-5.59375 5.40625-1.92758.08653-3.679954-.792396-4.8125-2.1875l-.84375-.375c.937356 2.187737 3.149383 3.675029 5.65625 3.5625 3.244106-.145623 5.771414-2.925668 5.625-6.1875-.0032-.07165-.02553-.147815-.03125-.21875z" fill="#fefefe"/><path d="m73.9375 30.281251c-3.691552.165708-6.54161 3.288278-6.375 6.999999.0023.05229-.0035.104298 0 .15625.265566-3.330092 2.96861-6.003341 6.375-6.156249 3.628198-.162864 6.705903 2.599707 6.96875 6.218749.02033-.269462.04368-.535667.03125-.8125-.166609-3.711721-3.308448-6.571957-7-6.406249zm-55.125.8125c-2.964942.302752-5.28125 2.845227-5.28125 5.906249 0 .139804.02174.268848.03125.40625.265969-2.800363 2.470367-5.028669 5.25-5.312499.197658-.02018.390792 0 .59375 0 1.838103 0 3.484587.834434 4.5625 2.15625l.84375.375c-.909861-2.078335-2.996691-3.53125-5.40625-3.53125-.202958 0-.396092-.02018-.59375 0zm-3.71875 6.343749a4.2566385 4.2566385 0 0 0 2.625 4.40625l2.375 1.03125c.514793-.05687 1.005421-.191577 1.46875-.375l-3.84375-1.65625a4.2566385 4.2566385 0 0 1 -2.625-3.40625zm-3.0625.0625c-.01047.162274-.03125.335021-.03125.5 0 4.120769 3.307879 7.46875 7.40625 7.46875 1.470447 0 2.847875-.442353 4-1.1875l27.25 11.65625c.743411 3.501996 3.917765 6.040009 7.59375 5.875 3.927367-.176293 7.012595-3.385982 7.09375-7.28125l8.90625-6.71875c.144594-.000112.291628.0066.4375 0 5.391844-.242032 9.555849-4.828692 9.3125-10.25-.27648 4.974533-4.257646 9.023095-9.3125 9.25-.145872.0066-.292906-.000112-.4375 0l-8.90625 6.71875c-.08115 3.895268-3.166383 7.104957-7.09375 7.28125-3.675985.165009-6.850339-2.373004-7.59375-5.875l-27.25-11.65625c-1.152125.745147-2.529553 1.1875-4 1.1875-3.927458 0-7.114126-3.084901-7.375-6.96875zm67.09375.03125c-.25412 2.383155-2.233803 4.296108-4.6875 4.40625-2.591329.116321-4.802174-1.821587-5.09375-4.375-.01899.216574-.04126.433171-.03125.65625.122185 2.721963 2.417836 4.840271 5.125 4.71875 2.707164-.12152 4.809686-2.434287 4.6875-5.15625-.0038-.08473.008-.166483 0-.25zm-21.46875 9.9375c-.660117.02963-1.293282.145524-1.875.375l1.53125.65625c.114073-.01199.227199-.02602.34375-.03125 3.172841-.142424 5.870457 2.279412 6.125 5.4375.02305-.260882.04331-.512596.03125-.78125-.146414-3.261832-2.912143-5.801873-6.15625-5.65625zm4.5625 6.46875a4.2566385 4.2566385 0 0 1 -6.0625 3.34375l-3.625-1.53125c.216604.505543.503391.955735.84375 1.375l2.78125 1.15625a4.2566385 4.2566385 0 0 0 6.0625-4.34375z" opacity=".1"/></g></svg>