<svg height="96" width="96" xmlns="http://www.w3.org/2000/svg" xmlns:xlink="http://www.w3.org/1999/xlink"><linearGradient id="a"><stop offset="0" stop-color="#fefefe"/><stop offset="1" stop-color="#fefefe" stop-opacity="0"/></linearGradient><filter id="b" color-interpolation-filters="sRGB" height="1.384" width="1.384" x="-.192" y="-.192"><feGaussianBlur stdDeviation="5.28"/></filter><linearGradient id="c" gradientUnits="userSpaceOnUse" x1="48" x2="48" xlink:href="#a" y1="20.220806" y2="138.66119"/><radialGradient id="d" cx="48" cy="90.171875" gradientTransform="matrix(1.1573129 0 0 .99590774 -7.551021 .197132)" gradientUnits="userSpaceOnUse" r="42" xlink:href="#a"/><clipPath id="e"><rect height="84" rx="6" width="84" x="6" y="6"/></clipPath><linearGradient id="f" gradientUnits="userSpaceOnUse" x1="48" x2="48" y1="90" y2="5.987717"><stop offset="0" stop-color="#222"/><stop offset="1" stop-color="#333"/></linearGradient><linearGradient id="g" gradientUnits="userSpaceOnUse" x1="65.928574" x2="65.928574" y1="6" y2="90.001488"><stop offset="0" stop-color="#dbff9a"/><stop offset=".17644246" stop-color="#dfffa7"/><stop offset=".29336214" stop-color="#c1ff53"/><stop offset=".49318853" stop-color="#82c50c"/><stop offset=".75466347" stop-color="#609501"/><stop offset="1" stop-color="#7cbf06"/></linearGradient><filter id="h" color-interpolation-filters="sRGB"><feGaussianBlur stdDeviation="1.215"/></filter><clipPath id="i"><rect height="41.668793" rx="6" ry="4.419643" width="80.307129" x="7.828682" y="28.31978"/></clipPath><linearGradient id="j" gradientTransform="matrix(.66666667 0 0 1 -13.666667 0)" gradientUnits="userSpaceOnUse" x1="-41" x2="-35" y1="48" y2="48"><stop offset="0"/><stop offset="1" stop-opacity="0"/></linearGradient><linearGradient id="k" gradientTransform="matrix(.50000001 0 0 1 61.499999 0)" gradientUnits="userSpaceOnUse" x1="-41" x2="-35" xlink:href="#a" y1="48" y2="48"/><linearGradient id="l" gradientUnits="userSpaceOnUse" x1="36.357143" x2="36.357143" xlink:href="#a" y1="6" y2="63.893143"/><linearGradient id="m" gradientTransform="matrix(1.0058652 0 0 .994169 100 0)" gradientUnits="userSpaceOnUse" x1="45.447727" x2="45.447727" y1="92.539597" y2="7.01654"><stop offset="0"/><stop offset="1" stop-opacity=".588235"/></linearGradient><linearGradient id="n" gradientTransform="matrix(1.0238095 0 0 1.0119048 -1.142857 -98.071429)" gradientUnits="userSpaceOnUse" x1="32.251034" x2="32.251034" xlink:href="#m" y1="6.131708" y2="90.238609"/><linearGradient id="o" gradientTransform="translate(0 -97)" gradientUnits="userSpaceOnUse" x1="32.251034" x2="32.251034" xlink:href="#m" y1="6.131708" y2="90.238609"/><g><g fill="url(#n)"><path d="m12-95.03125c-5.5110903 0-10.03125 4.52016-10.03125 10.03125v71c0 5.5110902 4.5201598 10.03125 10.03125 10.03125h72c5.51109 0 10.03125-4.5201597 10.03125-10.03125v-71c0-5.51109-4.52016-10.03125-10.03125-10.03125z" opacity=".08" transform="scale(1 -1)"/><path d="m12-94.03125c-4.971633 0-9.03125 4.059617-9.03125 9.03125v71c0 4.9716329 4.0596171 9.03125 9.03125 9.03125h72c4.971633 0 9.03125-4.059617 9.03125-9.03125v-71c0-4.971633-4.059617-9.03125-9.03125-9.03125z" opacity=".1" transform="scale(1 -1)"/><path d="m12-93c-4.4091333 0-8 3.590867-8 8v71c0 4.4091333 3.5908667 8 8 8h72c4.409133 0 8-3.5908667 8-8v-71c0-4.409133-3.590867-8-8-8z" opacity=".2" transform="scale(1 -1)"/><rect height="85" opacity=".3" rx="7" transform="scale(1 -1)" width="86" x="5" y="-92"/></g><rect fill="url(#o)" height="84" opacity=".45" rx="6" transform="scale(1 -1)" width="84" x="6" y="-91"/></g><rect fill="url(#f)" height="84" rx="6" width="84" x="6" y="6"/><path clip-path="url(#i)" d="m41.09375 7v23.15625c.45785-.03541.91464-.07808 1.375-.09375 17.73169-.597617 29.28125 14.5625 29.28125 14.5625s-13.26928 16.125-27.09375 16.125c-1.26699 0-2.44843-.115384-3.5625-.3125v4.3125c.95268.120965 1.93805.1875 2.96875.1875 12.86459 0 22.17906-6.56784 31.1875-14.34375 1.49357 1.196173 7.61803 4.100795 8.875 5.375-8.56532 7.171087-28.52664 12.96875-39.84375 12.96875-1.09088 0-2.15773-.08816-3.1875-.1875v22.25h42.90625c3.324 0 6-2.676 6-6v-72c0-3.324-2.676-6-6-6zm0 61.75v-4c-15.74361-1.980878-21.125-19.34375-21.125-19.34375s7.04388-10.392601 21.125-11.46875v-3.78125c-15.59663 1.252582-29.09375 14.46875-29.09375 14.46875s7.64066 22.100249 29.09375 24.125zm0-34.8125v4.65625c.83391-.08932 1.70531-.15625 2.59375-.15625 8.16763 0 13 6.34375 13 6.34375l-6.625 5.625c-2.98432-4.974916-4.0048-7.18144-8.96875-7.78125v14.125c1.12504.37825 2.38702.625 3.78125.625 9.68785 0 18.71875-12.5625 18.71875-12.5625s-8.37418-11.338-21.125-10.9375c-.46631.01473-.92185.03085-1.375.0625zm0 22.8125c-6.70822-2.253833-8.875-10.0625-8.875-10.0625s3.89507-4.660116 8.875-4.0625v-4.03125c-9.48822 1.026008-15.1875 7.34375-15.1875 7.34375s3.28907 12.378727 15.1875 14.5z" filter="url(#h)"/><path d="m41.09375 6v23.15625c.45785-.03541.91464-.07808 1.375-.09375 17.73169-.597617 29.28125 14.5625 29.28125 14.5625s-13.26928 16.125-27.09375 16.125c-1.26699 0-2.44843-.115384-3.5625-.3125v4.3125c.95268.120965 1.93805.1875 2.96875.1875 12.86459 0 22.17906-6.56784 31.1875-14.34375 1.49357 1.196173 7.61803 4.100795 8.875 5.375-8.56532 7.171087-28.52664 12.96875-39.84375 12.96875-1.09088 0-2.15773-.08816-3.1875-.1875v22.25h42.90625c3.324 0 6-2.676 6-6v-72c0-3.324-2.676-6-6-6zm0 61.75v-4c-15.74361-1.980878-21.125-19.34375-21.125-19.34375s7.04388-10.392601 21.125-11.46875v-3.78125c-15.59663 1.252582-29.09375 14.46875-29.09375 14.46875s7.64066 22.100249 29.09375 24.125zm0-34.8125v4.65625c.83391-.08932 1.70531-.15625 2.59375-.15625 8.16763 0 13 6.34375 13 6.34375l-6.625 5.625c-2.98432-4.974916-4.0048-7.18144-8.96875-7.78125v14.125c1.12504.37825 2.38702.625 3.78125.625 9.68785 0 18.71875-12.5625 18.71875-12.5625s-8.37418-11.338-21.125-10.9375c-.46631.01473-.92185.03085-1.375.0625zm0 22.8125c-6.70822-2.253833-8.875-10.0625-8.875-10.0625s3.89507-4.660116 8.875-4.0625v-4.03125c-9.48822 1.026008-15.1875 7.34375-15.1875 7.34375s3.28907 12.378727 15.1875 14.5z" fill="url(#g)"/><path d="m41.09375 29.15625c-15.59663 1.252582-29.09375 14.46875-29.09375 14.46875s.133774.377176.28125.75c1.391896-1.321508 14.088333-13.036236 28.8125-14.21875zm1.375 3.71875c-.46631.01473-.92185.03085-1.375.0625v1c.45315-.03165.90869-.04777 1.375-.0625 11.156968-.350437 18.972802 8.272812 20.75 10.4375.233108-.302786.375-.5.375-.5s-8.37418-11.338-21.125-10.9375zm-1.375 4.71875c-9.48822 1.026008-15.1875 7.34375-15.1875 7.34375s.06756.30706.21875.75c1.09829-1.114652 6.527506-6.180957 14.96875-7.09375zm0 4.03125v1c4.96395.59981 5.98443 2.806334 8.96875 7.78125l6.625-5.625s-.198936-.260014-.5-.59375l-6.125 5.21875c-2.98432-4.974916-4.0048-7.18144-8.96875-7.78125zm30.25 2.46875c-1.987131 2.302841-14.043018 15.65625-26.6875 15.65625-1.26699 0-2.44843-.115384-3.5625-.3125v1c1.11407.197116 2.29551.3125 3.5625.3125 13.82447 0 27.09375-16.125 27.09375-16.125s-.185185-.264221-.40625-.53125zm-51.15625 1c-.103144.139838-.21875.3125-.21875.3125s5.38139 17.362872 21.125 19.34375v-1c-13.947854-1.754934-19.761237-15.524562-20.90625-18.65625zm12.28125 1.34375c-.05952.06661-.25.25-.25.25s2.16678 7.808667 8.875 10.0625v-1c-5.49314-1.845589-7.918431-7.355105-8.625-9.3125zm51.03125 9c-8.861762 6.948918-28.154254 12.5-39.21875 12.5-1.09088 0-2.15773-.08816-3.1875-.1875v1c1.02977.09934 2.09662.1875 3.1875.1875 11.31711 0 31.27843-5.797663 39.84375-12.96875-.145065-.147054-.364874-.345897-.625-.53125z" fill="#fefefe" opacity=".6"/><path d="m41.09375 6v23.15625c.45785-.03541.91464-.07808 1.375-.09375.512295-.01727 1.029405-.0083 1.53125 0v-23.0625zm0 23.15625c-.03076.0025-.063-.0026-.09375 0v3.78125c.03108-.0025.0626.0024.09375 0zm0 3.78125v4.65625c.83391-.08932 1.70531-.15625 2.59375-.15625.106165 0 .207465-.0021.3125 0v-4.53125c-.502494-.02084-1.01409-.04749-1.53125-.03125-.46631.01473-.92185.03085-1.375.0625zm0 4.65625c-.03168.0034-.06216-.0035-.09375 0v4.03125c.03196.0034.06171-.0038.09375 0zm0 4.03125v14.125c.886356.298002 1.852191.51535 2.90625.59375v-14c-.808246-.334122-1.738367-.577631-2.90625-.71875zm0 14.125c-.03138-.010543-.062569-.020465-.09375-.03125v3.6875c.03256.006.06106.02542.09375.03125zm0 3.6875v4.3125c.932867.118449 1.898827.184795 2.90625.1875v-4.21875c-1.016991-.03288-1.990414-.119208-2.90625-.28125zm0 4.3125c-.03136-.0039-.06247.0041-.09375 0v4c.03136.0031.06233-.003.09375 0zm0 4v22.25h2.90625v-22.0625c-.992733-.01339-1.965463-.09674-2.90625-.1875z" fill="url(#k)" opacity=".6"/><path d="m-41 6h4v84h-4z" fill="url(#j)" opacity=".6" transform="scale(-1 1)"/><g><rect height="66" rx="12" style="opacity:.1;stroke:#fefefe;stroke-width:.5;stroke-linecap:round;clip-path:url(#e);fill:url(#c);filter:url(#b)" width="66" x="15" y="15"/><path d="m12 6c-3.324 0-6 2.676-6 6v2 68 2c0 .334721.04135.6507.09375.96875.0487.295596.09704.596915.1875.875.0099.03038.02089.0636.03125.09375.09886.287771.23488.547452.375.8125.144592.273507.315616.535615.5.78125s.373776.473472.59375.6875c.439947.428056.94291.814526 1.5 1.09375.278545.139612.573473.246947.875.34375-.256202-.100222-.486711-.236272-.71875-.375-.0074-.0044-.02387.0045-.03125 0-.03193-.0193-.06229-.04251-.09375-.0625-.120395-.0767-.231023-.163513-.34375-.25-.106173-.0808-.213281-.161112-.3125-.25-.17793-.161433-.34746-.345388-.5-.53125-.107579-.130255-.218394-.265285-.3125-.40625-.02509-.03838-.03845-.08587-.0625-.125-.06476-.103032-.130228-.204517-.1875-.3125-.101008-.194706-.205675-.415701-.28125-.625-.008-.02181-.02359-.04055-.03125-.0625-.03183-.09195-.0358-.186831-.0625-.28125-.030332-.106618-.070389-.203031-.09375-.3125-.072879-.341512-.125-.698205-.125-1.0625v-2-68-2c0-2.781848 2.218152-5 5-5h2 68 2c2.781848 0 5 2.218152 5 5v2 68 2c0 .364295-.05212.720988-.125 1.0625-.04415.206893-.08838.397658-.15625.59375-.0077.02195-.0233.04069-.03125.0625-.06274.173739-.138383.367449-.21875.53125-.04158.0828-.07904.169954-.125.25-.0546.09721-.126774.18835-.1875.28125-.09411.140965-.204921.275995-.3125.40625-.143174.17445-.303141.346998-.46875.5-.01117.0102-.01998.02115-.03125.03125-.138386.125556-.285091.234436-.4375.34375-.102571.07315-.204318.153364-.3125.21875-.0074.0045-.02384-.0044-.03125 0-.232039.138728-.462548.274778-.71875.375.301527-.0968.596455-.204138.875-.34375.55709-.279224 1.060053-.665694 1.5-1.09375.219973-.214028.409366-.441865.59375-.6875s.355408-.507743.5-.78125c.14012-.265048.276135-.524729.375-.8125.01041-.03078.02133-.06274.03125-.09375.09046-.278085.1388-.579404.1875-.875.0524-.31805.09375-.634029.09375-.96875v-2-68-2c0-3.324-2.676-6-6-6z" fill="url(#l)" opacity=".2"/><path d="m12 90c-3.324 0-6-2.676-6-6v-2-68-2c0-.334721.04135-.6507.09375-.96875.0487-.295596.09704-.596915.1875-.875.00988-.03038.020892-.0636.03125-.09375.098865-.287771.2348802-.547452.375-.8125.1445918-.273507.3156161-.535615.5-.78125s.3737765-.473472.59375-.6875c.439947-.428056.94291-.814526 1.5-1.09375.278545-.139612.5734731-.246947.875-.34375-.2562018.100222-.4867109.236272-.71875.375-.00741.0044-.023866-.0045-.03125 0-.031933.0193-.062293.04251-.09375.0625-.120395.0767-.2310226.163513-.34375.25-.1061728.0808-.2132809.161112-.3125.25-.1779299.161433-.3474596.345388-.5.53125-.1075789.130255-.2183939.265285-.3125.40625-.025089.03838-.038446.08587-.0625.125-.064763.103032-.1302275.204517-.1875.3125-.1010083.194706-.2056748.415701-.28125.625-.00796.02181-.023589.04055-.03125.0625-.0318251.09195-.0358045.186831-.0625.28125-.0303323.106618-.0703894.203031-.09375.3125-.0728786.341512-.125.698205-.125 1.0625v2 68 2c0 2.781848 2.2181517 5 5 5h2 68 2c2.781848 0 5-2.218152 5-5v-2-68-2c0-.364295-.05212-.720988-.125-1.0625-.04415-.206893-.08838-.397658-.15625-.59375-.0077-.02195-.0233-.04069-.03125-.0625-.06274-.173739-.138383-.367449-.21875-.53125-.04158-.0828-.07904-.169954-.125-.25-.0546-.09721-.126774-.18835-.1875-.28125-.09411-.140965-.204921-.275995-.3125-.40625-.143174-.17445-.303141-.346998-.46875-.5-.01117-.0102-.01998-.02115-.03125-.03125-.138386-.125556-.285091-.234436-.4375-.34375-.102571-.07315-.204318-.153364-.3125-.21875-.0074-.0045-.02384.0044-.03125 0-.232039-.138728-.462548-.274778-.71875-.375.301527.0968.596455.204138.875.34375.55709.279224 1.060053.665694 1.5 1.09375.219973.214028.409366.441865.59375.6875s.355408.507743.5.78125c.14012.265048.276135.524729.375.8125.01041.03078.02133.06274.03125.09375.09046.278085.1388.579404.1875.875.0524.31805.09375.634029.09375.96875v2 68 2c0 3.324-2.676 6-6 6z" fill="url(#d)" opacity=".2"/><path d="m41 6v2h41 2c2.781848 0 5 2.218152 5 5v2 68 2c0 .364295-.05212.720988-.125 1.0625-.04415.206893-.08838.397658-.15625.59375-.0077.02195-.0233.04069-.03125.0625-.06274.173739-.138383.367449-.21875.53125-.04158.0828-.07904.169954-.125.25-.0546.09721-.126774.18835-.1875.28125-.09411.140965-.204921.275995-.3125.40625-.143174.17445-.303141.346998-.46875.5-.01117.0102-.01998.02115-.03125.03125-.138386.125556-.285091.234436-.4375.34375-.102571.07315-.204318.153364-.3125.21875-.0074.0045-.02384-.0044-.03125 0-.232039.138728-.462548.274778-.71875.375.301527-.0968.596455-.204138.875-.34375.55709-.279224 1.060053-.665694 1.5-1.09375.219973-.214028.409366-.441865.59375-.6875s.355408-.507743.5-.78125c.14012-.265048.276135-.524729.375-.8125.01041-.03078.02133-.06274.03125-.09375.09046-.278085.1388-.579404.1875-.875.0524-.31805.09375-.634029.09375-.96875v-2-68-2c0-3.324-2.676-6-6-6z" fill="url(#l)" opacity=".5"/></g></svg>